Hubli-expanded.ufo
<glyph name="exclam" format="1">
  <advance width="337"/>
  <unicode hex="0021"/>
  <outline>
    <contour>
      <point x="197" y="97" type="curve" smooth="yes"/>
      <point x="200" y="84"/>
      <point x="200" y="70"/>
      <point x="200" y="47" type="curve" smooth="yes"/>
      <point x="200" y="31"/>
      <point x="199" y="16"/>
      <point x="197" y="3" type="curve" smooth="yes"/>
      <point x="194" y="-15"/>
      <point x="176" y="-27"/>
      <point x="159" y="-25" type="curve" smooth="yes"/>
      <point x="141" y="-22"/>
      <point x="129" y="-4"/>
      <point x="131" y="13" type="curve" smooth="yes"/>
      <point x="133" y="24"/>
      <point x="134" y="35"/>
      <point x="134" y="47" type="curve" smooth="yes"/>
      <point x="134" y="64"/>
      <point x="134" y="76"/>
      <point x="133" y="85" type="curve" smooth="yes"/>
      <point x="129" y="103"/>
      <point x="142" y="120"/>
      <point x="159" y="123" type="curve" smooth="yes"/>
      <point x="177" y="127"/>
      <point x="194" y="114"/>
    </contour>
    <contour>
      <point x="134" y="270" type="curve" smooth="yes"/>
      <point x="141" y="548" type="line" smooth="yes"/>
      <point x="141" y="566"/>
      <point x="157" y="580"/>
      <point x="175" y="580" type="curve" smooth="yes"/>
      <point x="193" y="580"/>
      <point x="207" y="564"/>
      <point x="207" y="546" type="curve" smooth="yes"/>
      <point x="200" y="268" type="line" smooth="yes"/>
      <point x="200" y="250"/>
      <point x="184" y="236"/>
      <point x="166" y="236" type="curve" smooth="yes"/>
      <point x="148" y="236"/>
      <point x="134" y="252"/>
    </contour>
  </outline>
</glyph>
<glyph name="parenleft" format="1">
  <advance width="325"/>
  <unicode hex="0028"/>
  <outline>
    <contour>
      <point x="262" y="585" type="curve" smooth="yes"/>
      <point x="192" y="507"/>
      <point x="135" y="388"/>
      <point x="135" y="263" type="curve" smooth="yes"/>
      <point x="135" y="140"/>
      <point x="188" y="27"/>
      <point x="262" y="-49" type="curve" smooth="yes"/>
      <point x="274" y="-62"/>
      <point x="274" y="-83"/>
      <point x="261" y="-96" type="curve" smooth="yes"/>
      <point x="248" y="-108"/>
      <point x="227" y="-108"/>
      <point x="214" y="-95" type="curve" smooth="yes"/>
      <point x="130" y="-7"/>
      <point x="69" y="122"/>
      <point x="69" y="263" type="curve" smooth="yes"/>
      <point x="69" y="406"/>
      <point x="134" y="541"/>
      <point x="214" y="629" type="curve" smooth="yes"/>
      <point x="225" y="642"/>
      <point x="247" y="643"/>
      <point x="260" y="631" type="curve" smooth="yes"/>
      <point x="273" y="620"/>
      <point x="274" y="598"/>
    </contour>
  </outline>
</glyph>
<glyph name="comma" format="1">
  <advance width="240"/>
  <unicode hex="002C"/>
  <outline>
    <contour>
      <point x="146" y="91" type="curve" smooth="yes"/>
      <point x="151" y="77"/>
      <point x="154" y="55"/>
      <point x="154" y="32" type="curve" smooth="yes"/>
      <point x="154" y="-21"/>
      <point x="136" y="-74"/>
      <point x="105" y="-115" type="curve" smooth="yes"/>
      <point x="95" y="-129"/>
      <point x="74" y="-132"/>
      <point x="59" y="-121" type="curve" smooth="yes"/>
      <point x="45" y="-111"/>
      <point x="42" y="-90"/>
      <point x="53" y="-75" type="curve" smooth="yes"/>
      <point x="74" y="-46"/>
      <point x="88" y="-7"/>
      <point x="88" y="32" type="curve" smooth="yes"/>
      <point x="88" y="47"/>
      <point x="87" y="61"/>
      <point x="84" y="71" type="curve" smooth="yes"/>
      <point x="78" y="87"/>
      <point x="88" y="107"/>
      <point x="105" y="112" type="curve" smooth="yes"/>
      <point x="121" y="118"/>
      <point x="141" y="108"/>
    </contour>
  </outline>
</glyph>
<glyph name="period" format="1">
  <advance width="235"/>
  <unicode hex="002E"/>
  <outline>
    <contour>
      <point x="150" y="97" type="curve" smooth="yes"/>
      <point x="153" y="84"/>
      <point x="153" y="70"/>
      <point x="153" y="47" type="curve" smooth="yes"/>
      <point x="153" y="31"/>
      <point x="152" y="16"/>
      <point x="150" y="3" type="curve" smooth="yes"/>
      <point x="147" y="-15"/>
      <point x="129" y="-27"/>
      <point x="112" y="-25" type="curve" smooth="yes"/>
      <point x="94" y="-22"/>
      <point x="82" y="-4"/>
      <point x="84" y="13" type="curve" smooth="yes"/>
      <point x="86" y="24"/>
      <point x="87" y="35"/>
      <point x="87" y="47" type="curve" smooth="yes"/>
      <point x="87" y="64"/>
      <point x="87" y="76"/>
      <point x="86" y="85" type="curve" smooth="yes"/>
      <point x="82" y="103"/>
      <point x="95" y="120"/>
      <point x="112" y="123" type="curve" smooth="yes"/>
      <point x="130" y="127"/>
      <point x="147" y="114"/>
    </contour>
  </outline>
</glyph>
<glyph name="zero" format="1">
  <advance width="576"/>
  <unicode hex="0030"/>
  <outline>
    <contour>
      <point x="285" y="552" type="curve" smooth="yes"/>
      <point x="408" y="552"/>
      <point x="515" y="439"/>
      <point x="515" y="270" type="curve" smooth="yes"/>
      <point x="515" y="110"/>
      <point x="428" y="-13"/>
      <point x="285" y="-13" type="curve" smooth="yes"/>
      <point x="154" y="-13"/>
      <point x="52" y="111"/>
      <point x="52" y="268" type="curve"/>
      <point x="52" y="439"/>
      <point x="151" y="552"/>
    </contour>
    <contour>
      <point x="285" y="486" type="curve" smooth="yes"/>
      <point x="183" y="486"/>
      <point x="118" y="391"/>
      <point x="118" y="268" type="curve" smooth="yes"/>
      <point x="118" y="155"/>
      <point x="184" y="53"/>
      <point x="285" y="53" type="curve" smooth="yes"/>
      <point x="394" y="53"/>
      <point x="449" y="156"/>
      <point x="449" y="270" type="curve" smooth="yes"/>
      <point x="449" y="391"/>
      <point x="380" y="486"/>
    </contour>
  </outline>
</glyph>
<glyph name="one" format="1">
  <advance width="329"/>
  <unicode hex="0031"/>
  <outline>
    <contour>
      <point x="234" y="510" type="curve" smooth="yes"/>
      <point x="234" y="410"/>
      <point x="235" y="146"/>
      <point x="234" y="27" type="curve" smooth="yes"/>
      <point x="234" y="9"/>
      <point x="219" y="-6"/>
      <point x="201" y="-6" type="curve" smooth="yes"/>
      <point x="183" y="-6"/>
      <point x="168" y="9"/>
      <point x="168" y="27" type="curve" smooth="yes"/>
      <point x="169" y="146"/>
      <point x="168" y="410"/>
      <point x="168" y="510" type="curve" smooth="yes"/>
      <point x="168" y="528"/>
      <point x="183" y="543"/>
      <point x="201" y="543" type="curve" smooth="yes"/>
      <point x="219" y="543"/>
      <point x="234" y="528"/>
    </contour>
    <contour>
      <point x="217" y="488" type="curve" smooth="yes"/>
      <point x="78" y="408" type="line" smooth="yes"/>
      <point x="63" y="400"/>
      <point x="42" y="405"/>
      <point x="33" y="421" type="curve" smooth="yes"/>
      <point x="25" y="436"/>
      <point x="30" y="457"/>
      <point x="46" y="466" type="curve" smooth="yes"/>
      <point x="185" y="546" type="line" smooth="yes"/>
      <point x="200" y="554"/>
      <point x="221" y="549"/>
      <point x="230" y="533" type="curve" smooth="yes"/>
      <point x="238" y="518"/>
      <point x="233" y="497"/>
    </contour>
  </outline>
</glyph>
<glyph name="two" format="1">
  <advance width="531"/>
  <unicode hex="0032"/>
  <outline>
    <contour>
      <point x="78" y="59" type="curve" smooth="yes"/>
      <point x="238" y="218" type="line" smooth="yes"/>
      <point x="333" y="313"/>
      <point x="367" y="348"/>
      <point x="367" y="404" type="curve" smooth="yes"/>
      <point x="367" y="449"/>
      <point x="328" y="485"/>
      <point x="263" y="485" type="curve" smooth="yes"/>
      <point x="218" y="485"/>
      <point x="182" y="471"/>
      <point x="141" y="444" type="curve" smooth="yes"/>
      <point x="126" y="435"/>
      <point x="105" y="439"/>
      <point x="95" y="454" type="curve" smooth="yes"/>
      <point x="86" y="469"/>
      <point x="90" y="490"/>
      <point x="105" y="500" type="curve" smooth="yes"/>
      <point x="158" y="535"/>
      <point x="204" y="551"/>
      <point x="263" y="551" type="curve" smooth="yes"/>
      <point x="382" y="551"/>
      <point x="433" y="477"/>
      <point x="433" y="404" type="curve" smooth="yes"/>
      <point x="433" y="336"/>
      <point x="403" y="289"/>
      <point x="284" y="172" type="curve" smooth="yes"/>
      <point x="124" y="13" type="line" smooth="yes"/>
      <point x="112" y="0"/>
      <point x="90" y="0"/>
      <point x="78" y="13" type="curve" smooth="yes"/>
      <point x="65" y="25"/>
      <point x="65" y="47"/>
    </contour>
    <contour>
      <point x="435" y="-6" type="curve" smooth="yes"/>
      <point x="343" y="-6"/>
      <point x="147" y="-6"/>
      <point x="91" y="-6" type="curve" smooth="yes"/>
      <point x="73" y="-6"/>
      <point x="58" y="9"/>
      <point x="58" y="27" type="curve" smooth="yes"/>
      <point x="58" y="45"/>
      <point x="73" y="60"/>
      <point x="91" y="60" type="curve" smooth="yes"/>
      <point x="147" y="60"/>
      <point x="343" y="60"/>
      <point x="435" y="60" type="curve" smooth="yes"/>
      <point x="453" y="60"/>
      <point x="468" y="45"/>
      <point x="468" y="27" type="curve" smooth="yes"/>
      <point x="468" y="9"/>
      <point x="453" y="-6"/>
    </contour>
  </outline>
</glyph>
<glyph name="three" format="1">
  <advance width="531"/>
  <unicode hex="0033"/>
  <outline>
    <contour>
      <point x="120" y="544" type="curve" smooth="yes"/>
      <point x="211" y="544"/>
      <point x="362" y="544"/>
      <point x="417" y="544" type="curve" smooth="yes"/>
      <point x="435" y="544"/>
      <point x="450" y="529"/>
      <point x="450" y="511" type="curve" smooth="yes"/>
      <point x="450" y="493"/>
      <point x="435" y="478"/>
      <point x="417" y="478" type="curve" smooth="yes"/>
      <point x="362" y="478"/>
      <point x="211" y="478"/>
      <point x="120" y="478" type="curve" smooth="yes"/>
      <point x="102" y="478"/>
      <point x="87" y="493"/>
      <point x="87" y="511" type="curve" smooth="yes"/>
      <point x="87" y="529"/>
      <point x="102" y="544"/>
    </contour>
    <contour>
      <point x="116" y="84" type="curve" smooth="yes"/>
      <point x="155" y="68"/>
      <point x="203" y="56"/>
      <point x="260" y="56" type="curve" smooth="yes"/>
      <point x="348" y="56"/>
      <point x="399" y="96"/>
      <point x="399" y="159" type="curve" smooth="yes"/>
      <point x="399" y="220"/>
      <point x="346" y="256"/>
      <point x="271" y="256" type="curve" smooth="yes"/>
      <point x="228" y="256"/>
      <point x="194" y="249"/>
      <point x="174" y="243" type="curve" smooth="yes"/>
      <point x="157" y="237"/>
      <point x="138" y="247"/>
      <point x="133" y="264" type="curve" smooth="yes"/>
      <point x="127" y="281"/>
      <point x="137" y="300"/>
      <point x="154" y="305" type="curve" smooth="yes"/>
      <point x="178" y="313"/>
      <point x="220" y="322"/>
      <point x="271" y="322" type="curve" smooth="yes"/>
      <point x="398" y="322"/>
      <point x="465" y="252"/>
      <point x="465" y="159" type="curve" smooth="yes"/>
      <point x="465" y="66"/>
      <point x="404" y="-10"/>
      <point x="260" y="-10" type="curve" smooth="yes"/>
      <point x="193" y="-10"/>
      <point x="135" y="4"/>
      <point x="90" y="24" type="curve" smooth="yes"/>
      <point x="74" y="31"/>
      <point x="66" y="51"/>
      <point x="73" y="67" type="curve" smooth="yes"/>
      <point x="80" y="83"/>
      <point x="100" y="91"/>
    </contour>
    <contour>
      <point x="431" y="479" type="curve" smooth="yes"/>
      <point x="192" y="254" type="line" smooth="yes"/>
      <point x="179" y="242"/>
      <point x="157" y="242"/>
      <point x="145" y="255" type="curve" smooth="yes"/>
      <point x="133" y="268"/>
      <point x="133" y="290"/>
      <point x="146" y="302" type="curve" smooth="yes"/>
      <point x="385" y="527" type="line" smooth="yes"/>
      <point x="398" y="539"/>
      <point x="420" y="539"/>
      <point x="432" y="526" type="curve" smooth="yes"/>
      <point x="444" y="513"/>
      <point x="444" y="491"/>
    </contour>
  </outline>
</glyph>
<glyph name="four" format="1">
  <advance width="494"/>
  <unicode hex="0034"/>
  <outline>
    <contour>
      <point x="362" y="527" type="curve" smooth="yes"/>
      <point x="362" y="426"/>
      <point x="362" y="150"/>
      <point x="362" y="27" type="curve" smooth="yes"/>
      <point x="362" y="9"/>
      <point x="347" y="-6"/>
      <point x="329" y="-6" type="curve" smooth="yes"/>
      <point x="311" y="-6"/>
      <point x="296" y="9"/>
      <point x="296" y="27" type="curve" smooth="yes"/>
      <point x="296" y="150"/>
      <point x="296" y="426"/>
      <point x="296" y="527" type="curve" smooth="yes"/>
      <point x="296" y="545"/>
      <point x="311" y="560"/>
      <point x="329" y="560" type="curve" smooth="yes"/>
      <point x="347" y="560"/>
      <point x="362" y="545"/>
    </contour>
    <contour>
      <point x="348" y="497" type="curve" smooth="yes"/>
      <point x="68" y="148" type="line" smooth="yes"/>
      <point x="57" y="134"/>
      <point x="35" y="132"/>
      <point x="21" y="143" type="curve" smooth="yes"/>
      <point x="7" y="154"/>
      <point x="5" y="176"/>
      <point x="16" y="190" type="curve" smooth="yes"/>
      <point x="296" y="539" type="line" smooth="yes"/>
      <point x="307" y="553"/>
      <point x="329" y="555"/>
      <point x="343" y="544" type="curve" smooth="yes"/>
      <point x="357" y="533"/>
      <point x="359" y="511"/>
    </contour>
    <contour>
      <point x="52" y="202" type="curve" smooth="yes"/>
      <point x="442" y="202" type="line" smooth="yes"/>
      <point x="460" y="202"/>
      <point x="475" y="187"/>
      <point x="475" y="169" type="curve" smooth="yes"/>
      <point x="475" y="151"/>
      <point x="460" y="136"/>
      <point x="442" y="136" type="curve" smooth="yes"/>
      <point x="52" y="136" type="line" smooth="yes"/>
      <point x="34" y="136"/>
      <point x="19" y="151"/>
      <point x="19" y="169" type="curve" smooth="yes"/>
      <point x="19" y="187"/>
      <point x="34" y="202"/>
    </contour>
  </outline>
</glyph>
<glyph name="five" format="1">
  <advance width="531"/>
  <unicode hex="0035"/>
  <outline>
    <contour>
      <point x="132" y="545" type="curve" smooth="yes"/>
      <point x="227" y="545"/>
      <point x="338" y="545"/>
      <point x="396" y="545" type="curve" smooth="yes"/>
      <point x="414" y="545"/>
      <point x="429" y="530"/>
      <point x="429" y="512" type="curve" smooth="yes"/>
      <point x="429" y="494"/>
      <point x="414" y="479"/>
      <point x="396" y="479" type="curve" smooth="yes"/>
      <point x="338" y="479"/>
      <point x="227" y="479"/>
      <point x="132" y="479" type="curve" smooth="yes"/>
      <point x="114" y="479"/>
      <point x="99" y="494"/>
      <point x="99" y="512" type="curve" smooth="yes"/>
      <point x="99" y="530"/>
      <point x="114" y="545"/>
    </contour>
    <contour>
      <point x="115" y="92" type="curve" smooth="yes"/>
      <point x="154" y="74"/>
      <point x="209" y="56"/>
      <point x="264" y="56" type="curve" smooth="yes"/>
      <point x="353" y="56"/>
      <point x="397" y="105"/>
      <point x="397" y="171" type="curve" smooth="yes"/>
      <point x="397" y="233"/>
      <point x="346" y="274"/>
      <point x="274" y="274" type="curve" smooth="yes"/>
      <point x="206" y="274"/>
      <point x="170" y="261"/>
      <point x="140" y="253" type="curve" smooth="yes"/>
      <point x="123" y="249"/>
      <point x="104" y="260"/>
      <point x="100" y="277" type="curve" smooth="yes"/>
      <point x="96" y="294"/>
      <point x="107" y="313"/>
      <point x="124" y="317" type="curve" smooth="yes"/>
      <point x="158" y="325"/>
      <point x="198" y="340"/>
      <point x="274" y="340" type="curve" smooth="yes"/>
      <point x="392" y="340"/>
      <point x="463" y="266"/>
      <point x="463" y="171" type="curve" smooth="yes"/>
      <point x="463" y="72"/>
      <point x="403" y="-10"/>
      <point x="264" y="-10" type="curve" smooth="yes"/>
      <point x="199" y="-10"/>
      <point x="134" y="10"/>
      <point x="87" y="32" type="curve" smooth="yes"/>
      <point x="71" y="40"/>
      <point x="64" y="60"/>
      <point x="71" y="76" type="curve" smooth="yes"/>
      <point x="79" y="92"/>
      <point x="99" y="99"/>
    </contour>
    <contour>
      <point x="165" y="505" type="curve" smooth="yes"/>
      <point x="165" y="290" type="line" smooth="yes"/>
      <point x="165" y="272"/>
      <point x="150" y="257"/>
      <point x="132" y="257" type="curve" smooth="yes"/>
      <point x="114" y="257"/>
      <point x="99" y="272"/>
      <point x="99" y="290" type="curve" smooth="yes"/>
      <point x="99" y="505" type="line" smooth="yes"/>
      <point x="99" y="523"/>
      <point x="114" y="538"/>
      <point x="132" y="538" type="curve" smooth="yes"/>
      <point x="150" y="538"/>
      <point x="165" y="523"/>
    </contour>
  </outline>
</glyph>
<glyph name="six" format="1">
  <advance width="576"/>
  <unicode hex="0036"/>
  <outline>
    <contour>
      <point x="388" y="471" type="curve" smooth="yes"/>
      <point x="364" y="479"/>
      <point x="345" y="483"/>
      <point x="316" y="483" type="curve" smooth="yes"/>
      <point x="201" y="483"/>
      <point x="138" y="391"/>
      <point x="138" y="251" type="curve" smooth="yes"/>
      <point x="138" y="125"/>
      <point x="199" y="56"/>
      <point x="295" y="56" type="curve" smooth="yes"/>
      <point x="388" y="56"/>
      <point x="429" y="116"/>
      <point x="429" y="175" type="curve" smooth="yes"/>
      <point x="429" y="239"/>
      <point x="381" y="280"/>
      <point x="315" y="280" type="curve" smooth="yes"/>
      <point x="238" y="280"/>
      <point x="178" y="225"/>
      <point x="153" y="135" type="curve" smooth="yes"/>
      <point x="148" y="118"/>
      <point x="129" y="107"/>
      <point x="112" y="112" type="curve" smooth="yes"/>
      <point x="95" y="117"/>
      <point x="84" y="136"/>
      <point x="89" y="153" type="curve" smooth="yes"/>
      <point x="124" y="279"/>
      <point x="212" y="346"/>
      <point x="315" y="346" type="curve" smooth="yes"/>
      <point x="423" y="346"/>
      <point x="495" y="275"/>
      <point x="495" y="175" type="curve" smooth="yes"/>
      <point x="495" y="86"/>
      <point x="440" y="-10"/>
      <point x="295" y="-10" type="curve" smooth="yes"/>
      <point x="167" y="-10"/>
      <point x="72" y="71"/>
      <point x="72" y="251" type="curve" smooth="yes"/>
      <point x="72" y="443"/>
      <point x="169" y="549"/>
      <point x="316" y="549" type="curve" smooth="yes"/>
      <point x="353" y="549"/>
      <point x="378" y="543"/>
      <point x="408" y="533" type="curve" smooth="yes"/>
      <point x="425" y="528"/>
      <point x="435" y="508"/>
      <point x="429" y="492" type="curve" smooth="yes"/>
      <point x="424" y="475"/>
      <point x="404" y="465"/>
    </contour>
  </outline>
</glyph>
<glyph name="seven" format="1">
  <advance width="476"/>
  <unicode hex="0037"/>
  <outline>
    <contour>
      <point x="447" y="494" type="curve" smooth="yes"/>
      <point x="409" y="423"/>
      <point x="306" y="285"/>
      <point x="277" y="234" type="curve" smooth="yes"/>
      <point x="252" y="190"/>
      <point x="232" y="135"/>
      <point x="232" y="82" type="curve" smooth="yes"/>
      <point x="232" y="27" type="line" smooth="yes"/>
      <point x="232" y="9"/>
      <point x="217" y="-6"/>
      <point x="199" y="-6" type="curve" smooth="yes"/>
      <point x="181" y="-6"/>
      <point x="166" y="9"/>
      <point x="166" y="27" type="curve" smooth="yes"/>
      <point x="166" y="82" type="line" smooth="yes"/>
      <point x="166" y="147"/>
      <point x="190" y="212"/>
      <point x="219" y="266" type="curve" smooth="yes"/>
      <point x="248" y="317"/>
      <point x="351" y="455"/>
      <point x="389" y="526" type="curve" smooth="yes"/>
      <point x="397" y="541"/>
      <point x="418" y="548"/>
      <point x="434" y="539" type="curve" smooth="yes"/>
      <point x="449" y="531"/>
      <point x="456" y="510"/>
    </contour>
    <contour>
      <point x="411" y="478" type="curve" smooth="yes"/>
      <point x="68" y="478" type="line" smooth="yes"/>
      <point x="50" y="478"/>
      <point x="35" y="493"/>
      <point x="35" y="511" type="curve" smooth="yes"/>
      <point x="35" y="529"/>
      <point x="50" y="544"/>
      <point x="68" y="544" type="curve" smooth="yes"/>
      <point x="411" y="544" type="line" smooth="yes"/>
      <point x="429" y="544"/>
      <point x="444" y="529"/>
      <point x="444" y="511" type="curve" smooth="yes"/>
      <point x="444" y="493"/>
      <point x="429" y="478"/>
    </contour>
  </outline>
</glyph>
<glyph name="eight" format="1">
  <advance width="576"/>
  <unicode hex="0038"/>
  <outline>
    <contour>
      <point x="285" y="322" type="curve" smooth="yes"/>
      <point x="423" y="322"/>
      <point x="501" y="250"/>
      <point x="501" y="154" type="curve" smooth="yes"/>
      <point x="501" y="67"/>
      <point x="449" y="-14"/>
      <point x="285" y="-14" type="curve" smooth="yes"/>
      <point x="130" y="-14"/>
      <point x="67" y="67"/>
      <point x="67" y="153" type="curve" smooth="yes"/>
      <point x="67" y="250"/>
      <point x="138" y="322"/>
    </contour>
    <contour>
      <point x="285" y="552" type="curve" smooth="yes"/>
      <point x="409" y="552"/>
      <point x="475" y="490"/>
      <point x="475" y="406" type="curve" smooth="yes"/>
      <point x="475" y="327"/>
      <point x="420" y="256"/>
      <point x="285" y="256" type="curve" smooth="yes"/>
      <point x="144" y="256"/>
      <point x="93" y="328"/>
      <point x="93" y="406" type="curve" smooth="yes"/>
      <point x="93" y="489"/>
      <point x="155" y="552"/>
    </contour>
    <contour>
      <point x="285" y="256" type="curve" smooth="yes"/>
      <point x="196" y="256"/>
      <point x="133" y="220"/>
      <point x="133" y="153" type="curve" smooth="yes"/>
      <point x="133" y="93"/>
      <point x="192" y="52"/>
      <point x="285" y="52" type="curve" smooth="yes"/>
      <point x="385" y="52"/>
      <point x="435" y="93"/>
      <point x="435" y="154" type="curve" smooth="yes"/>
      <point x="435" y="220"/>
      <point x="369" y="256"/>
    </contour>
    <contour>
      <point x="285" y="486" type="curve" smooth="yes"/>
      <point x="213" y="486"/>
      <point x="159" y="461"/>
      <point x="159" y="406" type="curve" smooth="yes"/>
      <point x="159" y="354"/>
      <point x="206" y="322"/>
      <point x="285" y="322" type="curve" smooth="yes"/>
      <point x="360" y="322"/>
      <point x="409" y="355"/>
      <point x="409" y="406" type="curve" smooth="yes"/>
      <point x="409" y="460"/>
      <point x="353" y="486"/>
    </contour>
  </outline>
</glyph>
<glyph name="nine" format="1">
  <advance width="576"/>
  <unicode hex="0039"/>
  <outline>
    <contour>
      <point x="178" y="69" type="curve" smooth="yes"/>
      <point x="201" y="63"/>
      <point x="221" y="57"/>
      <point x="251" y="57" type="curve" smooth="yes"/>
      <point x="372" y="57"/>
      <point x="426" y="139"/>
      <point x="426" y="272" type="curve" smooth="yes"/>
      <point x="426" y="403"/>
      <point x="368" y="483"/>
      <point x="269" y="483" type="curve" smooth="yes"/>
      <point x="182" y="483"/>
      <point x="138" y="425"/>
      <point x="138" y="366" type="curve" smooth="yes"/>
      <point x="138" y="293"/>
      <point x="183" y="253"/>
      <point x="260" y="253" type="curve" smooth="yes"/>
      <point x="340" y="253"/>
      <point x="389" y="302"/>
      <point x="428" y="364" type="curve" smooth="yes"/>
      <point x="437" y="379"/>
      <point x="458" y="384"/>
      <point x="473" y="375" type="curve" smooth="yes"/>
      <point x="488" y="366"/>
      <point x="493" y="345"/>
      <point x="484" y="330" type="curve" smooth="yes"/>
      <point x="433" y="246"/>
      <point x="364" y="187"/>
      <point x="260" y="187" type="curve" smooth="yes"/>
      <point x="139" y="187"/>
      <point x="72" y="253"/>
      <point x="72" y="366" type="curve" smooth="yes"/>
      <point x="72" y="455"/>
      <point x="134" y="549"/>
      <point x="269" y="549" type="curve" smooth="yes"/>
      <point x="398" y="549"/>
      <point x="492" y="457"/>
      <point x="492" y="272" type="curve" smooth="yes"/>
      <point x="492" y="89"/>
      <point x="408" y="-9"/>
      <point x="251" y="-9" type="curve" smooth="yes"/>
      <point x="215" y="-9"/>
      <point x="189" y="-3"/>
      <point x="160" y="5" type="curve" smooth="yes"/>
      <point x="143" y="10"/>
      <point x="133" y="28"/>
      <point x="137" y="46" type="curve" smooth="yes"/>
      <point x="142" y="63"/>
      <point x="160" y="73"/>
    </contour>
  </outline>
</glyph>
<glyph name="colon" format="1">
  <advance width="235"/>
  <unicode hex="003A"/>
  <outline>
    <contour>
      <point x="149" y="368" type="curve" smooth="yes"/>
      <point x="149" y="354"/>
      <point x="149" y="346"/>
      <point x="149" y="327" type="curve" smooth="yes"/>
      <point x="149" y="315"/>
      <point x="150" y="295"/>
      <point x="152" y="284" type="curve" smooth="yes"/>
      <point x="154" y="267"/>
      <point x="142" y="249"/>
      <point x="124" y="246" type="curve" smooth="yes"/>
      <point x="107" y="244"/>
      <point x="89" y="256"/>
      <point x="86" y="274" type="curve" smooth="yes"/>
      <point x="84" y="287"/>
      <point x="83" y="311"/>
      <point x="83" y="327" type="curve" smooth="yes"/>
      <point x="83" y="346"/>
      <point x="83" y="354"/>
      <point x="83" y="368" type="curve" smooth="yes"/>
      <point x="83" y="386"/>
      <point x="98" y="401"/>
      <point x="116" y="401" type="curve" smooth="yes"/>
      <point x="134" y="401"/>
      <point x="149" y="386"/>
    </contour>
    <contour>
      <point x="149" y="115" type="curve" smooth="yes"/>
      <point x="149" y="102"/>
      <point x="149" y="94"/>
      <point x="149" y="75" type="curve" smooth="yes"/>
      <point x="149" y="63"/>
      <point x="150" y="43"/>
      <point x="152" y="32" type="curve" smooth="yes"/>
      <point x="154" y="15"/>
      <point x="142" y="-3"/>
      <point x="124" y="-6" type="curve" smooth="yes"/>
      <point x="107" y="-8"/>
      <point x="89" y="4"/>
      <point x="86" y="22" type="curve" smooth="yes"/>
      <point x="84" y="35"/>
      <point x="83" y="59"/>
      <point x="83" y="75" type="curve" smooth="yes"/>
      <point x="83" y="94"/>
      <point x="83" y="102"/>
      <point x="83" y="115" type="curve" smooth="yes"/>
      <point x="83" y="133"/>
      <point x="98" y="148"/>
      <point x="116" y="148" type="curve" smooth="yes"/>
      <point x="134" y="148"/>
      <point x="149" y="133"/>
    </contour>
  </outline>
</glyph>
<glyph name="semicolon" format="1">
  <advance width="235"/>
  <unicode hex="003B"/>
  <outline>
    <contour>
      <point x="149" y="361" type="curve" smooth="yes"/>
      <point x="149" y="347"/>
      <point x="149" y="339"/>
      <point x="149" y="320" type="curve" smooth="yes"/>
      <point x="149" y="308"/>
      <point x="150" y="288"/>
      <point x="151" y="278" type="curve" smooth="yes"/>
      <point x="155" y="260"/>
      <point x="142" y="243"/>
      <point x="125" y="240" type="curve" smooth="yes"/>
      <point x="107" y="236"/>
      <point x="90" y="249"/>
      <point x="87" y="266" type="curve" smooth="yes"/>
      <point x="84" y="278"/>
      <point x="83" y="304"/>
      <point x="83" y="320" type="curve" smooth="yes"/>
      <point x="83" y="339"/>
      <point x="83" y="347"/>
      <point x="83" y="361" type="curve" smooth="yes"/>
      <point x="83" y="379"/>
      <point x="98" y="394"/>
      <point x="116" y="394" type="curve" smooth="yes"/>
      <point x="134" y="394"/>
      <point x="149" y="379"/>
    </contour>
    <contour>
      <point x="145" y="91" type="curve" smooth="yes"/>
      <point x="150" y="77"/>
      <point x="153" y="55"/>
      <point x="153" y="32" type="curve" smooth="yes"/>
      <point x="153" y="-21"/>
      <point x="133" y="-72"/>
      <point x="105" y="-113" type="curve" smooth="yes"/>
      <point x="96" y="-128"/>
      <point x="75" y="-132"/>
      <point x="60" y="-122" type="curve" smooth="yes"/>
      <point x="45" y="-113"/>
      <point x="41" y="-92"/>
      <point x="51" y="-77" type="curve" smooth="yes"/>
      <point x="71" y="-46"/>
      <point x="87" y="-7"/>
      <point x="87" y="32" type="curve" smooth="yes"/>
      <point x="87" y="47"/>
      <point x="86" y="61"/>
      <point x="83" y="71" type="curve" smooth="yes"/>
      <point x="77" y="87"/>
      <point x="87" y="107"/>
      <point x="104" y="112" type="curve" smooth="yes"/>
      <point x="120" y="118"/>
      <point x="140" y="108"/>
    </contour>
  </outline>
</glyph>
<glyph name="question" format="1">
  <advance width="341"/>
  <unicode hex="003F"/>
  <outline>
    <contour>
      <point x="193" y="97" type="curve" smooth="yes"/>
      <point x="196" y="84"/>
      <point x="196" y="70"/>
      <point x="196" y="47" type="curve" smooth="yes"/>
      <point x="196" y="31"/>
      <point x="195" y="16"/>
      <point x="193" y="3" type="curve" smooth="yes"/>
      <point x="190" y="-15"/>
      <point x="172" y="-27"/>
      <point x="155" y="-25" type="curve" smooth="yes"/>
      <point x="137" y="-22"/>
      <point x="125" y="-4"/>
      <point x="127" y="13" type="curve" smooth="yes"/>
      <point x="129" y="24"/>
      <point x="130" y="35"/>
      <point x="130" y="47" type="curve" smooth="yes"/>
      <point x="130" y="64"/>
      <point x="130" y="76"/>
      <point x="129" y="85" type="curve" smooth="yes"/>
      <point x="125" y="103"/>
      <point x="138" y="120"/>
      <point x="155" y="123" type="curve" smooth="yes"/>
      <point x="173" y="127"/>
      <point x="190" y="114"/>
    </contour>
    <contour>
      <point x="48" y="538" type="curve" smooth="yes"/>
      <point x="89" y="563"/>
      <point x="130" y="577"/>
      <point x="175" y="577" type="curve" smooth="yes"/>
      <point x="279" y="577"/>
      <point x="318" y="509"/>
      <point x="318" y="454" type="curve" smooth="yes"/>
      <point x="318" y="403"/>
      <point x="286" y="362"/>
      <point x="222" y="330" type="curve" smooth="yes"/>
      <point x="195" y="316"/>
      <point x="177" y="305"/>
      <point x="177" y="289" type="curve" smooth="yes"/>
      <point x="177" y="278"/>
      <point x="184" y="269"/>
      <point x="197" y="258" type="curve" smooth="yes"/>
      <point x="210" y="246"/>
      <point x="212" y="225"/>
      <point x="200" y="211" type="curve" smooth="yes"/>
      <point x="188" y="198"/>
      <point x="167" y="196"/>
      <point x="153" y="208" type="curve" smooth="yes"/>
      <point x="122" y="235"/>
      <point x="111" y="264"/>
      <point x="111" y="289" type="curve" smooth="yes"/>
      <point x="111" y="321"/>
      <point x="125" y="354"/>
      <point x="192" y="390" type="curve" smooth="yes"/>
      <point x="226" y="406"/>
      <point x="252" y="425"/>
      <point x="252" y="454" type="curve" smooth="yes"/>
      <point x="252" y="483"/>
      <point x="223" y="511"/>
      <point x="175" y="511" type="curve" smooth="yes"/>
      <point x="142" y="511"/>
      <point x="113" y="501"/>
      <point x="84" y="482" type="curve" smooth="yes"/>
      <point x="68" y="473"/>
      <point x="48" y="477"/>
      <point x="38" y="492" type="curve" smooth="yes"/>
      <point x="29" y="508"/>
      <point x="33" y="528"/>
    </contour>
  </outline>
</glyph>
<glyph name="A" format="1">
  <advance width="562"/>
  <unicode hex="0041"/>
  <outline>
    <contour>
      <point x="302" y="508" type="curve" smooth="yes"/>
      <point x="234" y="355"/>
      <point x="140" y="141"/>
      <point x="95" y="16" type="curve" smooth="yes"/>
      <point x="89" y="-1"/>
      <point x="70" y="-10"/>
      <point x="53" y="-4" type="curve" smooth="yes"/>
      <point x="36" y="2"/>
      <point x="27" y="21"/>
      <point x="33" y="38" type="curve" smooth="yes"/>
      <point x="78" y="165"/>
      <point x="174" y="381"/>
      <point x="242" y="534" type="curve" smooth="yes"/>
      <point x="249" y="551"/>
      <point x="269" y="558"/>
      <point x="285" y="551" type="curve" smooth="yes"/>
      <point x="302" y="544"/>
      <point x="309" y="524"/>
    </contour>
    <contour>
      <point x="308" y="535" type="curve" smooth="yes"/>
      <point x="380" y="380"/>
      <point x="479" y="162"/>
      <point x="527" y="39" type="curve" smooth="yes"/>
      <point x="533" y="22"/>
      <point x="525" y="3"/>
      <point x="508" y="-4" type="curve" smooth="yes"/>
      <point x="491" y="-10"/>
      <point x="472" y="-2"/>
      <point x="465" y="15" type="curve" smooth="yes"/>
      <point x="417" y="138"/>
      <point x="320" y="354"/>
      <point x="248" y="507" type="curve" smooth="yes"/>
      <point x="241" y="523"/>
      <point x="248" y="543"/>
      <point x="264" y="551" type="curve" smooth="yes"/>
      <point x="280" y="558"/>
      <point x="300" y="551"/>
    </contour>
    <contour>
      <point x="133" y="205" type="curve" smooth="yes"/>
      <point x="424" y="205" type="line" smooth="yes"/>
      <point x="442" y="205"/>
      <point x="457" y="190"/>
      <point x="457" y="172" type="curve" smooth="yes"/>
      <point x="457" y="154"/>
      <point x="442" y="139"/>
      <point x="424" y="139" type="curve" smooth="yes"/>
      <point x="133" y="139" type="line" smooth="yes"/>
      <point x="115" y="139"/>
      <point x="100" y="154"/>
      <point x="100" y="172" type="curve" smooth="yes"/>
      <point x="100" y="190"/>
      <point x="115" y="205"/>
    </contour>
  </outline>
</glyph>
<glyph name="B" format="1">
  <advance width="525"/>
  <unicode hex="0042"/>
  <outline>
    <contour>
      <point x="133" y="320" type="curve" smooth="yes"/>
      <point x="292" y="320" type="line" smooth="yes"/>
      <point x="424" y="320"/>
      <point x="482" y="239"/>
      <point x="482" y="154" type="curve" smooth="yes"/>
      <point x="482" y="74"/>
      <point x="440" y="-6"/>
      <point x="289" y="-6" type="curve" smooth="yes"/>
      <point x="124" y="-6" type="line" smooth="yes"/>
      <point x="106" y="-6"/>
      <point x="91" y="9"/>
      <point x="91" y="27" type="curve" smooth="yes"/>
      <point x="91" y="512" type="line" smooth="yes"/>
      <point x="91" y="530"/>
      <point x="106" y="545"/>
      <point x="124" y="545" type="curve" smooth="yes"/>
      <point x="272" y="545" type="line" smooth="yes"/>
      <point x="392" y="545"/>
      <point x="439" y="475"/>
      <point x="439" y="404" type="curve" smooth="yes"/>
      <point x="439" y="334"/>
      <point x="387" y="270"/>
      <point x="312" y="255" type="curve" smooth="yes"/>
      <point x="294" y="251"/>
      <point x="276" y="263"/>
      <point x="273" y="280" type="curve" smooth="yes"/>
      <point x="269" y="298"/>
      <point x="281" y="316"/>
      <point x="298" y="319" type="curve" smooth="yes"/>
      <point x="341" y="328"/>
      <point x="373" y="364"/>
      <point x="373" y="404" type="curve" smooth="yes"/>
      <point x="373" y="447"/>
      <point x="336" y="479"/>
      <point x="272" y="479" type="curve" smooth="yes"/>
      <point x="124" y="479" type="line"/>
      <point x="157" y="512" type="line"/>
      <point x="157" y="27" type="line"/>
      <point x="124" y="60" type="line"/>
      <point x="289" y="60" type="line" smooth="yes"/>
      <point x="378" y="60"/>
      <point x="416" y="102"/>
      <point x="416" y="154" type="curve" smooth="yes"/>
      <point x="416" y="209"/>
      <point x="372" y="254"/>
      <point x="292" y="254" type="curve" smooth="yes"/>
      <point x="133" y="254" type="line" smooth="yes"/>
      <point x="115" y="254"/>
      <point x="100" y="269"/>
      <point x="100" y="287" type="curve" smooth="yes"/>
      <point x="100" y="305"/>
      <point x="115" y="320"/>
    </contour>
  </outline>
</glyph>
<glyph name="C" format="1">
  <advance width="541"/>
  <unicode hex="0043"/>
  <outline>
    <contour>
      <point x="423" y="463" type="curve" smooth="yes"/>
      <point x="394" y="479"/>
      <point x="359" y="488"/>
      <point x="313" y="488" type="curve" smooth="yes"/>
      <point x="201" y="488"/>
      <point x="118" y="393"/>
      <point x="118" y="266" type="curve" smooth="yes"/>
      <point x="118" y="150"/>
      <point x="182" y="51"/>
      <point x="319" y="51" type="curve" smooth="yes"/>
      <point x="365" y="51"/>
      <point x="395" y="60"/>
      <point x="428" y="76" type="curve" smooth="yes"/>
      <point x="444" y="83"/>
      <point x="464" y="76"/>
      <point x="472" y="60" type="curve" smooth="yes"/>
      <point x="479" y="44"/>
      <point x="472" y="24"/>
      <point x="456" y="16" type="curve" smooth="yes"/>
      <point x="415" y="-4"/>
      <point x="377" y="-15"/>
      <point x="319" y="-15" type="curve" smooth="yes"/>
      <point x="140" y="-15"/>
      <point x="52" y="112"/>
      <point x="52" y="266" type="curve"/>
      <point x="52" y="437"/>
      <point x="167" y="554"/>
      <point x="313" y="554" type="curve" smooth="yes"/>
      <point x="373" y="554"/>
      <point x="418" y="541"/>
      <point x="455" y="521" type="curve" smooth="yes"/>
      <point x="470" y="512"/>
      <point x="477" y="492"/>
      <point x="468" y="476" type="curve" smooth="yes"/>
      <point x="459" y="461"/>
      <point x="439" y="454"/>
    </contour>
  </outline>
</glyph>
<glyph name="D" format="1">
  <advance width="576"/>
  <unicode hex="0044"/>
  <outline>
    <contour>
      <point x="270" y="-6" type="curve" smooth="yes"/>
      <point x="124" y="-6" type="line" smooth="yes"/>
      <point x="106" y="-6"/>
      <point x="91" y="9"/>
      <point x="91" y="27" type="curve" smooth="yes"/>
      <point x="91" y="512" type="line" smooth="yes"/>
      <point x="91" y="530"/>
      <point x="106" y="545"/>
      <point x="124" y="545" type="curve" smooth="yes"/>
      <point x="270" y="545" type="line" smooth="yes"/>
      <point x="406" y="545"/>
      <point x="520" y="434"/>
      <point x="520" y="270" type="curve" smooth="yes"/>
      <point x="520" y="114"/>
      <point x="427" y="-6"/>
    </contour>
    <contour>
      <point x="270" y="60" type="line" smooth="yes"/>
      <point x="389" y="60"/>
      <point x="454" y="156"/>
      <point x="454" y="270" type="curve" smooth="yes"/>
      <point x="454" y="390"/>
      <point x="374" y="479"/>
      <point x="270" y="479" type="curve" smooth="yes"/>
      <point x="124" y="479" type="line"/>
      <point x="157" y="512" type="line"/>
      <point x="157" y="27" type="line"/>
      <point x="124" y="60" type="line"/>
    </contour>
  </outline>
</glyph>
<glyph name="E" format="1">
  <advance width="476"/>
  <unicode hex="0045"/>
  <outline>
    <contour>
      <point x="155" y="512" type="curve" smooth="yes"/>
      <point x="155" y="400"/>
      <point x="156" y="136"/>
      <point x="155" y="27" type="curve" smooth="yes"/>
      <point x="155" y="9"/>
      <point x="140" y="-6"/>
      <point x="122" y="-6" type="curve" smooth="yes"/>
      <point x="104" y="-6"/>
      <point x="89" y="9"/>
      <point x="89" y="27" type="curve" smooth="yes"/>
      <point x="90" y="136"/>
      <point x="89" y="400"/>
      <point x="89" y="512" type="curve" smooth="yes"/>
      <point x="89" y="530"/>
      <point x="104" y="545"/>
      <point x="122" y="545" type="curve" smooth="yes"/>
      <point x="140" y="545"/>
      <point x="155" y="530"/>
    </contour>
    <contour>
      <point x="130" y="60" type="curve" smooth="yes"/>
      <point x="219" y="60"/>
      <point x="331" y="60"/>
      <point x="386" y="60" type="curve" smooth="yes"/>
      <point x="404" y="60"/>
      <point x="419" y="45"/>
      <point x="419" y="27" type="curve" smooth="yes"/>
      <point x="419" y="9"/>
      <point x="404" y="-6"/>
      <point x="386" y="-6" type="curve" smooth="yes"/>
      <point x="331" y="-6"/>
      <point x="219" y="-6"/>
      <point x="130" y="-6" type="curve" smooth="yes"/>
      <point x="112" y="-6"/>
      <point x="97" y="9"/>
      <point x="97" y="27" type="curve" smooth="yes"/>
      <point x="97" y="45"/>
      <point x="112" y="60"/>
    </contour>
    <contour>
      <point x="130" y="545" type="curve" smooth="yes"/>
      <point x="219" y="545"/>
      <point x="329" y="545"/>
      <point x="384" y="545" type="curve" smooth="yes"/>
      <point x="402" y="545"/>
      <point x="417" y="530"/>
      <point x="417" y="512" type="curve" smooth="yes"/>
      <point x="417" y="494"/>
      <point x="402" y="479"/>
      <point x="384" y="479" type="curve" smooth="yes"/>
      <point x="329" y="479"/>
      <point x="219" y="479"/>
      <point x="130" y="479" type="curve" smooth="yes"/>
      <point x="112" y="479"/>
      <point x="97" y="494"/>
      <point x="97" y="512" type="curve" smooth="yes"/>
      <point x="97" y="530"/>
      <point x="112" y="545"/>
    </contour>
    <contour>
      <point x="130" y="321" type="curve" smooth="yes"/>
      <point x="219" y="321"/>
      <point x="292" y="321"/>
      <point x="346" y="321" type="curve" smooth="yes"/>
      <point x="364" y="321"/>
      <point x="379" y="306"/>
      <point x="379" y="288" type="curve" smooth="yes"/>
      <point x="379" y="270"/>
      <point x="364" y="255"/>
      <point x="346" y="255" type="curve" smooth="yes"/>
      <point x="292" y="255"/>
      <point x="219" y="255"/>
      <point x="130" y="255" type="curve" smooth="yes"/>
      <point x="112" y="255"/>
      <point x="97" y="270"/>
      <point x="97" y="288" type="curve" smooth="yes"/>
      <point x="97" y="306"/>
      <point x="112" y="321"/>
    </contour>
  </outline>
</glyph>
<glyph name="F" format="1">
  <advance width="475"/>
  <unicode hex="0046"/>
  <outline>
    <contour>
      <point x="161" y="512" type="curve" smooth="yes"/>
      <point x="161" y="27" type="line" smooth="yes"/>
      <point x="161" y="9"/>
      <point x="146" y="-6"/>
      <point x="128" y="-6" type="curve" smooth="yes"/>
      <point x="110" y="-6"/>
      <point x="95" y="9"/>
      <point x="95" y="27" type="curve" smooth="yes"/>
      <point x="95" y="512" type="line" smooth="yes"/>
      <point x="95" y="530"/>
      <point x="110" y="545"/>
      <point x="128" y="545" type="curve" smooth="yes"/>
      <point x="146" y="545"/>
      <point x="161" y="530"/>
    </contour>
    <contour>
      <point x="136" y="545" type="curve" smooth="yes"/>
      <point x="403" y="545" type="line" smooth="yes"/>
      <point x="421" y="545"/>
      <point x="436" y="530"/>
      <point x="436" y="512" type="curve" smooth="yes"/>
      <point x="436" y="494"/>
      <point x="421" y="479"/>
      <point x="403" y="479" type="curve" smooth="yes"/>
      <point x="136" y="479" type="line" smooth="yes"/>
      <point x="118" y="479"/>
      <point x="103" y="494"/>
      <point x="103" y="512" type="curve" smooth="yes"/>
      <point x="103" y="530"/>
      <point x="118" y="545"/>
    </contour>
    <contour>
      <point x="136" y="302" type="curve" smooth="yes"/>
      <point x="352" y="302" type="line" smooth="yes"/>
      <point x="370" y="302"/>
      <point x="385" y="287"/>
      <point x="385" y="269" type="curve" smooth="yes"/>
      <point x="385" y="251"/>
      <point x="370" y="236"/>
      <point x="352" y="236" type="curve" smooth="yes"/>
      <point x="136" y="236" type="line" smooth="yes"/>
      <point x="118" y="236"/>
      <point x="103" y="251"/>
      <point x="103" y="269" type="curve" smooth="yes"/>
      <point x="103" y="287"/>
      <point x="118" y="302"/>
    </contour>
  </outline>
</glyph>
<glyph name="G" format="1">
  <advance width="568"/>
  <unicode hex="0047"/>
  <outline>
    <contour>
      <point x="444" y="463" type="curve" smooth="yes"/>
      <point x="402" y="481"/>
      <point x="362" y="488"/>
      <point x="324" y="488" type="curve" smooth="yes"/>
      <point x="199" y="488"/>
      <point x="118" y="398"/>
      <point x="118" y="266" type="curve" smooth="yes"/>
      <point x="118" y="148"/>
      <point x="185" y="47"/>
      <point x="318" y="47" type="curve" smooth="yes"/>
      <point x="381" y="47"/>
      <point x="428" y="63"/>
      <point x="471" y="87" type="curve" smooth="yes"/>
      <point x="487" y="96"/>
      <point x="508" y="89"/>
      <point x="516" y="74" type="curve" smooth="yes"/>
      <point x="525" y="58"/>
      <point x="518" y="37"/>
      <point x="503" y="29" type="curve" smooth="yes"/>
      <point x="450" y="1"/>
      <point x="393" y="-19"/>
      <point x="318" y="-19" type="curve" smooth="yes"/>
      <point x="145" y="-19"/>
      <point x="52" y="108"/>
      <point x="52" y="266" type="curve"/>
      <point x="52" y="440"/>
      <point x="161" y="554"/>
      <point x="324" y="554" type="curve" smooth="yes"/>
      <point x="370" y="554"/>
      <point x="418" y="545"/>
      <point x="470" y="523" type="curve" smooth="yes"/>
      <point x="486" y="516"/>
      <point x="494" y="496"/>
      <point x="487" y="480" type="curve" smooth="yes"/>
      <point x="480" y="464"/>
      <point x="460" y="456"/>
    </contour>
    <contour>
      <point x="455" y="68" type="curve" smooth="yes"/>
      <point x="455" y="251" type="line" smooth="yes"/>
      <point x="455" y="269"/>
      <point x="470" y="284"/>
      <point x="488" y="284" type="curve" smooth="yes"/>
      <point x="506" y="284"/>
      <point x="521" y="269"/>
      <point x="521" y="251" type="curve" smooth="yes"/>
      <point x="521" y="68" type="line" smooth="yes"/>
      <point x="521" y="50"/>
      <point x="506" y="35"/>
      <point x="488" y="35" type="curve" smooth="yes"/>
      <point x="470" y="35"/>
      <point x="455" y="50"/>
    </contour>
    <contour>
      <point x="477" y="218" type="curve" smooth="yes"/>
      <point x="334" y="218" type="line" smooth="yes"/>
      <point x="316" y="218"/>
      <point x="301" y="233"/>
      <point x="301" y="251" type="curve" smooth="yes"/>
      <point x="301" y="269"/>
      <point x="316" y="284"/>
      <point x="334" y="284" type="curve" smooth="yes"/>
      <point x="477" y="284" type="line" smooth="yes"/>
      <point x="495" y="284"/>
      <point x="510" y="269"/>
      <point x="510" y="251" type="curve" smooth="yes"/>
      <point x="510" y="233"/>
      <point x="495" y="218"/>
    </contour>
  </outline>
</glyph>
<glyph name="H" format="1">
  <advance width="580"/>
  <unicode hex="0048"/>
  <outline>
    <contour>
      <point x="153" y="512" type="curve" smooth="yes"/>
      <point x="153" y="400"/>
      <point x="146" y="135"/>
      <point x="141" y="25" type="curve" smooth="yes"/>
      <point x="140" y="8"/>
      <point x="124" y="-7"/>
      <point x="106" y="-6" type="curve" smooth="yes"/>
      <point x="89" y="-5"/>
      <point x="74" y="11"/>
      <point x="75" y="29" type="curve" smooth="yes"/>
      <point x="80" y="137"/>
      <point x="87" y="400"/>
      <point x="87" y="512" type="curve" smooth="yes"/>
      <point x="87" y="530"/>
      <point x="102" y="545"/>
      <point x="120" y="545" type="curve" smooth="yes"/>
      <point x="138" y="545"/>
      <point x="153" y="530"/>
    </contour>
    <contour>
      <point x="507" y="511" type="curve" smooth="yes"/>
      <point x="501" y="368"/>
      <point x="500" y="143"/>
      <point x="498" y="26" type="curve" smooth="yes"/>
      <point x="498" y="9"/>
      <point x="482" y="-6"/>
      <point x="464" y="-6" type="curve" smooth="yes"/>
      <point x="447" y="-6"/>
      <point x="432" y="10"/>
      <point x="432" y="28" type="curve" smooth="yes"/>
      <point x="434" y="145"/>
      <point x="435" y="370"/>
      <point x="441" y="513" type="curve" smooth="yes"/>
      <point x="442" y="531"/>
      <point x="458" y="546"/>
      <point x="475" y="545" type="curve" smooth="yes"/>
      <point x="493" y="544"/>
      <point x="508" y="528"/>
    </contour>
    <contour>
      <point x="119" y="320" type="curve" smooth="yes"/>
      <point x="194" y="320"/>
      <point x="395" y="320"/>
      <point x="465" y="320" type="curve" smooth="yes"/>
      <point x="483" y="320"/>
      <point x="498" y="305"/>
      <point x="498" y="287" type="curve" smooth="yes"/>
      <point x="498" y="269"/>
      <point x="483" y="254"/>
      <point x="465" y="254" type="curve" smooth="yes"/>
      <point x="395" y="254"/>
      <point x="194" y="254"/>
      <point x="119" y="254" type="curve" smooth="yes"/>
      <point x="101" y="254"/>
      <point x="86" y="269"/>
      <point x="86" y="287" type="curve" smooth="yes"/>
      <point x="86" y="305"/>
      <point x="101" y="320"/>
    </contour>
  </outline>
</glyph>
<glyph name="I" format="1">
  <advance width="253"/>
  <unicode hex="0049"/>
  <outline>
    <contour>
      <point x="161" y="512" type="curve" smooth="yes"/>
      <point x="161" y="400"/>
      <point x="159" y="146"/>
      <point x="158" y="27" type="curve" smooth="yes"/>
      <point x="158" y="9"/>
      <point x="143" y="-6"/>
      <point x="125" y="-6" type="curve" smooth="yes"/>
      <point x="107" y="-6"/>
      <point x="92" y="9"/>
      <point x="92" y="27" type="curve" smooth="yes"/>
      <point x="93" y="146"/>
      <point x="95" y="400"/>
      <point x="95" y="512" type="curve" smooth="yes"/>
      <point x="95" y="530"/>
      <point x="110" y="545"/>
      <point x="128" y="545" type="curve" smooth="yes"/>
      <point x="146" y="545"/>
      <point x="161" y="530"/>
    </contour>
  </outline>
</glyph>
<glyph name="J" format="1">
  <advance width="423"/>
  <unicode hex="004A"/>
  <outline>
    <contour>
      <point x="99" y="69" type="curve" smooth="yes"/>
      <point x="128" y="62"/>
      <point x="155" y="55"/>
      <point x="182" y="55" type="curve" smooth="yes"/>
      <point x="240" y="55"/>
      <point x="271" y="106"/>
      <point x="271" y="179" type="curve" smooth="yes"/>
      <point x="271" y="271"/>
      <point x="271" y="415"/>
      <point x="271" y="512" type="curve" smooth="yes"/>
      <point x="271" y="530"/>
      <point x="286" y="545"/>
      <point x="304" y="545" type="curve" smooth="yes"/>
      <point x="322" y="545"/>
      <point x="337" y="530"/>
      <point x="337" y="512" type="curve" smooth="yes"/>
      <point x="337" y="415"/>
      <point x="337" y="271"/>
      <point x="337" y="179" type="curve" smooth="yes"/>
      <point x="337" y="52"/>
      <point x="270" y="-11"/>
      <point x="182" y="-11" type="curve" smooth="yes"/>
      <point x="149" y="-11"/>
      <point x="118" y="-4"/>
      <point x="83" y="5" type="curve" smooth="yes"/>
      <point x="66" y="9"/>
      <point x="55" y="28"/>
      <point x="59" y="45" type="curve" smooth="yes"/>
      <point x="63" y="62"/>
      <point x="82" y="73"/>
    </contour>
  </outline>
</glyph>
<glyph name="K" format="1">
  <advance width="558"/>
  <unicode hex="004B"/>
  <outline>
    <contour>
      <point x="161" y="512" type="curve" smooth="yes"/>
      <point x="161" y="27" type="line" smooth="yes"/>
      <point x="161" y="9"/>
      <point x="146" y="-6"/>
      <point x="128" y="-6" type="curve" smooth="yes"/>
      <point x="110" y="-6"/>
      <point x="95" y="9"/>
      <point x="95" y="27" type="curve" smooth="yes"/>
      <point x="95" y="512" type="line" smooth="yes"/>
      <point x="95" y="530"/>
      <point x="110" y="545"/>
      <point x="128" y="545" type="curve" smooth="yes"/>
      <point x="146" y="545"/>
      <point x="161" y="530"/>
    </contour>
    <contour>
      <point x="277" y="326" type="curve" smooth="yes"/>
      <point x="334" y="257"/>
      <point x="454" y="112"/>
      <point x="509" y="49" type="curve" smooth="yes"/>
      <point x="521" y="35"/>
      <point x="519" y="14"/>
      <point x="506" y="2" type="curve" smooth="yes"/>
      <point x="492" y="-10"/>
      <point x="471" y="-8"/>
      <point x="459" y="5" type="curve" smooth="yes"/>
      <point x="404" y="68"/>
      <point x="284" y="215"/>
      <point x="227" y="284" type="curve" smooth="yes"/>
      <point x="215" y="298"/>
      <point x="217" y="319"/>
      <point x="231" y="330" type="curve" smooth="yes"/>
      <point x="245" y="342"/>
      <point x="266" y="340"/>
    </contour>
    <contour>
      <point x="106" y="219" type="curve" smooth="yes"/>
      <point x="153" y="263"/>
      <point x="341" y="430"/>
      <point x="440" y="535" type="curve" smooth="yes"/>
      <point x="452" y="548"/>
      <point x="474" y="548"/>
      <point x="487" y="536" type="curve" smooth="yes"/>
      <point x="500" y="524"/>
      <point x="500" y="502"/>
      <point x="488" y="489" type="curve" smooth="yes"/>
      <point x="387" y="384"/>
      <point x="199" y="215"/>
      <point x="150" y="171" type="curve" smooth="yes"/>
      <point x="137" y="159"/>
      <point x="116" y="160"/>
      <point x="104" y="173" type="curve" smooth="yes"/>
      <point x="92" y="186"/>
      <point x="93" y="207"/>
    </contour>
  </outline>
</glyph>
<glyph name="L" format="1">
  <advance width="476"/>
  <unicode hex="004C"/>
  <outline>
    <contour>
      <point x="155" y="512" type="curve" smooth="yes"/>
      <point x="155" y="27" type="line" smooth="yes"/>
      <point x="155" y="9"/>
      <point x="140" y="-6"/>
      <point x="122" y="-6" type="curve" smooth="yes"/>
      <point x="104" y="-6"/>
      <point x="89" y="9"/>
      <point x="89" y="27" type="curve" smooth="yes"/>
      <point x="89" y="512" type="line" smooth="yes"/>
      <point x="89" y="530"/>
      <point x="104" y="545"/>
      <point x="122" y="545" type="curve" smooth="yes"/>
      <point x="140" y="545"/>
      <point x="155" y="530"/>
    </contour>
    <contour>
      <point x="130" y="60" type="curve" smooth="yes"/>
      <point x="409" y="60" type="line" smooth="yes"/>
      <point x="427" y="60"/>
      <point x="442" y="45"/>
      <point x="442" y="27" type="curve" smooth="yes"/>
      <point x="442" y="9"/>
      <point x="427" y="-6"/>
      <point x="409" y="-6" type="curve" smooth="yes"/>
      <point x="130" y="-6" type="line" smooth="yes"/>
      <point x="112" y="-6"/>
      <point x="97" y="9"/>
      <point x="97" y="27" type="curve" smooth="yes"/>
      <point x="97" y="45"/>
      <point x="112" y="60"/>
    </contour>
  </outline>
</glyph>
<glyph name="M" format="1">
  <advance width="783"/>
  <unicode hex="004D"/>
  <outline>
    <contour>
      <point x="208" y="516" type="curve" smooth="yes"/>
      <point x="185" y="373"/>
      <point x="155" y="137"/>
      <point x="143" y="22" type="curve" smooth="yes"/>
      <point x="141" y="4"/>
      <point x="124" y="-10"/>
      <point x="107" y="-8" type="curve" smooth="yes"/>
      <point x="89" y="-6"/>
      <point x="75" y="11"/>
      <point x="77" y="28" type="curve" smooth="yes"/>
      <point x="89" y="145"/>
      <point x="119" y="383"/>
      <point x="142" y="526" type="curve" smooth="yes"/>
      <point x="145" y="544"/>
      <point x="163" y="556"/>
      <point x="180" y="554" type="curve" smooth="yes"/>
      <point x="198" y="551"/>
      <point x="210" y="533"/>
    </contour>
    <contour>
      <point x="643" y="528" type="curve" smooth="yes"/>
      <point x="674" y="372"/>
      <point x="703" y="164"/>
      <point x="722" y="30" type="curve" smooth="yes"/>
      <point x="724" y="12"/>
      <point x="711" y="-5"/>
      <point x="694" y="-8" type="curve" smooth="yes"/>
      <point x="676" y="-10"/>
      <point x="659" y="3"/>
      <point x="656" y="20" type="curve" smooth="yes"/>
      <point x="637" y="154"/>
      <point x="608" y="360"/>
      <point x="579" y="516" type="curve" smooth="yes"/>
      <point x="575" y="533"/>
      <point x="587" y="551"/>
      <point x="605" y="554" type="curve" smooth="yes"/>
      <point x="622" y="558"/>
      <point x="640" y="546"/>
    </contour>
    <contour>
      <point x="216" y="522" type="curve" smooth="yes"/>
      <point x="275" y="395"/>
      <point x="364" y="188"/>
      <point x="428" y="48" type="curve" smooth="yes"/>
      <point x="435" y="32"/>
      <point x="428" y="11"/>
      <point x="412" y="4" type="curve" smooth="yes"/>
      <point x="396" y="-3"/>
      <point x="375" y="4"/>
      <point x="368" y="20" type="curve" smooth="yes"/>
      <point x="304" y="160"/>
      <point x="215" y="367"/>
      <point x="156" y="494" type="curve" smooth="yes"/>
      <point x="149" y="510"/>
      <point x="156" y="530"/>
      <point x="172" y="538" type="curve" smooth="yes"/>
      <point x="188" y="545"/>
      <point x="208" y="538"/>
    </contour>
    <contour>
      <point x="371" y="59" type="curve" smooth="yes"/>
      <point x="428" y="195"/>
      <point x="503" y="382"/>
      <point x="574" y="528" type="curve" smooth="yes"/>
      <point x="582" y="544"/>
      <point x="602" y="551"/>
      <point x="618" y="544" type="curve" smooth="yes"/>
      <point x="634" y="536"/>
      <point x="641" y="516"/>
      <point x="634" y="500" type="curve" smooth="yes"/>
      <point x="563" y="354"/>
      <point x="488" y="169"/>
      <point x="431" y="33" type="curve" smooth="yes"/>
      <point x="425" y="17"/>
      <point x="405" y="9"/>
      <point x="388" y="16" type="curve" smooth="yes"/>
      <point x="372" y="22"/>
      <point x="364" y="42"/>
    </contour>
  </outline>
</glyph>
<glyph name="N" format="1">
  <advance width="580"/>
  <unicode hex="004E"/>
  <outline>
    <contour>
      <point x="145" y="512" type="curve" smooth="yes"/>
      <point x="145" y="27" type="line" smooth="yes"/>
      <point x="145" y="9"/>
      <point x="130" y="-6"/>
      <point x="112" y="-6" type="curve" smooth="yes"/>
      <point x="94" y="-6"/>
      <point x="79" y="9"/>
      <point x="79" y="27" type="curve" smooth="yes"/>
      <point x="79" y="512" type="line" smooth="yes"/>
      <point x="79" y="530"/>
      <point x="94" y="545"/>
      <point x="112" y="545" type="curve" smooth="yes"/>
      <point x="130" y="545"/>
      <point x="145" y="530"/>
    </contour>
    <contour>
      <point x="489" y="512" type="curve" smooth="yes"/>
      <point x="489" y="27" type="line" smooth="yes"/>
      <point x="489" y="9"/>
      <point x="474" y="-6"/>
      <point x="456" y="-6" type="curve" smooth="yes"/>
      <point x="438" y="-6"/>
      <point x="423" y="9"/>
      <point x="423" y="27" type="curve" smooth="yes"/>
      <point x="423" y="512" type="line" smooth="yes"/>
      <point x="423" y="530"/>
      <point x="438" y="545"/>
      <point x="456" y="545" type="curve" smooth="yes"/>
      <point x="474" y="545"/>
      <point x="489" y="530"/>
    </contour>
    <contour>
      <point x="147" y="530" type="curve" smooth="yes"/>
      <point x="212" y="430"/>
      <point x="375" y="189"/>
      <point x="474" y="46" type="curve" smooth="yes"/>
      <point x="484" y="31"/>
      <point x="480" y="10"/>
      <point x="466" y="0" type="curve" smooth="yes"/>
      <point x="451" y="-10"/>
      <point x="430" y="-6"/>
      <point x="420" y="8" type="curve" smooth="yes"/>
      <point x="321" y="151"/>
      <point x="156" y="394"/>
      <point x="91" y="494" type="curve" smooth="yes"/>
      <point x="82" y="509"/>
      <point x="86" y="530"/>
      <point x="101" y="540" type="curve" smooth="yes"/>
      <point x="116" y="549"/>
      <point x="137" y="545"/>
    </contour>
  </outline>
</glyph>
<glyph name="O" format="1">
  <advance width="615"/>
  <unicode hex="004F"/>
  <outline>
    <contour>
      <point x="311" y="554" type="curve" smooth="yes"/>
      <point x="450" y="554"/>
      <point x="566" y="439"/>
      <point x="566" y="269" type="curve" smooth="yes"/>
      <point x="566" y="107"/>
      <point x="470" y="-19"/>
      <point x="311" y="-19" type="curve" smooth="yes"/>
      <point x="161" y="-19"/>
      <point x="52" y="108"/>
      <point x="52" y="266" type="curve"/>
      <point x="52" y="439"/>
      <point x="159" y="554"/>
    </contour>
    <contour>
      <point x="311" y="488" type="curve" smooth="yes"/>
      <point x="193" y="488"/>
      <point x="118" y="395"/>
      <point x="118" y="266" type="curve" smooth="yes"/>
      <point x="118" y="148"/>
      <point x="195" y="47"/>
      <point x="311" y="47" type="curve" smooth="yes"/>
      <point x="434" y="47"/>
      <point x="500" y="149"/>
      <point x="500" y="269" type="curve" smooth="yes"/>
      <point x="500" y="395"/>
      <point x="418" y="488"/>
    </contour>
  </outline>
</glyph>
<glyph name="P" format="1">
  <advance width="526"/>
  <unicode hex="0050"/>
  <outline>
    <contour>
      <point x="150" y="236" type="curve" smooth="yes"/>
      <point x="261" y="236" type="line" smooth="yes"/>
      <point x="350" y="236"/>
      <point x="396" y="290"/>
      <point x="396" y="358" type="curve" smooth="yes"/>
      <point x="396" y="430"/>
      <point x="340" y="479"/>
      <point x="261" y="479" type="curve" smooth="yes"/>
      <point x="124" y="479" type="line"/>
      <point x="157" y="512" type="line"/>
      <point x="157" y="27" type="line" smooth="yes"/>
      <point x="157" y="9"/>
      <point x="142" y="-6"/>
      <point x="124" y="-6" type="curve" smooth="yes"/>
      <point x="106" y="-6"/>
      <point x="91" y="9"/>
      <point x="91" y="27" type="curve" smooth="yes"/>
      <point x="91" y="512" type="line" smooth="yes"/>
      <point x="91" y="530"/>
      <point x="106" y="545"/>
      <point x="124" y="545" type="curve" smooth="yes"/>
      <point x="261" y="545" type="line" smooth="yes"/>
      <point x="384" y="545"/>
      <point x="462" y="466"/>
      <point x="462" y="358" type="curve" smooth="yes"/>
      <point x="462" y="256"/>
      <point x="398" y="170"/>
      <point x="261" y="170" type="curve" smooth="yes"/>
      <point x="150" y="170" type="line" smooth="yes"/>
      <point x="132" y="170"/>
      <point x="117" y="185"/>
      <point x="117" y="203" type="curve" smooth="yes"/>
      <point x="117" y="221"/>
      <point x="132" y="236"/>
    </contour>
  </outline>
</glyph>
<glyph name="Q" format="1">
  <advance width="615"/>
  <unicode hex="0051"/>
  <outline>
    <contour>
      <point x="311" y="554" type="curve" smooth="yes"/>
      <point x="450" y="554"/>
      <point x="566" y="439"/>
      <point x="566" y="269" type="curve" smooth="yes"/>
      <point x="566" y="107"/>
      <point x="471" y="-15"/>
      <point x="311" y="-15" type="curve" smooth="yes"/>
      <point x="160" y="-15"/>
      <point x="52" y="108"/>
      <point x="52" y="266" type="curve"/>
      <point x="52" y="439"/>
      <point x="159" y="554"/>
    </contour>
    <contour>
      <point x="325" y="18" type="curve" smooth="yes"/>
      <point x="332" y="-56"/>
      <point x="387" y="-89"/>
      <point x="454" y="-89" type="curve" smooth="yes"/>
      <point x="472" y="-89"/>
      <point x="487" y="-104"/>
      <point x="487" y="-122" type="curve" smooth="yes"/>
      <point x="487" y="-140"/>
      <point x="472" y="-155"/>
      <point x="454" y="-155" type="curve" smooth="yes"/>
      <point x="349" y="-155"/>
      <point x="270" y="-100"/>
      <point x="259" y="12" type="curve" smooth="yes"/>
      <point x="257" y="30"/>
      <point x="271" y="46"/>
      <point x="289" y="48" type="curve" smooth="yes"/>
      <point x="307" y="50"/>
      <point x="323" y="36"/>
    </contour>
    <contour>
      <point x="311" y="488" type="curve" smooth="yes"/>
      <point x="193" y="488"/>
      <point x="118" y="395"/>
      <point x="118" y="266" type="curve" smooth="yes"/>
      <point x="118" y="148"/>
      <point x="196" y="51"/>
      <point x="311" y="51" type="curve" smooth="yes"/>
      <point x="433" y="51"/>
      <point x="500" y="149"/>
      <point x="500" y="269" type="curve" smooth="yes"/>
      <point x="500" y="395"/>
      <point x="418" y="488"/>
    </contour>
  </outline>
</glyph>
<glyph name="R" format="1">
  <advance width="526"/>
  <unicode hex="0052"/>
  <outline>
    <contour>
      <point x="150" y="259" type="curve" smooth="yes"/>
      <point x="261" y="259" type="line" smooth="yes"/>
      <point x="346" y="259"/>
      <point x="394" y="307"/>
      <point x="394" y="369" type="curve" smooth="yes"/>
      <point x="394" y="436"/>
      <point x="338" y="479"/>
      <point x="261" y="479" type="curve" smooth="yes"/>
      <point x="124" y="479" type="line"/>
      <point x="157" y="512" type="line"/>
      <point x="157" y="27" type="line" smooth="yes"/>
      <point x="157" y="9"/>
      <point x="142" y="-6"/>
      <point x="124" y="-6" type="curve" smooth="yes"/>
      <point x="106" y="-6"/>
      <point x="91" y="9"/>
      <point x="91" y="27" type="curve" smooth="yes"/>
      <point x="91" y="512" type="line" smooth="yes"/>
      <point x="91" y="530"/>
      <point x="106" y="545"/>
      <point x="124" y="545" type="curve" smooth="yes"/>
      <point x="261" y="545" type="line" smooth="yes"/>
      <point x="384" y="545"/>
      <point x="460" y="470"/>
      <point x="460" y="369" type="curve" smooth="yes"/>
      <point x="460" y="275"/>
      <point x="398" y="193"/>
      <point x="261" y="193" type="curve" smooth="yes"/>
      <point x="150" y="193" type="line" smooth="yes"/>
      <point x="132" y="193"/>
      <point x="117" y="208"/>
      <point x="117" y="226" type="curve" smooth="yes"/>
      <point x="117" y="244"/>
      <point x="132" y="259"/>
    </contour>
    <contour>
      <point x="335" y="233" type="curve" smooth="yes"/>
      <point x="472" y="47" type="line" smooth="yes"/>
      <point x="482" y="32"/>
      <point x="479" y="11"/>
      <point x="465" y="0" type="curve" smooth="yes"/>
      <point x="450" y="-10"/>
      <point x="429" y="-7"/>
      <point x="418" y="7" type="curve" smooth="yes"/>
      <point x="281" y="193" type="line" smooth="yes"/>
      <point x="271" y="208"/>
      <point x="274" y="229"/>
      <point x="288" y="240" type="curve" smooth="yes"/>
      <point x="303" y="250"/>
      <point x="324" y="247"/>
    </contour>
  </outline>
</glyph>
<glyph name="S" format="1">
  <advance width="531"/>
  <unicode hex="0053"/>
  <outline>
    <contour>
      <point x="398" y="452" type="curve" smooth="yes"/>
      <point x="357" y="471"/>
      <point x="315" y="485"/>
      <point x="249" y="485" type="curve" smooth="yes"/>
      <point x="194" y="485"/>
      <point x="147" y="454"/>
      <point x="147" y="414" type="curve" smooth="yes"/>
      <point x="147" y="373"/>
      <point x="175" y="334"/>
      <point x="276" y="314" type="curve" smooth="yes"/>
      <point x="427" y="281"/>
      <point x="463" y="215"/>
      <point x="463" y="140" type="curve" smooth="yes"/>
      <point x="463" y="63"/>
      <point x="414" y="-15"/>
      <point x="269" y="-15" type="curve" smooth="yes"/>
      <point x="207" y="-15"/>
      <point x="134" y="5"/>
      <point x="76" y="41" type="curve" smooth="yes"/>
      <point x="61" y="51"/>
      <point x="57" y="72"/>
      <point x="66" y="87" type="curve" smooth="yes"/>
      <point x="76" y="102"/>
      <point x="97" y="106"/>
      <point x="112" y="97" type="curve" smooth="yes"/>
      <point x="158" y="67"/>
      <point x="219" y="51"/>
      <point x="269" y="51" type="curve" smooth="yes"/>
      <point x="352" y="51"/>
      <point x="397" y="89"/>
      <point x="397" y="140" type="curve" smooth="yes"/>
      <point x="397" y="193"/>
      <point x="357" y="229"/>
      <point x="264" y="250" type="curve" smooth="yes"/>
      <point x="97" y="282"/>
      <point x="81" y="355"/>
      <point x="81" y="414" type="curve" smooth="yes"/>
      <point x="81" y="480"/>
      <point x="142" y="551"/>
      <point x="249" y="551" type="curve" smooth="yes"/>
      <point x="327" y="551"/>
      <point x="377" y="535"/>
      <point x="426" y="512" type="curve" smooth="yes"/>
      <point x="442" y="504"/>
      <point x="449" y="484"/>
      <point x="442" y="468" type="curve" smooth="yes"/>
      <point x="434" y="452"/>
      <point x="414" y="445"/>
    </contour>
  </outline>
</glyph>
<glyph name="T" format="1">
  <advance width="569"/>
  <unicode hex="0054"/>
  <outline>
    <contour>
      <point x="315" y="512" type="curve" smooth="yes"/>
      <point x="315" y="27" type="line" smooth="yes"/>
      <point x="315" y="9"/>
      <point x="300" y="-6"/>
      <point x="282" y="-6" type="curve" smooth="yes"/>
      <point x="264" y="-6"/>
      <point x="249" y="9"/>
      <point x="249" y="27" type="curve" smooth="yes"/>
      <point x="249" y="512" type="line" smooth="yes"/>
      <point x="249" y="530"/>
      <point x="264" y="545"/>
      <point x="282" y="545" type="curve" smooth="yes"/>
      <point x="300" y="545"/>
      <point x="315" y="530"/>
    </contour>
    <contour>
      <point x="70" y="545" type="curve" smooth="yes"/>
      <point x="498" y="545" type="line" smooth="yes"/>
      <point x="516" y="545"/>
      <point x="531" y="530"/>
      <point x="531" y="512" type="curve" smooth="yes"/>
      <point x="531" y="494"/>
      <point x="516" y="479"/>
      <point x="498" y="479" type="curve" smooth="yes"/>
      <point x="70" y="479" type="line" smooth="yes"/>
      <point x="52" y="479"/>
      <point x="37" y="494"/>
      <point x="37" y="512" type="curve" smooth="yes"/>
      <point x="37" y="530"/>
      <point x="52" y="545"/>
    </contour>
  </outline>
</glyph>
<glyph name="U" format="1">
  <advance width="596"/>
  <unicode hex="0055"/>
  <outline>
    <contour>
      <point x="149" y="512" type="curve" smooth="yes"/>
      <point x="149" y="445"/>
      <point x="149" y="291"/>
      <point x="149" y="216" type="curve" smooth="yes"/>
      <point x="149" y="112"/>
      <point x="207" y="47"/>
      <point x="297" y="47" type="curve" smooth="yes"/>
      <point x="396" y="47"/>
      <point x="448" y="112"/>
      <point x="448" y="219" type="curve" smooth="yes"/>
      <point x="448" y="291"/>
      <point x="448" y="415"/>
      <point x="448" y="512" type="curve" smooth="yes"/>
      <point x="448" y="530"/>
      <point x="463" y="545"/>
      <point x="481" y="545" type="curve" smooth="yes"/>
      <point x="499" y="545"/>
      <point x="514" y="530"/>
      <point x="514" y="512" type="curve" smooth="yes"/>
      <point x="514" y="415"/>
      <point x="514" y="291"/>
      <point x="514" y="219" type="curve" smooth="yes"/>
      <point x="514" y="66"/>
      <point x="434" y="-19"/>
      <point x="297" y="-19" type="curve" smooth="yes"/>
      <point x="173" y="-19"/>
      <point x="83" y="66"/>
      <point x="83" y="216" type="curve" smooth="yes"/>
      <point x="83" y="291"/>
      <point x="83" y="445"/>
      <point x="83" y="512" type="curve" smooth="yes"/>
      <point x="83" y="530"/>
      <point x="98" y="545"/>
      <point x="116" y="545" type="curve" smooth="yes"/>
      <point x="134" y="545"/>
      <point x="149" y="530"/>
    </contour>
  </outline>
</glyph>
<glyph name="V" format="1">
  <advance width="579"/>
  <unicode hex="0056"/>
  <outline>
    <contour>
      <point x="118" y="523" type="curve" smooth="yes"/>
      <point x="158" y="401"/>
      <point x="271" y="112"/>
      <point x="311" y="39" type="curve" smooth="yes"/>
      <point x="320" y="23"/>
      <point x="313" y="2"/>
      <point x="298" y="-6" type="curve" smooth="yes"/>
      <point x="282" y="-15"/>
      <point x="261" y="-8"/>
      <point x="253" y="7" type="curve" smooth="yes"/>
      <point x="213" y="82"/>
      <point x="96" y="377"/>
      <point x="56" y="503" type="curve" smooth="yes"/>
      <point x="50" y="520"/>
      <point x="60" y="539"/>
      <point x="77" y="544" type="curve" smooth="yes"/>
      <point x="94" y="550"/>
      <point x="113" y="540"/>
    </contour>
    <contour>
      <point x="256" y="32" type="curve" smooth="yes"/>
      <point x="299" y="116"/>
      <point x="412" y="381"/>
      <point x="461" y="523" type="curve" smooth="yes"/>
      <point x="467" y="540"/>
      <point x="486" y="549"/>
      <point x="503" y="543" type="curve" smooth="yes"/>
      <point x="520" y="537"/>
      <point x="529" y="518"/>
      <point x="523" y="501" type="curve" smooth="yes"/>
      <point x="474" y="357"/>
      <point x="359" y="86"/>
      <point x="314" y="2" type="curve" smooth="yes"/>
      <point x="306" y="-14"/>
      <point x="285" y="-21"/>
      <point x="270" y="-12" type="curve" smooth="yes"/>
      <point x="254" y="-4"/>
      <point x="247" y="17"/>
    </contour>
  </outline>
</glyph>
<glyph name="W" format="1">
  <advance width="830"/>
  <unicode hex="0057"/>
  <outline>
    <contour>
      <point x="151" y="520" type="curve" smooth="yes"/>
      <point x="184" y="397"/>
      <point x="283" y="111"/>
      <point x="317" y="38" type="curve" smooth="yes"/>
      <point x="324" y="22"/>
      <point x="317" y="1"/>
      <point x="301" y="-6" type="curve" smooth="yes"/>
      <point x="285" y="-13"/>
      <point x="264" y="-6"/>
      <point x="257" y="10" type="curve" smooth="yes"/>
      <point x="223" y="85"/>
      <point x="122" y="377"/>
      <point x="87" y="502" type="curve" smooth="yes"/>
      <point x="82" y="519"/>
      <point x="93" y="538"/>
      <point x="110" y="543" type="curve" smooth="yes"/>
      <point x="127" y="548"/>
      <point x="146" y="537"/>
    </contour>
    <contour>
      <point x="261" y="31" type="curve" smooth="yes"/>
      <point x="297" y="115"/>
      <point x="399" y="375"/>
      <point x="440" y="517" type="curve" smooth="yes"/>
      <point x="445" y="534"/>
      <point x="464" y="545"/>
      <point x="481" y="540" type="curve" smooth="yes"/>
      <point x="498" y="535"/>
      <point x="509" y="516"/>
      <point x="504" y="499" type="curve" smooth="yes"/>
      <point x="461" y="355"/>
      <point x="359" y="89"/>
      <point x="321" y="5" type="curve" smooth="yes"/>
      <point x="314" y="-12"/>
      <point x="294" y="-19"/>
      <point x="278" y="-12" type="curve" smooth="yes"/>
      <point x="261" y="-5"/>
      <point x="254" y="15"/>
    </contour>
    <contour>
      <point x="508" y="506" type="curve" smooth="yes"/>
      <point x="545" y="385"/>
      <point x="636" y="110"/>
      <point x="669" y="36" type="curve" smooth="yes"/>
      <point x="676" y="20"/>
      <point x="669" y="0"/>
      <point x="652" y="-7" type="curve" smooth="yes"/>
      <point x="636" y="-14"/>
      <point x="616" y="-7"/>
      <point x="609" y="10" type="curve" smooth="yes"/>
      <point x="576" y="84"/>
      <point x="483" y="363"/>
      <point x="444" y="486" type="curve" smooth="yes"/>
      <point x="439" y="503"/>
      <point x="449" y="522"/>
      <point x="466" y="528" type="curve" smooth="yes"/>
      <point x="483" y="533"/>
      <point x="502" y="523"/>
    </contour>
    <contour>
      <point x="613" y="30" type="curve" smooth="yes"/>
      <point x="649" y="114"/>
      <point x="747" y="378"/>
      <point x="788" y="520" type="curve" smooth="yes"/>
      <point x="793" y="537"/>
      <point x="812" y="548"/>
      <point x="829" y="543" type="curve" smooth="yes"/>
      <point x="846" y="538"/>
      <point x="857" y="519"/>
      <point x="852" y="502" type="curve" smooth="yes"/>
      <point x="809" y="358"/>
      <point x="711" y="88"/>
      <point x="673" y="4" type="curve" smooth="yes"/>
      <point x="666" y="-13"/>
      <point x="646" y="-20"/>
      <point x="630" y="-13" type="curve" smooth="yes"/>
      <point x="613" y="-6"/>
      <point x="606" y="14"/>
    </contour>
  </outline>
</glyph>
<glyph name="X" format="1">
  <advance width="579"/>
  <unicode hex="0058"/>
  <outline>
    <contour>
      <point x="191" y="530" type="curve" smooth="yes"/>
      <point x="285" y="386"/>
      <point x="475" y="130"/>
      <point x="533" y="46" type="curve" smooth="yes"/>
      <point x="543" y="31"/>
      <point x="539" y="10"/>
      <point x="525" y="0" type="curve" smooth="yes"/>
      <point x="510" y="-10"/>
      <point x="489" y="-6"/>
      <point x="479" y="8" type="curve" smooth="yes"/>
      <point x="421" y="92"/>
      <point x="231" y="350"/>
      <point x="135" y="494" type="curve" smooth="yes"/>
      <point x="126" y="509"/>
      <point x="130" y="530"/>
      <point x="145" y="540" type="curve" smooth="yes"/>
      <point x="160" y="549"/>
      <point x="181" y="545"/>
    </contour>
    <contour>
      <point x="125" y="47" type="curve" smooth="yes"/>
      <point x="204" y="153"/>
      <point x="375" y="397"/>
      <point x="460" y="530" type="curve" smooth="yes"/>
      <point x="470" y="545"/>
      <point x="491" y="549"/>
      <point x="506" y="540" type="curve" smooth="yes"/>
      <point x="521" y="530"/>
      <point x="525" y="509"/>
      <point x="516" y="494" type="curve" smooth="yes"/>
      <point x="429" y="361"/>
      <point x="258" y="115"/>
      <point x="179" y="7" type="curve" smooth="yes"/>
      <point x="168" y="-7"/>
      <point x="147" y="-10"/>
      <point x="132" y="0" type="curve" smooth="yes"/>
      <point x="118" y="11"/>
      <point x="115" y="32"/>
    </contour>
  </outline>
</glyph>
<glyph name="Y" format="1">
  <advance width="536"/>
  <unicode hex="0059"/>
  <outline>
    <contour>
      <point x="305" y="203" type="curve" smooth="yes"/>
      <point x="305" y="171"/>
      <point x="305" y="73"/>
      <point x="305" y="26" type="curve" smooth="yes"/>
      <point x="305" y="8"/>
      <point x="290" y="-7"/>
      <point x="272" y="-7" type="curve" smooth="yes"/>
      <point x="254" y="-7"/>
      <point x="239" y="8"/>
      <point x="239" y="26" type="curve" smooth="yes"/>
      <point x="239" y="73"/>
      <point x="239" y="171"/>
      <point x="239" y="203" type="curve" smooth="yes"/>
      <point x="239" y="221"/>
      <point x="254" y="236"/>
      <point x="272" y="236" type="curve" smooth="yes"/>
      <point x="290" y="236"/>
      <point x="305" y="221"/>
    </contour>
    <contour>
      <point x="102" y="530" type="curve" smooth="yes"/>
      <point x="144" y="460"/>
      <point x="256" y="291"/>
      <point x="296" y="234" type="curve" smooth="yes"/>
      <point x="306" y="219"/>
      <point x="303" y="198"/>
      <point x="288" y="188" type="curve" smooth="yes"/>
      <point x="273" y="178"/>
      <point x="252" y="181"/>
      <point x="242" y="196" type="curve" smooth="yes"/>
      <point x="202" y="253"/>
      <point x="88" y="426"/>
      <point x="46" y="496" type="curve" smooth="yes"/>
      <point x="37" y="511"/>
      <point x="42" y="532"/>
      <point x="57" y="541" type="curve" smooth="yes"/>
      <point x="72" y="550"/>
      <point x="93" y="545"/>
    </contour>
    <contour>
      <point x="245" y="228" type="curve" smooth="yes"/>
      <point x="291" y="293"/>
      <point x="398" y="460"/>
      <point x="437" y="529" type="curve" smooth="yes"/>
      <point x="446" y="544"/>
      <point x="467" y="549"/>
      <point x="483" y="541" type="curve" smooth="yes"/>
      <point x="498" y="532"/>
      <point x="503" y="511"/>
      <point x="495" y="495" type="curve" smooth="yes"/>
      <point x="454" y="426"/>
      <point x="345" y="257"/>
      <point x="299" y="190" type="curve" smooth="yes"/>
      <point x="289" y="176"/>
      <point x="268" y="172"/>
      <point x="253" y="182" type="curve" smooth="yes"/>
      <point x="239" y="192"/>
      <point x="235" y="213"/>
    </contour>
  </outline>
</glyph>
<glyph name="Z" format="1">
  <advance width="510"/>
  <unicode hex="005A"/>
  <outline>
    <contour>
      <point x="445" y="494" type="curve" smooth="yes"/>
      <point x="382" y="399"/>
      <point x="182" y="99"/>
      <point x="129" y="17" type="curve" smooth="yes"/>
      <point x="119" y="2"/>
      <point x="98" y="-2"/>
      <point x="83" y="7" type="curve" smooth="yes"/>
      <point x="68" y="17"/>
      <point x="64" y="38"/>
      <point x="73" y="53" type="curve" smooth="yes"/>
      <point x="126" y="135"/>
      <point x="326" y="435"/>
      <point x="389" y="530" type="curve" smooth="yes"/>
      <point x="399" y="545"/>
      <point x="420" y="549"/>
      <point x="435" y="540" type="curve" smooth="yes"/>
      <point x="450" y="530"/>
      <point x="454" y="509"/>
    </contour>
    <contour>
      <point x="110" y="545" type="curve" smooth="yes"/>
      <point x="202" y="545"/>
      <point x="348" y="545"/>
      <point x="406" y="545" type="curve" smooth="yes"/>
      <point x="424" y="545"/>
      <point x="439" y="530"/>
      <point x="439" y="512" type="curve" smooth="yes"/>
      <point x="439" y="494"/>
      <point x="424" y="479"/>
      <point x="406" y="479" type="curve" smooth="yes"/>
      <point x="348" y="479"/>
      <point x="202" y="479"/>
      <point x="110" y="479" type="curve" smooth="yes"/>
      <point x="92" y="479"/>
      <point x="77" y="494"/>
      <point x="77" y="512" type="curve" smooth="yes"/>
      <point x="77" y="530"/>
      <point x="92" y="545"/>
    </contour>
    <contour>
      <point x="97" y="60" type="curve" smooth="yes"/>
      <point x="189" y="60"/>
      <point x="361" y="60"/>
      <point x="417" y="60" type="curve" smooth="yes"/>
      <point x="435" y="60"/>
      <point x="450" y="45"/>
      <point x="450" y="27" type="curve" smooth="yes"/>
      <point x="450" y="9"/>
      <point x="435" y="-6"/>
      <point x="417" y="-6" type="curve" smooth="yes"/>
      <point x="361" y="-6"/>
      <point x="189" y="-6"/>
      <point x="97" y="-6" type="curve" smooth="yes"/>
      <point x="79" y="-6"/>
      <point x="64" y="9"/>
      <point x="64" y="27" type="curve" smooth="yes"/>
      <point x="64" y="45"/>
      <point x="79" y="60"/>
    </contour>
  </outline>
</glyph>
<glyph name="grave" format="1">
  <advance width="500"/>
  <unicode hex="0060"/>
  <outline>
    <contour>
      <point x="246" y="612" type="curve" smooth="yes"/>
      <point x="275" y="575"/>
      <point x="289" y="557"/>
      <point x="314" y="516" type="curve" smooth="yes"/>
      <point x="323" y="501"/>
      <point x="318" y="480"/>
      <point x="303" y="471" type="curve" smooth="yes"/>
      <point x="288" y="462"/>
      <point x="267" y="467"/>
      <point x="258" y="482" type="curve" smooth="yes"/>
      <point x="235" y="519"/>
      <point x="221" y="537"/>
      <point x="194" y="570" type="curve" smooth="yes"/>
      <point x="183" y="584"/>
      <point x="185" y="606"/>
      <point x="199" y="617" type="curve" smooth="yes"/>
      <point x="213" y="628"/>
      <point x="235" y="626"/>
    </contour>
  </outline>
</glyph>
<glyph name="a" format="1">
  <advance width="446"/>
  <unicode hex="0061"/>
  <outline>
    <contour>
      <point x="105" y="385" type="curve" smooth="yes"/>
      <point x="129" y="396"/>
      <point x="171" y="407"/>
      <point x="211" y="407" type="curve" smooth="yes"/>
      <point x="320" y="407"/>
      <point x="374" y="338"/>
      <point x="374" y="236" type="curve" smooth="yes"/>
      <point x="374" y="187"/>
      <point x="374" y="133"/>
      <point x="374" y="109" type="curve" smooth="yes"/>
      <point x="374" y="72"/>
      <point x="383" y="50"/>
      <point x="395" y="32" type="curve" smooth="yes"/>
      <point x="404" y="17"/>
      <point x="400" y="-4"/>
      <point x="385" y="-14" type="curve" smooth="yes"/>
      <point x="370" y="-23"/>
      <point x="349" y="-19"/>
      <point x="339" y="-4" type="curve" smooth="yes"/>
      <point x="323" y="22"/>
      <point x="308" y="56"/>
      <point x="308" y="109" type="curve" smooth="yes"/>
      <point x="308" y="133"/>
      <point x="308" y="187"/>
      <point x="308" y="236" type="curve" smooth="yes"/>
      <point x="308" y="296"/>
      <point x="278" y="341"/>
      <point x="211" y="341" type="curve" smooth="yes"/>
      <point x="181" y="341"/>
      <point x="151" y="334"/>
      <point x="133" y="325" type="curve" smooth="yes"/>
      <point x="117" y="318"/>
      <point x="97" y="325"/>
      <point x="89" y="341" type="curve" smooth="yes"/>
      <point x="82" y="357"/>
      <point x="89" y="377"/>
    </contour>
    <contour>
      <point x="329" y="169" type="curve" smooth="yes"/>
      <point x="297" y="174"/>
      <point x="267" y="179"/>
      <point x="237" y="179" type="curve" smooth="yes"/>
      <point x="170" y="179"/>
      <point x="115" y="154"/>
      <point x="115" y="103" type="curve" smooth="yes"/>
      <point x="115" y="70"/>
      <point x="145" y="49"/>
      <point x="181" y="49" type="curve" smooth="yes"/>
      <point x="243" y="49"/>
      <point x="284" y="80"/>
      <point x="314" y="121" type="curve" smooth="yes"/>
      <point x="325" y="135"/>
      <point x="346" y="138"/>
      <point x="361" y="128" type="curve" smooth="yes"/>
      <point x="375" y="117"/>
      <point x="378" y="96"/>
      <point x="368" y="81" type="curve" smooth="yes"/>
      <point x="326" y="24"/>
      <point x="267" y="-17"/>
      <point x="181" y="-17" type="curve" smooth="yes"/>
      <point x="101" y="-17"/>
      <point x="49" y="36"/>
      <point x="49" y="103" type="curve"/>
      <point x="49" y="182"/>
      <point x="112" y="245"/>
      <point x="237" y="245" type="curve" smooth="yes"/>
      <point x="271" y="245"/>
      <point x="305" y="240"/>
      <point x="341" y="233" type="curve" smooth="yes"/>
      <point x="358" y="230"/>
      <point x="371" y="213"/>
      <point x="367" y="195" type="curve" smooth="yes"/>
      <point x="364" y="178"/>
      <point x="347" y="165"/>
    </contour>
  </outline>
</glyph>
<glyph name="b" format="1">
  <advance width="493"/>
  <unicode hex="0062"/>
  <outline>
    <contour>
      <point x="73" y="15" type="curve" smooth="yes"/>
      <point x="73" y="537" type="line" smooth="yes"/>
      <point x="73" y="555"/>
      <point x="88" y="570"/>
      <point x="106" y="570" type="curve" smooth="yes"/>
      <point x="124" y="570"/>
      <point x="139" y="555"/>
      <point x="139" y="537" type="curve" smooth="yes"/>
      <point x="139" y="15" type="line" smooth="yes"/>
      <point x="139" y="-3"/>
      <point x="124" y="-18"/>
      <point x="106" y="-18" type="curve" smooth="yes"/>
      <point x="88" y="-18"/>
      <point x="73" y="-3"/>
    </contour>
    <contour>
      <point x="127" y="99" type="curve" smooth="yes"/>
      <point x="167" y="66"/>
      <point x="209" y="50"/>
      <point x="268" y="50" type="curve" smooth="yes"/>
      <point x="333" y="50"/>
      <point x="373" y="107"/>
      <point x="373" y="197" type="curve" smooth="yes"/>
      <point x="373" y="290"/>
      <point x="332" y="346"/>
      <point x="270" y="346" type="curve" smooth="yes"/>
      <point x="219" y="346"/>
      <point x="172" y="304"/>
      <point x="135" y="245" type="curve" smooth="yes"/>
      <point x="126" y="229"/>
      <point x="105" y="225"/>
      <point x="90" y="234" type="curve" smooth="yes"/>
      <point x="74" y="243"/>
      <point x="70" y="264"/>
      <point x="79" y="279" type="curve" smooth="yes"/>
      <point x="132" y="364"/>
      <point x="201" y="412"/>
      <point x="270" y="412" type="curve" smooth="yes"/>
      <point x="360" y="412"/>
      <point x="439" y="350"/>
      <point x="439" y="197" type="curve" smooth="yes"/>
      <point x="439" y="51"/>
      <point x="363" y="-16"/>
      <point x="268" y="-16" type="curve" smooth="yes"/>
      <point x="191" y="-16"/>
      <point x="137" y="6"/>
      <point x="85" y="47" type="curve" smooth="yes"/>
      <point x="71" y="58"/>
      <point x="69" y="80"/>
      <point x="80" y="94" type="curve" smooth="yes"/>
      <point x="91" y="108"/>
      <point x="113" y="110"/>
    </contour>
  </outline>
</glyph>
<glyph name="c" format="1">
  <advance width="439"/>
  <unicode hex="0063"/>
  <outline>
    <contour>
      <point x="328" y="323" type="curve" smooth="yes"/>
      <point x="299" y="337"/>
      <point x="273" y="345"/>
      <point x="241" y="345" type="curve" smooth="yes"/>
      <point x="153" y="345"/>
      <point x="110" y="266"/>
      <point x="110" y="189" type="curve" smooth="yes"/>
      <point x="110" y="115"/>
      <point x="150" y="51"/>
      <point x="249" y="51" type="curve" smooth="yes"/>
      <point x="284" y="51"/>
      <point x="316" y="61"/>
      <point x="342" y="76" type="curve" smooth="yes"/>
      <point x="357" y="84"/>
      <point x="378" y="79"/>
      <point x="387" y="63" type="curve" smooth="yes"/>
      <point x="395" y="48"/>
      <point x="390" y="27"/>
      <point x="374" y="18" type="curve" smooth="yes"/>
      <point x="340" y="-1"/>
      <point x="296" y="-15"/>
      <point x="249" y="-15" type="curve" smooth="yes"/>
      <point x="102" y="-15"/>
      <point x="44" y="81"/>
      <point x="44" y="189" type="curve"/>
      <point x="44" y="306"/>
      <point x="115" y="411"/>
      <point x="241" y="411" type="curve" smooth="yes"/>
      <point x="283" y="411"/>
      <point x="319" y="401"/>
      <point x="356" y="383" type="curve" smooth="yes"/>
      <point x="372" y="375"/>
      <point x="379" y="355"/>
      <point x="372" y="339" type="curve" smooth="yes"/>
      <point x="364" y="323"/>
      <point x="344" y="316"/>
    </contour>
  </outline>
</glyph>
<glyph name="d" format="1">
  <advance width="536"/>
  <unicode hex="0064"/>
  <outline>
    <contour>
      <point x="373" y="289" type="curve" smooth="yes"/>
      <point x="334" y="320"/>
      <point x="293" y="345"/>
      <point x="240" y="345" type="curve" smooth="yes"/>
      <point x="161" y="345"/>
      <point x="106" y="281"/>
      <point x="106" y="186" type="curve" smooth="yes"/>
      <point x="106" y="98"/>
      <point x="153" y="51"/>
      <point x="221" y="51" type="curve" smooth="yes"/>
      <point x="281" y="51"/>
      <point x="327" y="89"/>
      <point x="365" y="152" type="curve" smooth="yes"/>
      <point x="374" y="167"/>
      <point x="395" y="172"/>
      <point x="410" y="163" type="curve" smooth="yes"/>
      <point x="425" y="154"/>
      <point x="430" y="133"/>
      <point x="421" y="118" type="curve" smooth="yes"/>
      <point x="369" y="31"/>
      <point x="301" y="-15"/>
      <point x="221" y="-15" type="curve" smooth="yes"/>
      <point x="119" y="-15"/>
      <point x="40" y="48"/>
      <point x="40" y="186" type="curve"/>
      <point x="40" y="329"/>
      <point x="129" y="411"/>
      <point x="240" y="411" type="curve" smooth="yes"/>
      <point x="309" y="411"/>
      <point x="364" y="382"/>
      <point x="415" y="339" type="curve" smooth="yes"/>
      <point x="429" y="328"/>
      <point x="431" y="307"/>
      <point x="419" y="293" type="curve" smooth="yes"/>
      <point x="408" y="279"/>
      <point x="387" y="277"/>
    </contour>
    <contour>
      <point x="427" y="538" type="curve" smooth="yes"/>
      <point x="427" y="113" type="line" smooth="yes"/>
      <point x="427" y="77"/>
      <point x="436" y="53"/>
      <point x="448" y="36" type="curve" smooth="yes"/>
      <point x="458" y="21"/>
      <point x="454" y="0"/>
      <point x="440" y="-10" type="curve" smooth="yes"/>
      <point x="425" y="-20"/>
      <point x="404" y="-16"/>
      <point x="394" y="-2" type="curve" smooth="yes"/>
      <point x="376" y="25"/>
      <point x="361" y="59"/>
      <point x="361" y="113" type="curve" smooth="yes"/>
      <point x="361" y="538" type="line" smooth="yes"/>
      <point x="361" y="556"/>
      <point x="376" y="571"/>
      <point x="394" y="571" type="curve" smooth="yes"/>
      <point x="412" y="571"/>
      <point x="427" y="556"/>
    </contour>
  </outline>
</glyph>
<glyph name="e" format="1">
  <advance width="473"/>
  <unicode hex="0065"/>
  <outline>
    <contour>
      <point x="97" y="234" type="curve" smooth="yes"/>
      <point x="138" y="235"/>
      <point x="218" y="234"/>
      <point x="270" y="234" type="curve" smooth="yes"/>
      <point x="311" y="234"/>
      <point x="331" y="239"/>
      <point x="342" y="250" type="curve"/>
      <point x="339" y="246" type="line"/>
      <point x="343" y="251"/>
      <point x="350" y="260"/>
      <point x="350" y="269" type="curve" smooth="yes"/>
      <point x="350" y="304"/>
      <point x="309" y="341"/>
      <point x="250" y="341" type="curve" smooth="yes"/>
      <point x="174" y="341"/>
      <point x="123" y="271"/>
      <point x="123" y="188" type="curve" smooth="yes"/>
      <point x="123" y="92"/>
      <point x="181" y="47"/>
      <point x="264" y="47" type="curve" smooth="yes"/>
      <point x="306" y="47"/>
      <point x="326" y="54"/>
      <point x="354" y="65" type="curve" smooth="yes"/>
      <point x="371" y="71"/>
      <point x="391" y="62"/>
      <point x="397" y="46" type="curve" smooth="yes"/>
      <point x="403" y="29"/>
      <point x="394" y="9"/>
      <point x="378" y="3" type="curve" smooth="yes"/>
      <point x="342" y="-10"/>
      <point x="316" y="-19"/>
      <point x="264" y="-19" type="curve" smooth="yes"/>
      <point x="143" y="-19"/>
      <point x="57" y="46"/>
      <point x="57" y="188" type="curve"/>
      <point x="57" y="315"/>
      <point x="141" y="407"/>
      <point x="250" y="407" type="curve" smooth="yes"/>
      <point x="363" y="407"/>
      <point x="416" y="328"/>
      <point x="416" y="269" type="curve" smooth="yes"/>
      <point x="416" y="244"/>
      <point x="401" y="219"/>
      <point x="391" y="206" type="curve" smooth="yes"/>
      <point x="390" y="205"/>
      <point x="389" y="203"/>
      <point x="388" y="202" type="curve" smooth="yes"/>
      <point x="369" y="185"/>
      <point x="341" y="168"/>
      <point x="270" y="168" type="curve" smooth="yes"/>
      <point x="218" y="168"/>
      <point x="140" y="169"/>
      <point x="99" y="168" type="curve" smooth="yes"/>
      <point x="81" y="168"/>
      <point x="65" y="182"/>
      <point x="65" y="200" type="curve" smooth="yes"/>
      <point x="65" y="218"/>
      <point x="79" y="234"/>
    </contour>
  </outline>
</glyph>
<glyph name="f" format="1">
  <advance width="329"/>
  <unicode hex="0066"/>
  <outline>
    <contour>
      <point x="260" y="497" type="curve" smooth="yes"/>
      <point x="247" y="501"/>
      <point x="228" y="505"/>
      <point x="208" y="505" type="curve" smooth="yes"/>
      <point x="173" y="505"/>
      <point x="154" y="483"/>
      <point x="154" y="438" type="curve" smooth="yes"/>
      <point x="154" y="27" type="line" smooth="yes"/>
      <point x="154" y="9"/>
      <point x="139" y="-6"/>
      <point x="121" y="-6" type="curve" smooth="yes"/>
      <point x="103" y="-6"/>
      <point x="88" y="9"/>
      <point x="88" y="27" type="curve" smooth="yes"/>
      <point x="88" y="438" type="line" smooth="yes"/>
      <point x="88" y="539"/>
      <point x="139" y="571"/>
      <point x="208" y="571" type="curve" smooth="yes"/>
      <point x="236" y="571"/>
      <point x="261" y="565"/>
      <point x="280" y="559" type="curve" smooth="yes"/>
      <point x="297" y="554"/>
      <point x="307" y="535"/>
      <point x="301" y="518" type="curve" smooth="yes"/>
      <point x="296" y="501"/>
      <point x="277" y="491"/>
    </contour>
    <contour>
      <point x="52" y="402" type="curve" smooth="yes"/>
      <point x="267" y="402" type="line" smooth="yes"/>
      <point x="285" y="402"/>
      <point x="300" y="387"/>
      <point x="300" y="369" type="curve" smooth="yes"/>
      <point x="300" y="351"/>
      <point x="285" y="336"/>
      <point x="267" y="336" type="curve" smooth="yes"/>
      <point x="52" y="336" type="line" smooth="yes"/>
      <point x="34" y="336"/>
      <point x="19" y="351"/>
      <point x="19" y="369" type="curve" smooth="yes"/>
      <point x="19" y="387"/>
      <point x="34" y="402"/>
    </contour>
  </outline>
</glyph>
<glyph name="g" format="1">
  <advance width="512"/>
  <unicode hex="0067"/>
  <outline>
    <contour>
      <point x="380" y="302" type="curve" smooth="yes"/>
      <point x="338" y="328"/>
      <point x="300" y="345"/>
      <point x="247" y="345" type="curve" smooth="yes"/>
      <point x="172" y="345"/>
      <point x="111" y="283"/>
      <point x="111" y="194" type="curve" smooth="yes"/>
      <point x="111" y="106"/>
      <point x="169" y="61"/>
      <point x="231" y="61" type="curve" smooth="yes"/>
      <point x="281" y="61"/>
      <point x="331" y="92"/>
      <point x="368" y="153" type="curve" smooth="yes"/>
      <point x="377" y="168"/>
      <point x="398" y="173"/>
      <point x="413" y="164" type="curve" smooth="yes"/>
      <point x="428" y="155"/>
      <point x="433" y="134"/>
      <point x="424" y="119" type="curve" smooth="yes"/>
      <point x="373" y="32"/>
      <point x="299" y="-5"/>
      <point x="231" y="-5" type="curve" smooth="yes"/>
      <point x="139" y="-5"/>
      <point x="45" y="58"/>
      <point x="45" y="194" type="curve"/>
      <point x="45" y="325"/>
      <point x="139" y="411"/>
      <point x="247" y="411" type="curve" smooth="yes"/>
      <point x="314" y="411"/>
      <point x="362" y="390"/>
      <point x="414" y="358" type="curve" smooth="yes"/>
      <point x="429" y="349"/>
      <point x="434" y="328"/>
      <point x="425" y="313" type="curve" smooth="yes"/>
      <point x="416" y="298"/>
      <point x="395" y="293"/>
    </contour>
    <contour>
      <point x="130" y="-121" type="curve" smooth="yes"/>
      <point x="153" y="-129"/>
      <point x="192" y="-135"/>
      <point x="230" y="-135" type="curve" smooth="yes"/>
      <point x="321" y="-135"/>
      <point x="364" y="-72"/>
      <point x="364" y="28" type="curve" smooth="yes"/>
      <point x="364" y="369" type="line" smooth="yes"/>
      <point x="364" y="387"/>
      <point x="379" y="402"/>
      <point x="397" y="402" type="curve" smooth="yes"/>
      <point x="415" y="402"/>
      <point x="430" y="387"/>
      <point x="430" y="369" type="curve" smooth="yes"/>
      <point x="430" y="28" type="line" smooth="yes"/>
      <point x="430" y="-122"/>
      <point x="357" y="-201"/>
      <point x="230" y="-201" type="curve" smooth="yes"/>
      <point x="184" y="-201"/>
      <point x="139" y="-193"/>
      <point x="110" y="-185" type="curve" smooth="yes"/>
      <point x="93" y="-179"/>
      <point x="83" y="-160"/>
      <point x="88" y="-143" type="curve" smooth="yes"/>
      <point x="94" y="-126"/>
      <point x="113" y="-116"/>
    </contour>
  </outline>
</glyph>
<glyph name="h" format="1">
  <advance width="507"/>
  <unicode hex="0068"/>
  <outline>
    <contour>
      <point x="82" y="27" type="curve" smooth="yes"/>
      <point x="82" y="538" type="line" smooth="yes"/>
      <point x="82" y="556"/>
      <point x="97" y="571"/>
      <point x="115" y="571" type="curve" smooth="yes"/>
      <point x="133" y="571"/>
      <point x="148" y="556"/>
      <point x="148" y="538" type="curve" smooth="yes"/>
      <point x="148" y="27" type="line" smooth="yes"/>
      <point x="148" y="9"/>
      <point x="133" y="-6"/>
      <point x="115" y="-6" type="curve" smooth="yes"/>
      <point x="97" y="-6"/>
      <point x="82" y="9"/>
    </contour>
    <contour>
      <point x="369" y="27" type="curve" smooth="yes"/>
      <point x="369" y="236" type="line" smooth="yes"/>
      <point x="369" y="310"/>
      <point x="339" y="345"/>
      <point x="290" y="345" type="curve" smooth="yes"/>
      <point x="236" y="345"/>
      <point x="181" y="292"/>
      <point x="146" y="243" type="curve" smooth="yes"/>
      <point x="135" y="228"/>
      <point x="114" y="225"/>
      <point x="100" y="235" type="curve" smooth="yes"/>
      <point x="85" y="246"/>
      <point x="82" y="267"/>
      <point x="92" y="281" type="curve" smooth="yes"/>
      <point x="141" y="348"/>
      <point x="218" y="411"/>
      <point x="290" y="411" type="curve" smooth="yes"/>
      <point x="369" y="411"/>
      <point x="435" y="372"/>
      <point x="435" y="236" type="curve" smooth="yes"/>
      <point x="435" y="27" type="line" smooth="yes"/>
      <point x="435" y="9"/>
      <point x="420" y="-6"/>
      <point x="402" y="-6" type="curve" smooth="yes"/>
      <point x="384" y="-6"/>
      <point x="369" y="9"/>
    </contour>
  </outline>
</glyph>
<glyph name="i" format="1">
  <advance width="236"/>
  <unicode hex="0069"/>
  <outline>
    <contour>
      <point x="85" y="27" type="curve" smooth="yes"/>
      <point x="85" y="369" type="line" smooth="yes"/>
      <point x="85" y="387"/>
      <point x="100" y="402"/>
      <point x="118" y="402" type="curve" smooth="yes"/>
      <point x="136" y="402"/>
      <point x="151" y="387"/>
      <point x="151" y="369" type="curve" smooth="yes"/>
      <point x="151" y="27" type="line" smooth="yes"/>
      <point x="151" y="9"/>
      <point x="136" y="-6"/>
      <point x="118" y="-6" type="curve" smooth="yes"/>
      <point x="100" y="-6"/>
      <point x="85" y="9"/>
    </contour>
    <contour>
      <point x="152" y="555" type="curve" smooth="yes"/>
      <point x="152" y="511" type="line" smooth="yes"/>
      <point x="152" y="493"/>
      <point x="137" y="478"/>
      <point x="119" y="478" type="curve" smooth="yes"/>
      <point x="101" y="478"/>
      <point x="86" y="493"/>
      <point x="86" y="511" type="curve" smooth="yes"/>
      <point x="86" y="555" type="line" smooth="yes"/>
      <point x="86" y="573"/>
      <point x="101" y="588"/>
      <point x="119" y="588" type="curve" smooth="yes"/>
      <point x="137" y="588"/>
      <point x="152" y="573"/>
    </contour>
  </outline>
</glyph>
<glyph name="j" format="1">
  <advance width="236"/>
  <unicode hex="006A"/>
  <outline>
    <contour>
      <point x="8" y="-87" type="curve" smooth="yes"/>
      <point x="63" y="-87"/>
      <point x="85" y="-47"/>
      <point x="85" y="9" type="curve" smooth="yes"/>
      <point x="85" y="361" type="line" smooth="yes"/>
      <point x="85" y="379"/>
      <point x="100" y="394"/>
      <point x="118" y="394" type="curve" smooth="yes"/>
      <point x="136" y="394"/>
      <point x="151" y="379"/>
      <point x="151" y="361" type="curve" smooth="yes"/>
      <point x="151" y="9" type="line" smooth="yes"/>
      <point x="151" y="-95"/>
      <point x="101" y="-153"/>
      <point x="8" y="-153" type="curve" smooth="yes"/>
      <point x="-10" y="-153"/>
      <point x="-25" y="-138"/>
      <point x="-25" y="-120" type="curve" smooth="yes"/>
      <point x="-25" y="-102"/>
      <point x="-10" y="-87"/>
    </contour>
    <contour>
      <point x="152" y="538" type="curve" smooth="yes"/>
      <point x="152" y="503" type="line" smooth="yes"/>
      <point x="152" y="485"/>
      <point x="137" y="470"/>
      <point x="119" y="470" type="curve" smooth="yes"/>
      <point x="101" y="470"/>
      <point x="86" y="485"/>
      <point x="86" y="503" type="curve" smooth="yes"/>
      <point x="86" y="538" type="line" smooth="yes"/>
      <point x="86" y="556"/>
      <point x="101" y="571"/>
      <point x="119" y="571" type="curve" smooth="yes"/>
      <point x="137" y="571"/>
      <point x="152" y="556"/>
    </contour>
  </outline>
</glyph>
<glyph name="k" format="1">
  <advance width="483"/>
  <unicode hex="006B"/>
  <outline>
    <contour>
      <point x="82" y="27" type="curve" smooth="yes"/>
      <point x="82" y="538" type="line" smooth="yes"/>
      <point x="82" y="556"/>
      <point x="97" y="571"/>
      <point x="115" y="571" type="curve" smooth="yes"/>
      <point x="133" y="571"/>
      <point x="148" y="556"/>
      <point x="148" y="538" type="curve" smooth="yes"/>
      <point x="148" y="27" type="line" smooth="yes"/>
      <point x="148" y="9"/>
      <point x="133" y="-6"/>
      <point x="115" y="-6" type="curve" smooth="yes"/>
      <point x="97" y="-6"/>
      <point x="82" y="9"/>
    </contour>
    <contour>
      <point x="266" y="272" type="curve" smooth="yes"/>
      <point x="427" y="46" type="line" smooth="yes"/>
      <point x="437" y="32"/>
      <point x="434" y="10"/>
      <point x="419" y="0" type="curve" smooth="yes"/>
      <point x="405" y="-10"/>
      <point x="383" y="-7"/>
      <point x="373" y="8" type="curve" smooth="yes"/>
      <point x="212" y="234" type="line" smooth="yes"/>
      <point x="202" y="248"/>
      <point x="205" y="270"/>
      <point x="220" y="280" type="curve" smooth="yes"/>
      <point x="234" y="290"/>
      <point x="256" y="287"/>
    </contour>
    <contour>
      <point x="407" y="343" type="curve" smooth="yes"/>
      <point x="137" y="131" type="line" smooth="yes"/>
      <point x="123" y="120"/>
      <point x="102" y="123"/>
      <point x="91" y="137" type="curve" smooth="yes"/>
      <point x="80" y="151"/>
      <point x="83" y="172"/>
      <point x="97" y="183" type="curve" smooth="yes"/>
      <point x="367" y="395" type="line" smooth="yes"/>
      <point x="381" y="406"/>
      <point x="402" y="403"/>
      <point x="413" y="389" type="curve" smooth="yes"/>
      <point x="424" y="375"/>
      <point x="421" y="354"/>
    </contour>
  </outline>
</glyph>
<glyph name="l" format="1">
  <advance width="236"/>
  <unicode hex="006C"/>
  <outline>
    <contour>
      <point x="85" y="27" type="curve" smooth="yes"/>
      <point x="85" y="538" type="line" smooth="yes"/>
      <point x="85" y="556"/>
      <point x="100" y="571"/>
      <point x="118" y="571" type="curve" smooth="yes"/>
      <point x="136" y="571"/>
      <point x="151" y="556"/>
      <point x="151" y="538" type="curve" smooth="yes"/>
      <point x="151" y="27" type="line" smooth="yes"/>
      <point x="151" y="9"/>
      <point x="136" y="-6"/>
      <point x="118" y="-6" type="curve" smooth="yes"/>
      <point x="100" y="-6"/>
      <point x="85" y="9"/>
    </contour>
  </outline>
</glyph>
<glyph name="m" format="1">
  <advance width="762"/>
  <unicode hex="006D"/>
  <outline>
    <contour>
      <point x="82" y="27" type="curve" smooth="yes"/>
      <point x="82" y="369" type="line" smooth="yes"/>
      <point x="82" y="387"/>
      <point x="97" y="402"/>
      <point x="115" y="402" type="curve" smooth="yes"/>
      <point x="133" y="402"/>
      <point x="148" y="387"/>
      <point x="148" y="369" type="curve" smooth="yes"/>
      <point x="148" y="27" type="line" smooth="yes"/>
      <point x="148" y="9"/>
      <point x="133" y="-6"/>
      <point x="115" y="-6" type="curve" smooth="yes"/>
      <point x="97" y="-6"/>
      <point x="82" y="9"/>
    </contour>
    <contour>
      <point x="354" y="27" type="curve" smooth="yes"/>
      <point x="354" y="237" type="line" smooth="yes"/>
      <point x="354" y="309"/>
      <point x="324" y="336"/>
      <point x="278" y="336" type="curve" smooth="yes"/>
      <point x="225" y="336"/>
      <point x="177" y="288"/>
      <point x="144" y="240" type="curve" smooth="yes"/>
      <point x="134" y="226"/>
      <point x="113" y="222"/>
      <point x="98" y="232" type="curve" smooth="yes"/>
      <point x="84" y="242"/>
      <point x="80" y="263"/>
      <point x="90" y="278" type="curve" smooth="yes"/>
      <point x="137" y="346"/>
      <point x="207" y="402"/>
      <point x="278" y="402" type="curve" smooth="yes"/>
      <point x="354" y="402"/>
      <point x="420" y="371"/>
      <point x="420" y="237" type="curve" smooth="yes"/>
      <point x="420" y="27" type="line" smooth="yes"/>
      <point x="420" y="9"/>
      <point x="405" y="-6"/>
      <point x="387" y="-6" type="curve" smooth="yes"/>
      <point x="369" y="-6"/>
      <point x="354" y="9"/>
    </contour>
    <contour>
      <point x="624" y="27" type="curve" smooth="yes"/>
      <point x="624" y="237" type="line" smooth="yes"/>
      <point x="624" y="309"/>
      <point x="594" y="336"/>
      <point x="548" y="336" type="curve" smooth="yes"/>
      <point x="495" y="336"/>
      <point x="448" y="288"/>
      <point x="414" y="240" type="curve" smooth="yes"/>
      <point x="404" y="225"/>
      <point x="383" y="222"/>
      <point x="368" y="232" type="curve" smooth="yes"/>
      <point x="353" y="242"/>
      <point x="350" y="263"/>
      <point x="360" y="278" type="curve" smooth="yes"/>
      <point x="408" y="346"/>
      <point x="477" y="402"/>
      <point x="548" y="402" type="curve" smooth="yes"/>
      <point x="624" y="402"/>
      <point x="690" y="371"/>
      <point x="690" y="237" type="curve" smooth="yes"/>
      <point x="690" y="27" type="line" smooth="yes"/>
      <point x="690" y="9"/>
      <point x="675" y="-6"/>
      <point x="657" y="-6" type="curve" smooth="yes"/>
      <point x="639" y="-6"/>
      <point x="624" y="9"/>
    </contour>
  </outline>
</glyph>
<glyph name="n" format="1">
  <advance width="493"/>
  <unicode hex="006E"/>
  <outline>
    <contour>
      <point x="70" y="27" type="curve" smooth="yes"/>
      <point x="70" y="369" type="line" smooth="yes"/>
      <point x="70" y="387"/>
      <point x="85" y="402"/>
      <point x="103" y="402" type="curve" smooth="yes"/>
      <point x="121" y="402"/>
      <point x="136" y="387"/>
      <point x="136" y="369" type="curve" smooth="yes"/>
      <point x="136" y="27" type="line" smooth="yes"/>
      <point x="136" y="9"/>
      <point x="121" y="-6"/>
      <point x="103" y="-6" type="curve" smooth="yes"/>
      <point x="85" y="-6"/>
      <point x="70" y="9"/>
    </contour>
    <contour>
      <point x="357" y="27" type="curve" smooth="yes"/>
      <point x="357" y="236" type="line" smooth="yes"/>
      <point x="357" y="310"/>
      <point x="327" y="346"/>
      <point x="278" y="346" type="curve" smooth="yes"/>
      <point x="224" y="346"/>
      <point x="169" y="292"/>
      <point x="134" y="243" type="curve" smooth="yes"/>
      <point x="123" y="228"/>
      <point x="102" y="225"/>
      <point x="88" y="235" type="curve" smooth="yes"/>
      <point x="73" y="246"/>
      <point x="70" y="267"/>
      <point x="80" y="281" type="curve" smooth="yes"/>
      <point x="129" y="348"/>
      <point x="206" y="412"/>
      <point x="278" y="412" type="curve" smooth="yes"/>
      <point x="357" y="412"/>
      <point x="423" y="372"/>
      <point x="423" y="236" type="curve" smooth="yes"/>
      <point x="423" y="27" type="line" smooth="yes"/>
      <point x="423" y="9"/>
      <point x="408" y="-6"/>
      <point x="390" y="-6" type="curve" smooth="yes"/>
      <point x="372" y="-6"/>
      <point x="357" y="9"/>
    </contour>
  </outline>
</glyph>
<glyph name="o" format="1">
  <advance width="500"/>
  <unicode hex="006F"/>
  <outline>
    <contour>
      <point x="252" y="417" type="curve" smooth="yes"/>
      <point x="378" y="417"/>
      <point x="455" y="316"/>
      <point x="455" y="195" type="curve" smooth="yes"/>
      <point x="455" y="77"/>
      <point x="378" y="-15"/>
      <point x="252" y="-15" type="curve" smooth="yes"/>
      <point x="126" y="-15"/>
      <point x="45" y="78"/>
      <point x="45" y="197" type="curve"/>
      <point x="45" y="315"/>
      <point x="125" y="417"/>
    </contour>
    <contour>
      <point x="252" y="351" type="curve" smooth="yes"/>
      <point x="163" y="351"/>
      <point x="111" y="277"/>
      <point x="111" y="197" type="curve" smooth="yes"/>
      <point x="111" y="116"/>
      <point x="166" y="51"/>
      <point x="252" y="51" type="curve" smooth="yes"/>
      <point x="338" y="51"/>
      <point x="389" y="115"/>
      <point x="389" y="195" type="curve" smooth="yes"/>
      <point x="389" y="276"/>
      <point x="340" y="351"/>
    </contour>
  </outline>
</glyph>
<glyph name="p" format="1">
  <advance width="508"/>
  <unicode hex="0070"/>
  <outline>
    <contour>
      <point x="82" y="-164" type="curve" smooth="yes"/>
      <point x="82" y="369" type="line" smooth="yes"/>
      <point x="82" y="387"/>
      <point x="97" y="402"/>
      <point x="115" y="402" type="curve" smooth="yes"/>
      <point x="133" y="402"/>
      <point x="148" y="387"/>
      <point x="148" y="369" type="curve" smooth="yes"/>
      <point x="148" y="-164" type="line" smooth="yes"/>
      <point x="148" y="-182"/>
      <point x="133" y="-197"/>
      <point x="115" y="-197" type="curve" smooth="yes"/>
      <point x="97" y="-197"/>
      <point x="82" y="-182"/>
    </contour>
    <contour>
      <point x="135" y="96" type="curve" smooth="yes"/>
      <point x="175" y="65"/>
      <point x="214" y="51"/>
      <point x="270" y="51" type="curve" smooth="yes"/>
      <point x="350" y="51"/>
      <point x="402" y="120"/>
      <point x="402" y="198" type="curve" smooth="yes"/>
      <point x="402" y="285"/>
      <point x="346" y="345"/>
      <point x="280" y="345" type="curve" smooth="yes"/>
      <point x="225" y="345"/>
      <point x="181" y="305"/>
      <point x="144" y="245" type="curve" smooth="yes"/>
      <point x="135" y="230"/>
      <point x="114" y="225"/>
      <point x="99" y="234" type="curve" smooth="yes"/>
      <point x="84" y="243"/>
      <point x="79" y="264"/>
      <point x="88" y="279" type="curve" smooth="yes"/>
      <point x="141" y="365"/>
      <point x="205" y="411"/>
      <point x="280" y="411" type="curve" smooth="yes"/>
      <point x="376" y="411"/>
      <point x="468" y="333"/>
      <point x="468" y="198" type="curve" smooth="yes"/>
      <point x="468" y="80"/>
      <point x="386" y="-15"/>
      <point x="270" y="-15" type="curve" smooth="yes"/>
      <point x="196" y="-15"/>
      <point x="147" y="3"/>
      <point x="95" y="44" type="curve" smooth="yes"/>
      <point x="81" y="55"/>
      <point x="78" y="76"/>
      <point x="89" y="90" type="curve" smooth="yes"/>
      <point x="100" y="104"/>
      <point x="121" y="107"/>
    </contour>
  </outline>
</glyph>
<glyph name="q" format="1">
  <advance width="513"/>
  <unicode hex="0071"/>
  <outline>
    <contour>
      <point x="431" y="369" type="curve" smooth="yes"/>
      <point x="431" y="-164" type="line" smooth="yes"/>
      <point x="431" y="-182"/>
      <point x="416" y="-197"/>
      <point x="398" y="-197" type="curve" smooth="yes"/>
      <point x="380" y="-197"/>
      <point x="365" y="-182"/>
      <point x="365" y="-164" type="curve" smooth="yes"/>
      <point x="365" y="369" type="line" smooth="yes"/>
      <point x="365" y="387"/>
      <point x="380" y="402"/>
      <point x="398" y="402" type="curve" smooth="yes"/>
      <point x="416" y="402"/>
      <point x="431" y="387"/>
    </contour>
    <contour>
      <point x="380" y="300" type="curve" smooth="yes"/>
      <point x="344" y="323"/>
      <point x="305" y="336"/>
      <point x="254" y="336" type="curve" smooth="yes"/>
      <point x="176" y="336"/>
      <point x="110" y="277"/>
      <point x="110" y="183" type="curve" smooth="yes"/>
      <point x="110" y="107"/>
      <point x="165" y="60"/>
      <point x="225" y="60" type="curve" smooth="yes"/>
      <point x="279" y="60"/>
      <point x="331" y="91"/>
      <point x="369" y="152" type="curve" smooth="yes"/>
      <point x="378" y="167"/>
      <point x="399" y="172"/>
      <point x="414" y="163" type="curve" smooth="yes"/>
      <point x="429" y="154"/>
      <point x="434" y="133"/>
      <point x="425" y="118" type="curve" smooth="yes"/>
      <point x="373" y="33"/>
      <point x="299" y="-6"/>
      <point x="225" y="-6" type="curve" smooth="yes"/>
      <point x="133" y="-6"/>
      <point x="44" y="63"/>
      <point x="44" y="183" type="curve"/>
      <point x="44" y="321"/>
      <point x="142" y="402"/>
      <point x="254" y="402" type="curve" smooth="yes"/>
      <point x="319" y="402"/>
      <point x="370" y="385"/>
      <point x="416" y="356" type="curve" smooth="yes"/>
      <point x="431" y="346"/>
      <point x="435" y="325"/>
      <point x="426" y="310" type="curve" smooth="yes"/>
      <point x="416" y="295"/>
      <point x="395" y="291"/>
    </contour>
  </outline>
</glyph>
<glyph name="r" format="1">
  <advance width="373"/>
  <unicode hex="0072"/>
  <outline>
    <contour>
      <point x="82" y="27" type="curve" smooth="yes"/>
      <point x="82" y="369" type="line" smooth="yes"/>
      <point x="82" y="387"/>
      <point x="97" y="402"/>
      <point x="115" y="402" type="curve" smooth="yes"/>
      <point x="133" y="402"/>
      <point x="148" y="387"/>
      <point x="148" y="369" type="curve" smooth="yes"/>
      <point x="148" y="27" type="line" smooth="yes"/>
      <point x="148" y="9"/>
      <point x="133" y="-6"/>
      <point x="115" y="-6" type="curve" smooth="yes"/>
      <point x="97" y="-6"/>
      <point x="82" y="9"/>
    </contour>
    <contour>
      <point x="88" y="278" type="curve" smooth="yes"/>
      <point x="131" y="346"/>
      <point x="206" y="409"/>
      <point x="283" y="409" type="curve" smooth="yes"/>
      <point x="301" y="409"/>
      <point x="315" y="406"/>
      <point x="327" y="403" type="curve" smooth="yes"/>
      <point x="345" y="397"/>
      <point x="355" y="379"/>
      <point x="350" y="362" type="curve" smooth="yes"/>
      <point x="344" y="344"/>
      <point x="326" y="334"/>
      <point x="309" y="339" type="curve" smooth="yes"/>
      <point x="301" y="342"/>
      <point x="293" y="343"/>
      <point x="283" y="343" type="curve" smooth="yes"/>
      <point x="226" y="343"/>
      <point x="175" y="292"/>
      <point x="144" y="242" type="curve" smooth="yes"/>
      <point x="134" y="227"/>
      <point x="114" y="223"/>
      <point x="98" y="232" type="curve" smooth="yes"/>
      <point x="83" y="242"/>
      <point x="79" y="262"/>
    </contour>
  </outline>
</glyph>
<glyph name="s" format="1">
  <advance width="425"/>
  <unicode hex="0073"/>
  <outline>
    <contour>
      <point x="319" y="319" type="curve" smooth="yes"/>
      <point x="285" y="333"/>
      <point x="253" y="343"/>
      <point x="199" y="343" type="curve" smooth="yes"/>
      <point x="162" y="343"/>
      <point x="124" y="326"/>
      <point x="124" y="300" type="curve" smooth="yes"/>
      <point x="124" y="272"/>
      <point x="152" y="251"/>
      <point x="223" y="237" type="curve" smooth="yes"/>
      <point x="351" y="212"/>
      <point x="378" y="161"/>
      <point x="378" y="104" type="curve" smooth="yes"/>
      <point x="378" y="48"/>
      <point x="344" y="-15"/>
      <point x="215" y="-15" type="curve" smooth="yes"/>
      <point x="165" y="-15"/>
      <point x="106" y="-1"/>
      <point x="60" y="24" type="curve" smooth="yes"/>
      <point x="44" y="32"/>
      <point x="37" y="53"/>
      <point x="46" y="68" type="curve" smooth="yes"/>
      <point x="54" y="84"/>
      <point x="75" y="91"/>
      <point x="90" y="82" type="curve" smooth="yes"/>
      <point x="128" y="63"/>
      <point x="175" y="51"/>
      <point x="215" y="51" type="curve" smooth="yes"/>
      <point x="272" y="51"/>
      <point x="312" y="70"/>
      <point x="312" y="104" type="curve" smooth="yes"/>
      <point x="312" y="141"/>
      <point x="277" y="160"/>
      <point x="211" y="173" type="curve" smooth="yes"/>
      <point x="66" y="199"/>
      <point x="58" y="254"/>
      <point x="58" y="300" type="curve"/>
      <point x="58" y="350"/>
      <point x="106" y="409"/>
      <point x="199" y="409" type="curve" smooth="yes"/>
      <point x="265" y="409"/>
      <point x="303" y="397"/>
      <point x="343" y="381" type="curve" smooth="yes"/>
      <point x="360" y="374"/>
      <point x="368" y="354"/>
      <point x="362" y="338" type="curve" smooth="yes"/>
      <point x="355" y="321"/>
      <point x="335" y="313"/>
    </contour>
  </outline>
</glyph>
<glyph name="t" format="1">
  <advance width="374"/>
  <unicode hex="0074"/>
  <outline>
    <contour>
      <point x="174" y="495" type="curve" smooth="yes"/>
      <point x="174" y="113" type="line" smooth="yes"/>
      <point x="174" y="75"/>
      <point x="202" y="55"/>
      <point x="239" y="55" type="curve" smooth="yes"/>
      <point x="261" y="55"/>
      <point x="281" y="58"/>
      <point x="296" y="64" type="curve" smooth="yes"/>
      <point x="312" y="71"/>
      <point x="332" y="64"/>
      <point x="339" y="47" type="curve" smooth="yes"/>
      <point x="346" y="31"/>
      <point x="339" y="11"/>
      <point x="322" y="4" type="curve" smooth="yes"/>
      <point x="301" y="-6"/>
      <point x="271" y="-11"/>
      <point x="239" y="-11" type="curve" smooth="yes"/>
      <point x="160" y="-11"/>
      <point x="108" y="37"/>
      <point x="108" y="113" type="curve" smooth="yes"/>
      <point x="108" y="495" type="line" smooth="yes"/>
      <point x="108" y="513"/>
      <point x="123" y="528"/>
      <point x="141" y="528" type="curve" smooth="yes"/>
      <point x="159" y="528"/>
      <point x="174" y="513"/>
    </contour>
    <contour>
      <point x="53" y="402" type="curve" smooth="yes"/>
      <point x="299" y="402" type="line" smooth="yes"/>
      <point x="317" y="402"/>
      <point x="332" y="387"/>
      <point x="332" y="369" type="curve" smooth="yes"/>
      <point x="332" y="351"/>
      <point x="317" y="336"/>
      <point x="299" y="336" type="curve" smooth="yes"/>
      <point x="53" y="336" type="line" smooth="yes"/>
      <point x="35" y="336"/>
      <point x="20" y="351"/>
      <point x="20" y="369" type="curve" smooth="yes"/>
      <point x="20" y="387"/>
      <point x="35" y="402"/>
    </contour>
  </outline>
</glyph>
<glyph name="u" format="1">
  <advance width="480"/>
  <unicode hex="0075"/>
  <outline>
    <contour>
      <point x="410" y="369" type="curve" smooth="yes"/>
      <point x="410" y="27" type="line" smooth="yes"/>
      <point x="410" y="9"/>
      <point x="395" y="-6"/>
      <point x="377" y="-6" type="curve" smooth="yes"/>
      <point x="359" y="-6"/>
      <point x="344" y="9"/>
      <point x="344" y="27" type="curve" smooth="yes"/>
      <point x="344" y="369" type="line" smooth="yes"/>
      <point x="344" y="387"/>
      <point x="359" y="402"/>
      <point x="377" y="402" type="curve" smooth="yes"/>
      <point x="395" y="402"/>
      <point x="410" y="387"/>
    </contour>
    <contour>
      <point x="135" y="369" type="curve" smooth="yes"/>
      <point x="135" y="160" type="line" smooth="yes"/>
      <point x="135" y="89"/>
      <point x="163" y="55"/>
      <point x="209" y="55" type="curve" smooth="yes"/>
      <point x="261" y="55"/>
      <point x="312" y="105"/>
      <point x="345" y="153" type="curve" smooth="yes"/>
      <point x="355" y="167"/>
      <point x="376" y="171"/>
      <point x="391" y="161" type="curve" smooth="yes"/>
      <point x="405" y="151"/>
      <point x="409" y="130"/>
      <point x="399" y="115" type="curve" smooth="yes"/>
      <point x="354" y="49"/>
      <point x="279" y="-11"/>
      <point x="209" y="-11" type="curve" smooth="yes"/>
      <point x="133" y="-11"/>
      <point x="69" y="27"/>
      <point x="69" y="160" type="curve" smooth="yes"/>
      <point x="69" y="369" type="line" smooth="yes"/>
      <point x="69" y="387"/>
      <point x="84" y="402"/>
      <point x="102" y="402" type="curve" smooth="yes"/>
      <point x="120" y="402"/>
      <point x="135" y="387"/>
    </contour>
  </outline>
</glyph>
<glyph name="v" format="1">
  <advance width="452"/>
  <unicode hex="0076"/>
  <outline>
    <contour>
      <point x="84" y="382" type="curve" smooth="yes"/>
      <point x="148" y="231"/>
      <point x="206" y="120"/>
      <point x="258" y="35" type="curve"/>
      <point x="230" y="51" type="line"/>
      <point x="233" y="51" type="line"/>
      <point x="205" y="36" type="line"/>
      <point x="258" y="120"/>
      <point x="327" y="273"/>
      <point x="369" y="381" type="curve" smooth="yes"/>
      <point x="376" y="398"/>
      <point x="395" y="406"/>
      <point x="412" y="400" type="curve" smooth="yes"/>
      <point x="429" y="393"/>
      <point x="437" y="374"/>
      <point x="431" y="357" type="curve" smooth="yes"/>
      <point x="387" y="245"/>
      <point x="316" y="88"/>
      <point x="261" y="0" type="curve" smooth="yes"/>
      <point x="256" y="-8"/>
      <point x="243" y="-15"/>
      <point x="233" y="-15" type="curve" smooth="yes"/>
      <point x="230" y="-15" type="line" smooth="yes"/>
      <point x="220" y="-15"/>
      <point x="207" y="-8"/>
      <point x="202" y="1" type="curve" smooth="yes"/>
      <point x="148" y="88"/>
      <point x="88" y="201"/>
      <point x="24" y="356" type="curve" smooth="yes"/>
      <point x="17" y="373"/>
      <point x="25" y="393"/>
      <point x="41" y="399" type="curve" smooth="yes"/>
      <point x="58" y="406"/>
      <point x="78" y="398"/>
    </contour>
  </outline>
</glyph>
<glyph name="w" format="1">
  <advance width="722"/>
  <unicode hex="0077"/>
  <outline>
    <contour>
      <point x="106" y="378" type="curve" smooth="yes"/>
      <point x="154" y="228"/>
      <point x="203" y="119"/>
      <point x="251" y="34" type="curve"/>
      <point x="222" y="51" type="line"/>
      <point x="224" y="51" type="line"/>
      <point x="195" y="34" type="line"/>
      <point x="241" y="118"/>
      <point x="299" y="269"/>
      <point x="326" y="375" type="curve" smooth="yes"/>
      <point x="330" y="392"/>
      <point x="349" y="403"/>
      <point x="366" y="399" type="curve" smooth="yes"/>
      <point x="383" y="395"/>
      <point x="394" y="376"/>
      <point x="390" y="359" type="curve" smooth="yes"/>
      <point x="361" y="247"/>
      <point x="301" y="90"/>
      <point x="253" y="2" type="curve" smooth="yes"/>
      <point x="248" y="-7"/>
      <point x="235" y="-15"/>
      <point x="224" y="-15" type="curve" smooth="yes"/>
      <point x="222" y="-15" type="line" smooth="yes"/>
      <point x="211" y="-15"/>
      <point x="199" y="-8"/>
      <point x="193" y="2" type="curve" smooth="yes"/>
      <point x="143" y="89"/>
      <point x="92" y="202"/>
      <point x="44" y="358" type="curve" smooth="yes"/>
      <point x="38" y="375"/>
      <point x="48" y="394"/>
      <point x="65" y="399" type="curve" smooth="yes"/>
      <point x="82" y="405"/>
      <point x="101" y="395"/>
    </contour>
    <contour>
      <point x="397" y="377" type="curve" smooth="yes"/>
      <point x="443" y="226"/>
      <point x="489" y="117"/>
      <point x="535" y="33" type="curve"/>
      <point x="506" y="50" type="line"/>
      <point x="508" y="50" type="line"/>
      <point x="479" y="34" type="line"/>
      <point x="528" y="118"/>
      <point x="588" y="268"/>
      <point x="615" y="375" type="curve" smooth="yes"/>
      <point x="619" y="392"/>
      <point x="638" y="403"/>
      <point x="655" y="399" type="curve" smooth="yes"/>
      <point x="672" y="395"/>
      <point x="683" y="376"/>
      <point x="679" y="359" type="curve" smooth="yes"/>
      <point x="650" y="246"/>
      <point x="588" y="88"/>
      <point x="537" y="0" type="curve" smooth="yes"/>
      <point x="531" y="-9"/>
      <point x="518" y="-16"/>
      <point x="508" y="-16" type="curve" smooth="yes"/>
      <point x="506" y="-16" type="line" smooth="yes"/>
      <point x="495" y="-16"/>
      <point x="482" y="-8"/>
      <point x="477" y="1" type="curve" smooth="yes"/>
      <point x="429" y="89"/>
      <point x="381" y="202"/>
      <point x="333" y="357" type="curve" smooth="yes"/>
      <point x="328" y="374"/>
      <point x="338" y="393"/>
      <point x="355" y="399" type="curve" smooth="yes"/>
      <point x="372" y="404"/>
      <point x="391" y="394"/>
    </contour>
  </outline>
</glyph>
<glyph name="x" format="1">
  <advance width="401"/>
  <unicode hex="0078"/>
  <outline>
    <contour>
      <point x="38" y="49" type="curve" smooth="yes"/>
      <point x="102" y="122"/>
      <point x="236" y="290"/>
      <point x="305" y="388" type="curve" smooth="yes"/>
      <point x="315" y="402"/>
      <point x="336" y="406"/>
      <point x="351" y="396" type="curve" smooth="yes"/>
      <point x="365" y="386"/>
      <point x="369" y="365"/>
      <point x="359" y="350" type="curve" smooth="yes"/>
      <point x="290" y="250"/>
      <point x="152" y="80"/>
      <point x="88" y="5" type="curve" smooth="yes"/>
      <point x="76" y="-8"/>
      <point x="55" y="-10"/>
      <point x="41" y="2" type="curve" smooth="yes"/>
      <point x="28" y="14"/>
      <point x="26" y="35"/>
    </contour>
    <contour>
      <point x="101" y="389" type="curve" smooth="yes"/>
      <point x="168" y="301"/>
      <point x="294" y="150"/>
      <point x="368" y="46" type="curve" smooth="yes"/>
      <point x="378" y="32"/>
      <point x="375" y="10"/>
      <point x="360" y="0" type="curve" smooth="yes"/>
      <point x="346" y="-10"/>
      <point x="324" y="-7"/>
      <point x="314" y="8" type="curve" smooth="yes"/>
      <point x="240" y="112"/>
      <point x="116" y="261"/>
      <point x="49" y="349" type="curve" smooth="yes"/>
      <point x="38" y="363"/>
      <point x="41" y="384"/>
      <point x="55" y="395" type="curve" smooth="yes"/>
      <point x="69" y="406"/>
      <point x="90" y="403"/>
    </contour>
  </outline>
</glyph>
<glyph name="y" format="1">
  <advance width="493"/>
  <unicode hex="0079"/>
  <outline>
    <contour>
      <point x="116" y="369" type="curve" smooth="yes"/>
      <point x="170" y="220"/>
      <point x="229" y="107"/>
      <point x="290" y="22" type="curve"/>
      <point x="263" y="36" type="line"/>
      <point x="266" y="36" type="line"/>
      <point x="237" y="19" type="line"/>
      <point x="282" y="103"/>
      <point x="335" y="248"/>
      <point x="367" y="366" type="curve" smooth="yes"/>
      <point x="372" y="383"/>
      <point x="391" y="394"/>
      <point x="408" y="389" type="curve" smooth="yes"/>
      <point x="425" y="384"/>
      <point x="436" y="365"/>
      <point x="431" y="348" type="curve" smooth="yes"/>
      <point x="397" y="226"/>
      <point x="342" y="75"/>
      <point x="295" y="-13" type="curve" smooth="yes"/>
      <point x="290" y="-22"/>
      <point x="277" y="-30"/>
      <point x="266" y="-30" type="curve" smooth="yes"/>
      <point x="263" y="-30" type="line" smooth="yes"/>
      <point x="254" y="-30"/>
      <point x="242" y="-24"/>
      <point x="236" y="-16" type="curve" smooth="yes"/>
      <point x="173" y="73"/>
      <point x="110" y="190"/>
      <point x="54" y="347" type="curve" smooth="yes"/>
      <point x="48" y="364"/>
      <point x="57" y="383"/>
      <point x="74" y="389" type="curve" smooth="yes"/>
      <point x="91" y="395"/>
      <point x="110" y="386"/>
    </contour>
    <contour>
      <point x="64" y="-127" type="curve" smooth="yes"/>
      <point x="137" y="-127"/>
      <point x="196" y="-78"/>
      <point x="235" y="13" type="curve" smooth="yes"/>
      <point x="241" y="29"/>
      <point x="261" y="37"/>
      <point x="278" y="30" type="curve" smooth="yes"/>
      <point x="294" y="24"/>
      <point x="302" y="4"/>
      <point x="295" y="-13" type="curve" smooth="yes"/>
      <point x="244" y="-136"/>
      <point x="159" y="-193"/>
      <point x="64" y="-193" type="curve" smooth="yes"/>
      <point x="46" y="-193"/>
      <point x="31" y="-178"/>
      <point x="31" y="-160" type="curve" smooth="yes"/>
      <point x="31" y="-142"/>
      <point x="46" y="-127"/>
    </contour>
  </outline>
</glyph>
<glyph name="z" format="1">
  <advance width="454"/>
  <unicode hex="007A"/>
  <outline>
    <contour>
      <point x="361" y="336" type="curve" smooth="yes"/>
      <point x="90" y="336" type="line" smooth="yes"/>
      <point x="72" y="336"/>
      <point x="57" y="351"/>
      <point x="57" y="369" type="curve" smooth="yes"/>
      <point x="57" y="387"/>
      <point x="72" y="402"/>
      <point x="90" y="402" type="curve" smooth="yes"/>
      <point x="361" y="402" type="line" smooth="yes"/>
      <point x="379" y="402"/>
      <point x="394" y="387"/>
      <point x="394" y="369" type="curve" smooth="yes"/>
      <point x="394" y="351"/>
      <point x="379" y="336"/>
    </contour>
    <contour>
      <point x="80" y="60" type="curve" smooth="yes"/>
      <point x="378" y="60" type="line" smooth="yes"/>
      <point x="396" y="60"/>
      <point x="411" y="45"/>
      <point x="411" y="27" type="curve" smooth="yes"/>
      <point x="411" y="9"/>
      <point x="396" y="-6"/>
      <point x="378" y="-6" type="curve" smooth="yes"/>
      <point x="80" y="-6" type="line" smooth="yes"/>
      <point x="62" y="-6"/>
      <point x="47" y="9"/>
      <point x="47" y="27" type="curve" smooth="yes"/>
      <point x="47" y="45"/>
      <point x="62" y="60"/>
    </contour>
    <contour>
      <point x="392" y="347" type="curve" smooth="yes"/>
      <point x="105" y="13" type="line" smooth="yes"/>
      <point x="93" y="0"/>
      <point x="72" y="-2"/>
      <point x="58" y="10" type="curve" smooth="yes"/>
      <point x="45" y="22"/>
      <point x="43" y="43"/>
      <point x="55" y="57" type="curve" smooth="yes"/>
      <point x="342" y="391" type="line" smooth="yes"/>
      <point x="354" y="404"/>
      <point x="375" y="406"/>
      <point x="389" y="394" type="curve" smooth="yes"/>
      <point x="402" y="382"/>
      <point x="404" y="361"/>
    </contour>
  </outline>
</glyph>
<glyph name="dieresis" format="1">
  <advance width="500"/>
  <unicode hex="00A8"/>
  <outline>
    <contour>
      <point x="193" y="575" type="curve" smooth="yes"/>
      <point x="193" y="564"/>
      <point x="193" y="541"/>
      <point x="192" y="527" type="curve" smooth="yes"/>
      <point x="191" y="510"/>
      <point x="174" y="496"/>
      <point x="156" y="497" type="curve" smooth="yes"/>
      <point x="139" y="498"/>
      <point x="125" y="515"/>
      <point x="126" y="533" type="curve" smooth="yes"/>
      <point x="127" y="545"/>
      <point x="127" y="566"/>
      <point x="127" y="575" type="curve" smooth="yes"/>
      <point x="127" y="593"/>
      <point x="142" y="608"/>
      <point x="160" y="608" type="curve" smooth="yes"/>
      <point x="178" y="608"/>
      <point x="193" y="593"/>
    </contour>
    <contour>
      <point x="366" y="578" type="curve" smooth="yes"/>
      <point x="367" y="566"/>
      <point x="366" y="543"/>
      <point x="365" y="528" type="curve" smooth="yes"/>
      <point x="364" y="510"/>
      <point x="347" y="496"/>
      <point x="330" y="497" type="curve" smooth="yes"/>
      <point x="312" y="498"/>
      <point x="298" y="515"/>
      <point x="299" y="532" type="curve" smooth="yes"/>
      <point x="300" y="545"/>
      <point x="301" y="562"/>
      <point x="300" y="572" type="curve" smooth="yes"/>
      <point x="299" y="590"/>
      <point x="312" y="606"/>
      <point x="330" y="608" type="curve" smooth="yes"/>
      <point x="348" y="609"/>
      <point x="364" y="596"/>
    </contour>
  </outline>
</glyph>
<glyph name="macron" format="1">
  <advance width="500"/>
  <unicode hex="00AF"/>
  <outline>
    <contour>
      <point x="355" y="505" type="curve" smooth="yes"/>
      <point x="146" y="505" type="line" smooth="yes"/>
      <point x="128" y="505"/>
      <point x="113" y="520"/>
      <point x="113" y="538" type="curve" smooth="yes"/>
      <point x="113" y="556"/>
      <point x="128" y="571"/>
      <point x="146" y="571" type="curve" smooth="yes"/>
      <point x="355" y="571" type="line" smooth="yes"/>
      <point x="373" y="571"/>
      <point x="388" y="556"/>
      <point x="388" y="538" type="curve" smooth="yes"/>
      <point x="388" y="520"/>
      <point x="373" y="505"/>
    </contour>
  </outline>
</glyph>
<glyph name="acute" format="1">
  <advance width="500"/>
  <unicode hex="00B4"/>
  <outline>
    <contour>
      <point x="309" y="568" type="curve" smooth="yes"/>
      <point x="277" y="534"/>
      <point x="258" y="512"/>
      <point x="239" y="482" type="curve" smooth="yes"/>
      <point x="229" y="467"/>
      <point x="208" y="463"/>
      <point x="193" y="472" type="curve" smooth="yes"/>
      <point x="178" y="482"/>
      <point x="174" y="503"/>
      <point x="183" y="518" type="curve" smooth="yes"/>
      <point x="204" y="550"/>
      <point x="225" y="576"/>
      <point x="261" y="614" type="curve" smooth="yes"/>
      <point x="273" y="627"/>
      <point x="295" y="627"/>
      <point x="308" y="615" type="curve" smooth="yes"/>
      <point x="321" y="603"/>
      <point x="321" y="581"/>
    </contour>
  </outline>
</glyph>
<glyph name="cedilla" format="1">
  <advance width="500"/>
  <unicode hex="00B8"/>
  <outline>
    <contour>
      <point x="317" y="-93" type="curve" smooth="yes"/>
      <point x="292" y="-119"/>
      <point x="266" y="-150"/>
      <point x="243" y="-174" type="curve" smooth="yes"/>
      <point x="231" y="-187"/>
      <point x="210" y="-188"/>
      <point x="197" y="-176" type="curve" smooth="yes"/>
      <point x="184" y="-164"/>
      <point x="183" y="-143"/>
      <point x="195" y="-130" type="curve" smooth="yes"/>
      <point x="218" y="-104"/>
      <point x="244" y="-73"/>
      <point x="269" y="-47" type="curve" smooth="yes"/>
      <point x="282" y="-34"/>
      <point x="303" y="-34"/>
      <point x="316" y="-46" type="curve" smooth="yes"/>
      <point x="329" y="-59"/>
      <point x="329" y="-80"/>
    </contour>
  </outline>
</glyph>
<glyph name="lslash" format="1">
  <advance width="242"/>
  <unicode hex="0142"/>
  <outline>
    <contour>
      <point x="20" y="233" type="curve" smooth="yes"/>
      <point x="196" y="354" type="line" smooth="yes"/>
      <point x="211" y="364"/>
      <point x="232" y="360"/>
      <point x="242" y="346" type="curve" smooth="yes"/>
      <point x="252" y="331"/>
      <point x="248" y="310"/>
      <point x="234" y="300" type="curve" smooth="yes"/>
      <point x="58" y="179" type="line" smooth="yes"/>
      <point x="43" y="169"/>
      <point x="22" y="173"/>
      <point x="12" y="187" type="curve" smooth="yes"/>
      <point x="2" y="202"/>
      <point x="6" y="223"/>
    </contour>
    <component base="l"/>
    <component base="l"/>
  </outline>
</glyph>
<glyph name="circumflex" format="1">
  <advance width="500"/>
  <unicode hex="02C6"/>
  <outline>
    <contour>
      <point x="271" y="584" type="curve" smooth="yes"/>
      <point x="246" y="554"/>
      <point x="207" y="511"/>
      <point x="180" y="485" type="curve" smooth="yes"/>
      <point x="168" y="472"/>
      <point x="146" y="472"/>
      <point x="134" y="485" type="curve" smooth="yes"/>
      <point x="121" y="497"/>
      <point x="121" y="519"/>
      <point x="134" y="531" type="curve" smooth="yes"/>
      <point x="159" y="557"/>
      <point x="196" y="596"/>
      <point x="219" y="626" type="curve" smooth="yes"/>
      <point x="230" y="640"/>
      <point x="252" y="642"/>
      <point x="266" y="631" type="curve" smooth="yes"/>
      <point x="280" y="620"/>
      <point x="282" y="598"/>
    </contour>
    <contour>
      <point x="316" y="485" type="curve" smooth="yes"/>
      <point x="289" y="512"/>
      <point x="249" y="554"/>
      <point x="225" y="585" type="curve" smooth="yes"/>
      <point x="214" y="599"/>
      <point x="217" y="620"/>
      <point x="231" y="631" type="curve" smooth="yes"/>
      <point x="245" y="642"/>
      <point x="266" y="639"/>
      <point x="277" y="625" type="curve" smooth="yes"/>
      <point x="299" y="596"/>
      <point x="337" y="556"/>
      <point x="362" y="531" type="curve" smooth="yes"/>
      <point x="375" y="519"/>
      <point x="375" y="497"/>
      <point x="362" y="485" type="curve" smooth="yes"/>
      <point x="350" y="472"/>
      <point x="328" y="472"/>
    </contour>
  </outline>
</glyph>
<glyph name="caron" format="1">
  <advance width="500"/>
  <unicode hex="02C7"/>
  <outline>
    <contour>
      <point x="180" y="618" type="curve" smooth="yes"/>
      <point x="207" y="592"/>
      <point x="246" y="549"/>
      <point x="271" y="519" type="curve" smooth="yes"/>
      <point x="282" y="505"/>
      <point x="280" y="483"/>
      <point x="266" y="472" type="curve" smooth="yes"/>
      <point x="252" y="461"/>
      <point x="230" y="463"/>
      <point x="219" y="477" type="curve" smooth="yes"/>
      <point x="196" y="507"/>
      <point x="159" y="546"/>
      <point x="134" y="572" type="curve" smooth="yes"/>
      <point x="121" y="584"/>
      <point x="121" y="606"/>
      <point x="134" y="618" type="curve" smooth="yes"/>
      <point x="146" y="631"/>
      <point x="168" y="631"/>
    </contour>
    <contour>
      <point x="225" y="518" type="curve" smooth="yes"/>
      <point x="249" y="549"/>
      <point x="289" y="591"/>
      <point x="316" y="618" type="curve" smooth="yes"/>
      <point x="328" y="631"/>
      <point x="350" y="631"/>
      <point x="362" y="618" type="curve" smooth="yes"/>
      <point x="375" y="606"/>
      <point x="375" y="584"/>
      <point x="362" y="572" type="curve" smooth="yes"/>
      <point x="337" y="547"/>
      <point x="299" y="507"/>
      <point x="277" y="478" type="curve" smooth="yes"/>
      <point x="266" y="464"/>
      <point x="245" y="461"/>
      <point x="231" y="472" type="curve" smooth="yes"/>
      <point x="217" y="483"/>
      <point x="214" y="504"/>
    </contour>
  </outline>
</glyph>
<glyph name="breve" format="1">
  <advance width="500"/>
  <unicode hex="02D8"/>
  <outline>
    <contour>
      <point x="173" y="590" type="curve" smooth="yes"/>
      <point x="192" y="563"/>
      <point x="220" y="543"/>
      <point x="252" y="543" type="curve" smooth="yes"/>
      <point x="287" y="543"/>
      <point x="310" y="562"/>
      <point x="327" y="589" type="curve" smooth="yes"/>
      <point x="337" y="604"/>
      <point x="358" y="608"/>
      <point x="373" y="599" type="curve" smooth="yes"/>
      <point x="388" y="589"/>
      <point x="392" y="568"/>
      <point x="383" y="553" type="curve" smooth="yes"/>
      <point x="352" y="506"/>
      <point x="311" y="477"/>
      <point x="252" y="477" type="curve" smooth="yes"/>
      <point x="200" y="477"/>
      <point x="150" y="507"/>
      <point x="119" y="552" type="curve" smooth="yes"/>
      <point x="109" y="567"/>
      <point x="113" y="588"/>
      <point x="127" y="598" type="curve" smooth="yes"/>
      <point x="142" y="608"/>
      <point x="163" y="604"/>
    </contour>
  </outline>
</glyph>
<glyph name="dotaccent" format="1">
  <advance width="500"/>
  <unicode hex="02D9"/>
  <outline>
    <contour>
      <point x="271" y="584" type="curve" smooth="yes"/>
      <point x="274" y="574"/>
      <point x="274" y="558"/>
      <point x="274" y="537" type="curve" smooth="yes"/>
      <point x="274" y="522"/>
      <point x="273" y="507"/>
      <point x="270" y="494" type="curve" smooth="yes"/>
      <point x="267" y="477"/>
      <point x="250" y="464"/>
      <point x="232" y="468" type="curve" smooth="yes"/>
      <point x="215" y="471"/>
      <point x="202" y="488"/>
      <point x="206" y="506" type="curve" smooth="yes"/>
      <point x="207" y="515"/>
      <point x="208" y="526"/>
      <point x="208" y="537" type="curve" smooth="yes"/>
      <point x="208" y="552"/>
      <point x="208" y="562"/>
      <point x="207" y="570" type="curve" smooth="yes"/>
      <point x="203" y="587"/>
      <point x="214" y="605"/>
      <point x="232" y="609" type="curve" smooth="yes"/>
      <point x="249" y="613"/>
      <point x="267" y="602"/>
    </contour>
  </outline>
</glyph>
<glyph name="ogonek" format="1">
  <advance width="500"/>
  <unicode hex="02DB"/>
  <outline>
    <contour>
      <point x="288" y="6" type="curve" smooth="yes"/>
      <point x="262" y="-25"/>
      <point x="251" y="-48"/>
      <point x="251" y="-72" type="curve" smooth="yes"/>
      <point x="251" y="-96"/>
      <point x="272" y="-112"/>
      <point x="304" y="-112" type="curve" smooth="yes"/>
      <point x="322" y="-112"/>
      <point x="337" y="-127"/>
      <point x="337" y="-145" type="curve" smooth="yes"/>
      <point x="337" y="-163"/>
      <point x="322" y="-178"/>
      <point x="304" y="-178" type="curve" smooth="yes"/>
      <point x="220" y="-178"/>
      <point x="185" y="-126"/>
      <point x="185" y="-72" type="curve" smooth="yes"/>
      <point x="185" y="-36"/>
      <point x="198" y="-1"/>
      <point x="236" y="48" type="curve" smooth="yes"/>
      <point x="247" y="62"/>
      <point x="269" y="64"/>
      <point x="283" y="53" type="curve" smooth="yes"/>
      <point x="297" y="42"/>
      <point x="299" y="20"/>
    </contour>
  </outline>
</glyph>
<glyph name="tilde" format="1">
  <advance width="500"/>
  <unicode hex="02DC"/>
  <outline>
    <contour>
      <point x="116" y="545" type="curve" smooth="yes"/>
      <point x="139" y="571"/>
      <point x="172" y="587"/>
      <point x="197" y="587" type="curve" smooth="yes"/>
      <point x="223" y="587"/>
      <point x="241" y="578"/>
      <point x="263" y="566" type="curve" smooth="yes"/>
      <point x="275" y="560"/>
      <point x="284" y="555"/>
      <point x="297" y="555" type="curve" smooth="yes"/>
      <point x="311" y="555"/>
      <point x="323" y="565"/>
      <point x="336" y="578" type="curve" smooth="yes"/>
      <point x="348" y="591"/>
      <point x="370" y="591"/>
      <point x="382" y="578" type="curve" smooth="yes"/>
      <point x="395" y="566"/>
      <point x="395" y="544"/>
      <point x="382" y="532" type="curve" smooth="yes"/>
      <point x="353" y="503"/>
      <point x="327" y="489"/>
      <point x="297" y="489" type="curve" smooth="yes"/>
      <point x="272" y="489"/>
      <point x="255" y="496"/>
      <point x="233" y="508" type="curve" smooth="yes"/>
      <point x="221" y="514"/>
      <point x="211" y="521"/>
      <point x="197" y="521" type="curve" smooth="yes"/>
      <point x="186" y="521"/>
      <point x="175" y="511"/>
      <point x="166" y="501" type="curve" smooth="yes"/>
      <point x="154" y="488"/>
      <point x="132" y="486"/>
      <point x="119" y="498" type="curve" smooth="yes"/>
      <point x="106" y="510"/>
      <point x="104" y="532"/>
    </contour>
  </outline>
</glyph>
<glyph name="hungarumlaut" format="1">
  <advance width="500"/>
  <unicode hex="02DD"/>
  <outline>
    <contour>
      <point x="227" y="593" type="curve" smooth="yes"/>
      <point x="206" y="560"/>
      <point x="183" y="515"/>
      <point x="172" y="487" type="curve" smooth="yes"/>
      <point x="165" y="470"/>
      <point x="145" y="462"/>
      <point x="129" y="468" type="curve" smooth="yes"/>
      <point x="112" y="475"/>
      <point x="104" y="495"/>
      <point x="110" y="511" type="curve" smooth="yes"/>
      <point x="123" y="543"/>
      <point x="148" y="592"/>
      <point x="171" y="629" type="curve" smooth="yes"/>
      <point x="181" y="644"/>
      <point x="201" y="648"/>
      <point x="217" y="639" type="curve" smooth="yes"/>
      <point x="232" y="629"/>
      <point x="236" y="609"/>
    </contour>
    <contour>
      <point x="392" y="593" type="curve" smooth="yes"/>
      <point x="371" y="560"/>
      <point x="348" y="515"/>
      <point x="337" y="487" type="curve" smooth="yes"/>
      <point x="330" y="470"/>
      <point x="310" y="462"/>
      <point x="294" y="468" type="curve" smooth="yes"/>
      <point x="277" y="475"/>
      <point x="269" y="495"/>
      <point x="275" y="511" type="curve" smooth="yes"/>
      <point x="288" y="543"/>
      <point x="313" y="592"/>
      <point x="336" y="629" type="curve" smooth="yes"/>
      <point x="346" y="644"/>
      <point x="366" y="648"/>
      <point x="382" y="639" type="curve" smooth="yes"/>
      <point x="397" y="629"/>
      <point x="401" y="609"/>
    </contour>
  </outline>
</glyph>
<glyph name="knAnusvara" format="1">
  <advance width="564"/>
  <unicode hex="0C82"/>
  <outline>
    <contour>
      <point x="52" y="224" type="curve"/>
      <point x="52" y="347"/>
      <point x="154" y="456"/>
      <point x="283" y="456" type="curve" smooth="yes"/>
      <point x="411" y="456"/>
      <point x="512" y="344"/>
      <point x="512" y="224" type="curve" smooth="yes"/>
      <point x="512" y="101"/>
      <point x="413" y="-10"/>
      <point x="283" y="-10" type="curve" smooth="yes"/>
      <point x="151" y="-10"/>
      <point x="52" y="100"/>
    </contour>
    <contour>
      <point x="118" y="224" type="curve" smooth="yes"/>
      <point x="118" y="136"/>
      <point x="189" y="56"/>
      <point x="283" y="56" type="curve" smooth="yes"/>
      <point x="377" y="56"/>
      <point x="446" y="137"/>
      <point x="446" y="224" type="curve" smooth="yes"/>
      <point x="446" y="310"/>
      <point x="375" y="390"/>
      <point x="283" y="390" type="curve" smooth="yes"/>
      <point x="190" y="390"/>
      <point x="118" y="312"/>
    </contour>
  </outline>
</glyph>
<glyph name="knVisarga" format="1">
  <advance width="336"/>
  <unicode hex="0C83"/>
  <outline>
    <contour>
      <point x="168" y="486" type="curve" smooth="yes"/>
      <point x="240" y="486"/>
      <point x="285" y="429"/>
      <point x="285" y="372" type="curve" smooth="yes"/>
      <point x="285" y="309"/>
      <point x="240" y="258"/>
      <point x="168" y="258" type="curve" smooth="yes"/>
      <point x="96" y="258"/>
      <point x="51" y="309"/>
      <point x="51" y="372" type="curve"/>
      <point x="51" y="428"/>
      <point x="99" y="486"/>
    </contour>
    <contour>
      <point x="168" y="223" type="curve" smooth="yes"/>
      <point x="240" y="223"/>
      <point x="285" y="167"/>
      <point x="285" y="108" type="curve" smooth="yes"/>
      <point x="285" y="48"/>
      <point x="240" y="-5"/>
      <point x="168" y="-5" type="curve" smooth="yes"/>
      <point x="96" y="-5"/>
      <point x="51" y="48"/>
      <point x="51" y="109" type="curve"/>
      <point x="51" y="165"/>
      <point x="99" y="223"/>
    </contour>
    <contour>
      <point x="168" y="420" type="curve" smooth="yes"/>
      <point x="139" y="420"/>
      <point x="117" y="396"/>
      <point x="117" y="372" type="curve" smooth="yes"/>
      <point x="117" y="345"/>
      <point x="138" y="324"/>
      <point x="168" y="324" type="curve" smooth="yes"/>
      <point x="198" y="324"/>
      <point x="219" y="345"/>
      <point x="219" y="372" type="curve" smooth="yes"/>
      <point x="219" y="397"/>
      <point x="198" y="420"/>
    </contour>
    <contour>
      <point x="168" y="157" type="curve" smooth="yes"/>
      <point x="139" y="157"/>
      <point x="117" y="133"/>
      <point x="117" y="109" type="curve" smooth="yes"/>
      <point x="117" y="82"/>
      <point x="138" y="61"/>
      <point x="168" y="61" type="curve" smooth="yes"/>
      <point x="198" y="61"/>
      <point x="219" y="82"/>
      <point x="219" y="108" type="curve" smooth="yes"/>
      <point x="219" y="134"/>
      <point x="198" y="157"/>
    </contour>
  </outline>
</glyph>
<glyph name="knA" format="1">
  <advance width="766"/>
  <unicode hex="0C85"/>
  <outline>
    <contour>
      <point x="334" y="241" type="curve" smooth="yes"/>
      <point x="546" y="241" type="line" smooth="yes"/>
      <point x="564" y="241"/>
      <point x="579" y="226"/>
      <point x="579" y="208" type="curve" smooth="yes"/>
      <point x="579" y="190"/>
      <point x="564" y="175"/>
      <point x="546" y="175" type="curve" smooth="yes"/>
      <point x="334" y="175" type="line" smooth="yes"/>
      <point x="316" y="175"/>
      <point x="301" y="190"/>
      <point x="301" y="208" type="curve" smooth="yes"/>
      <point x="301" y="226"/>
      <point x="316" y="241"/>
    </contour>
    <contour>
      <point x="135" y="366" type="curve" smooth="yes"/>
      <point x="158" y="334"/>
      <point x="186" y="313"/>
      <point x="217" y="313" type="curve" smooth="yes"/>
      <point x="247" y="313"/>
      <point x="271" y="331"/>
      <point x="271" y="363" type="curve" smooth="yes"/>
      <point x="271" y="394"/>
      <point x="250" y="419"/>
      <point x="215" y="419" type="curve" smooth="yes"/>
      <point x="157" y="419"/>
      <point x="124" y="329"/>
      <point x="124" y="253" type="curve" smooth="yes"/>
      <point x="124" y="144"/>
      <point x="216" y="60"/>
      <point x="372" y="60" type="curve" smooth="yes"/>
      <point x="560" y="60"/>
      <point x="646" y="146"/>
      <point x="646" y="263" type="curve" smooth="yes"/>
      <point x="646" y="352"/>
      <point x="601" y="408"/>
      <point x="553" y="408" type="curve" smooth="yes"/>
      <point x="515" y="408"/>
      <point x="495" y="378"/>
      <point x="495" y="347" type="curve" smooth="yes"/>
      <point x="495" y="306"/>
      <point x="525" y="271"/>
      <point x="562" y="239" type="curve" smooth="yes"/>
      <point x="575" y="227"/>
      <point x="577" y="206"/>
      <point x="565" y="192" type="curve" smooth="yes"/>
      <point x="553" y="179"/>
      <point x="532" y="177"/>
      <point x="518" y="189" type="curve" smooth="yes"/>
      <point x="465" y="235"/>
      <point x="429" y="290"/>
      <point x="429" y="347" type="curve" smooth="yes"/>
      <point x="429" y="414"/>
      <point x="473" y="474"/>
      <point x="553" y="474" type="curve" smooth="yes"/>
      <point x="623" y="474"/>
      <point x="712" y="416"/>
      <point x="712" y="263" type="curve" smooth="yes"/>
      <point x="712" y="118"/>
      <point x="622" y="-6"/>
      <point x="372" y="-6" type="curve" smooth="yes"/>
      <point x="162" y="-6"/>
      <point x="58" y="116"/>
      <point x="58" y="253" type="curve"/>
      <point x="58" y="383"/>
      <point x="135" y="485"/>
      <point x="215" y="485" type="curve" smooth="yes"/>
      <point x="292" y="485"/>
      <point x="337" y="430"/>
      <point x="337" y="363" type="curve" smooth="yes"/>
      <point x="337" y="293"/>
      <point x="285" y="247"/>
      <point x="217" y="247" type="curve" smooth="yes"/>
      <point x="168" y="247"/>
      <point x="120" y="274"/>
      <point x="81" y="326" type="curve" smooth="yes"/>
      <point x="71" y="341"/>
      <point x="74" y="362"/>
      <point x="88" y="373" type="curve" smooth="yes"/>
      <point x="103" y="383"/>
      <point x="124" y="380"/>
    </contour>
  </outline>
</glyph>
<glyph name="knAa" format="1">
  <advance width="760"/>
  <unicode hex="0C86"/>
  <outline>
    <contour>
      <point x="133" y="366" type="curve" smooth="yes"/>
      <point x="158" y="334"/>
      <point x="187" y="313"/>
      <point x="220" y="313" type="curve" smooth="yes"/>
      <point x="251" y="313"/>
      <point x="277" y="331"/>
      <point x="277" y="363" type="curve" smooth="yes"/>
      <point x="277" y="394"/>
      <point x="254" y="419"/>
      <point x="218" y="419" type="curve" smooth="yes"/>
      <point x="158" y="419"/>
      <point x="122" y="330"/>
      <point x="122" y="253" type="curve" smooth="yes"/>
      <point x="122" y="144"/>
      <point x="215" y="60"/>
      <point x="379" y="60" type="curve" smooth="yes"/>
      <point x="500" y="60"/>
      <point x="572" y="107"/>
      <point x="572" y="160" type="curve" smooth="yes"/>
      <point x="572" y="189"/>
      <point x="552" y="214"/>
      <point x="534" y="235" type="curve" smooth="yes"/>
      <point x="507" y="267"/>
      <point x="481" y="303"/>
      <point x="481" y="348" type="curve" smooth="yes"/>
      <point x="481" y="410"/>
      <point x="528" y="468"/>
      <point x="600" y="468" type="curve" smooth="yes"/>
      <point x="674" y="468"/>
      <point x="724" y="415"/>
      <point x="724" y="344" type="curve" smooth="yes"/>
      <point x="724" y="272"/>
      <point x="665" y="186"/>
      <point x="478" y="186" type="curve" smooth="yes"/>
      <point x="364" y="186" type="line" smooth="yes"/>
      <point x="346" y="186"/>
      <point x="331" y="201"/>
      <point x="331" y="219" type="curve" smooth="yes"/>
      <point x="331" y="237"/>
      <point x="346" y="252"/>
      <point x="364" y="252" type="curve" smooth="yes"/>
      <point x="478" y="252" type="line" smooth="yes"/>
      <point x="587" y="252"/>
      <point x="658" y="292"/>
      <point x="658" y="344" type="curve" smooth="yes"/>
      <point x="658" y="377"/>
      <point x="634" y="402"/>
      <point x="600" y="402" type="curve" smooth="yes"/>
      <point x="568" y="402"/>
      <point x="547" y="376"/>
      <point x="547" y="348" type="curve" smooth="yes"/>
      <point x="547" y="319"/>
      <point x="567" y="297"/>
      <point x="584" y="277" type="curve" smooth="yes"/>
      <point x="612" y="244"/>
      <point x="638" y="205"/>
      <point x="638" y="160" type="curve" smooth="yes"/>
      <point x="638" y="89"/>
      <point x="580" y="-6"/>
      <point x="379" y="-6" type="curve" smooth="yes"/>
      <point x="159" y="-6"/>
      <point x="56" y="116"/>
      <point x="56" y="253" type="curve"/>
      <point x="56" y="382"/>
      <point x="134" y="485"/>
      <point x="218" y="485" type="curve" smooth="yes"/>
      <point x="298" y="485"/>
      <point x="343" y="430"/>
      <point x="343" y="363" type="curve" smooth="yes"/>
      <point x="343" y="295"/>
      <point x="291" y="247"/>
      <point x="220" y="247" type="curve" smooth="yes"/>
      <point x="169" y="247"/>
      <point x="120" y="274"/>
      <point x="81" y="326" type="curve" smooth="yes"/>
      <point x="70" y="340"/>
      <point x="73" y="361"/>
      <point x="87" y="372" type="curve" smooth="yes"/>
      <point x="101" y="383"/>
      <point x="122" y="380"/>
    </contour>
  </outline>
</glyph>
<glyph name="knAa" format="1">
  <advance width="782"/>
  <unicode hex="0C86"/>
  <outline>
    <contour>
      <point x="138" y="362" type="curve" smooth="yes"/>
      <point x="163" y="328"/>
      <point x="194" y="310"/>
      <point x="233" y="310" type="curve" smooth="yes"/>
      <point x="268" y="310"/>
      <point x="297" y="335"/>
      <point x="297" y="369" type="curve" smooth="yes"/>
      <point x="297" y="403"/>
      <point x="271" y="430"/>
      <point x="230" y="430" type="curve" smooth="yes"/>
      <point x="163" y="430"/>
      <point x="131" y="339"/>
      <point x="131" y="259" type="curve" smooth="yes"/>
      <point x="131" y="147"/>
      <point x="223" y="60"/>
      <point x="388" y="60" type="curve" smooth="yes"/>
      <point x="510" y="60"/>
      <point x="581" y="109"/>
      <point x="581" y="163" type="curve" smooth="yes"/>
      <point x="581" y="193"/>
      <point x="561" y="219"/>
      <point x="543" y="241" type="curve" smooth="yes"/>
      <point x="516" y="274"/>
      <point x="490" y="318"/>
      <point x="490" y="363" type="curve" smooth="yes"/>
      <point x="490" y="426"/>
      <point x="538" y="483"/>
      <point x="610" y="483" type="curve" smooth="yes"/>
      <point x="684" y="483"/>
      <point x="735" y="425"/>
      <point x="735" y="349" type="curve" smooth="yes"/>
      <point x="735" y="276"/>
      <point x="684" y="191"/>
      <point x="497" y="191" type="curve" smooth="yes"/>
      <point x="383" y="191" type="line" smooth="yes"/>
      <point x="365" y="191"/>
      <point x="350" y="206"/>
      <point x="350" y="224" type="curve" smooth="yes"/>
      <point x="350" y="242"/>
      <point x="365" y="257"/>
      <point x="383" y="257" type="curve" smooth="yes"/>
      <point x="497" y="257" type="line" smooth="yes"/>
      <point x="606" y="257"/>
      <point x="669" y="296"/>
      <point x="669" y="349" type="curve" smooth="yes"/>
      <point x="669" y="385"/>
      <point x="648" y="417"/>
      <point x="610" y="417" type="curve" smooth="yes"/>
      <point x="578" y="417"/>
      <point x="556" y="392"/>
      <point x="556" y="363" type="curve" smooth="yes"/>
      <point x="556" y="332"/>
      <point x="576" y="304"/>
      <point x="593" y="283" type="curve" smooth="yes"/>
      <point x="621" y="249"/>
      <point x="647" y="209"/>
      <point x="647" y="163" type="curve" smooth="yes"/>
      <point x="647" y="91"/>
      <point x="588" y="-6"/>
      <point x="388" y="-6" type="curve" smooth="yes"/>
      <point x="169" y="-6"/>
      <point x="65" y="119"/>
      <point x="65" y="259" type="curve" smooth="yes"/>
      <point x="65" y="392"/>
      <point x="137" y="496"/>
      <point x="230" y="496" type="curve" smooth="yes"/>
      <point x="315" y="496"/>
      <point x="363" y="436"/>
      <point x="363" y="369" type="curve" smooth="yes"/>
      <point x="363" y="299"/>
      <point x="306" y="244"/>
      <point x="233" y="244" type="curve" smooth="yes"/>
      <point x="174" y="244"/>
      <point x="125" y="270"/>
      <point x="86" y="322" type="curve" smooth="yes"/>
      <point x="75" y="337"/>
      <point x="78" y="358"/>
      <point x="92" y="368" type="curve" smooth="yes"/>
      <point x="107" y="379"/>
      <point x="128" y="376"/>
    </contour>
  </outline>
</glyph>
<glyph name="knIi" format="1">
  <advance width="940"/>
  <unicode hex="0C88"/>
  <outline>
    <contour>
      <point x="125" y="222" type="curve" smooth="yes"/>
      <point x="125" y="347"/>
      <point x="232" y="470"/>
      <point x="367" y="470" type="curve" smooth="yes"/>
      <point x="503" y="470"/>
      <point x="608" y="345"/>
      <point x="608" y="222" type="curve" smooth="yes"/>
      <point x="608" y="86"/>
      <point x="512" y="-10"/>
      <point x="367" y="-10" type="curve" smooth="yes"/>
      <point x="222" y="-10"/>
      <point x="125" y="84"/>
    </contour>
    <contour>
      <point x="739" y="47" type="curve" smooth="yes"/>
      <point x="754" y="67"/>
      <point x="764" y="87"/>
      <point x="764" y="108" type="curve" smooth="yes"/>
      <point x="764" y="130"/>
      <point x="750" y="158"/>
      <point x="731" y="183" type="curve" smooth="yes"/>
      <point x="704" y="218"/>
      <point x="681" y="266"/>
      <point x="681" y="306" type="curve" smooth="yes"/>
      <point x="681" y="381"/>
      <point x="732" y="430"/>
      <point x="793" y="430" type="curve" smooth="yes"/>
      <point x="857" y="430"/>
      <point x="902" y="385"/>
      <point x="902" y="319" type="curve" smooth="yes"/>
      <point x="902" y="250"/>
      <point x="852" y="190"/>
      <point x="753" y="190" type="curve" smooth="yes"/>
      <point x="56" y="190" type="line" smooth="yes"/>
      <point x="38" y="190"/>
      <point x="23" y="205"/>
      <point x="23" y="223" type="curve" smooth="yes"/>
      <point x="23" y="241"/>
      <point x="38" y="256"/>
      <point x="56" y="256" type="curve" smooth="yes"/>
      <point x="753" y="256" type="line" smooth="yes"/>
      <point x="802" y="256"/>
      <point x="836" y="280"/>
      <point x="836" y="319" type="curve" smooth="yes"/>
      <point x="836" y="345"/>
      <point x="819" y="364"/>
      <point x="793" y="364" type="curve" smooth="yes"/>
      <point x="764" y="364"/>
      <point x="747" y="337"/>
      <point x="747" y="306" type="curve" smooth="yes"/>
      <point x="747" y="278"/>
      <point x="766" y="246"/>
      <point x="783" y="223" type="curve" smooth="yes"/>
      <point x="812" y="184"/>
      <point x="830" y="140"/>
      <point x="830" y="108" type="curve" smooth="yes"/>
      <point x="830" y="75"/>
      <point x="816" y="41"/>
      <point x="793" y="9" type="curve" smooth="yes"/>
      <point x="782" y="-6"/>
      <point x="761" y="-9"/>
      <point x="747" y="1" type="curve" smooth="yes"/>
      <point x="732" y="12"/>
      <point x="729" y="33"/>
    </contour>
    <contour>
      <point x="141" y="470" type="curve" smooth="yes"/>
      <point x="479" y="470" type="line" smooth="yes"/>
      <point x="538" y="470"/>
      <point x="573" y="490"/>
      <point x="599" y="532" type="curve" smooth="yes"/>
      <point x="608" y="547"/>
      <point x="629" y="552"/>
      <point x="644" y="543" type="curve" smooth="yes"/>
      <point x="659" y="534"/>
      <point x="664" y="513"/>
      <point x="655" y="498" type="curve" smooth="yes"/>
      <point x="617" y="436"/>
      <point x="566" y="404"/>
      <point x="479" y="404" type="curve" smooth="yes"/>
      <point x="141" y="404" type="line" smooth="yes"/>
      <point x="123" y="404"/>
      <point x="108" y="419"/>
      <point x="108" y="437" type="curve" smooth="yes"/>
      <point x="108" y="455"/>
      <point x="123" y="470"/>
    </contour>
    <contour>
      <point x="191" y="222" type="curve" smooth="yes"/>
      <point x="191" y="122"/>
      <point x="264" y="56"/>
      <point x="367" y="56" type="curve" smooth="yes"/>
      <point x="470" y="56"/>
      <point x="542" y="124"/>
      <point x="542" y="222" type="curve" smooth="yes"/>
      <point x="542" y="311"/>
      <point x="467" y="404"/>
      <point x="367" y="404" type="curve" smooth="yes"/>
      <point x="268" y="404"/>
      <point x="191" y="313"/>
    </contour>
  </outline>
</glyph>
<glyph name="knIi" format="1">
  <advance width="940"/>
  <unicode hex="0C88"/>
  <outline>
    <contour>
      <point x="125" y="222" type="curve" smooth="yes"/>
      <point x="125" y="347"/>
      <point x="232" y="470"/>
      <point x="367" y="470" type="curve" smooth="yes"/>
      <point x="503" y="470"/>
      <point x="608" y="345"/>
      <point x="608" y="222" type="curve" smooth="yes"/>
      <point x="608" y="86"/>
      <point x="522" y="-19"/>
      <point x="367" y="-19" type="curve" smooth="yes"/>
      <point x="212" y="-19"/>
      <point x="125" y="84"/>
    </contour>
    <contour>
      <point x="739" y="16" type="curve" smooth="yes"/>
      <point x="703" y="116"/>
      <point x="677" y="201"/>
      <point x="677" y="299" type="curve" smooth="yes"/>
      <point x="677" y="410"/>
      <point x="733" y="447"/>
      <point x="791" y="447" type="curve" smooth="yes"/>
      <point x="857" y="447"/>
      <point x="902" y="396"/>
      <point x="902" y="326" type="curve" smooth="yes"/>
      <point x="902" y="248"/>
      <point x="851" y="190"/>
      <point x="753" y="190" type="curve" smooth="yes"/>
      <point x="56" y="190" type="line" smooth="yes"/>
      <point x="38" y="190"/>
      <point x="23" y="205"/>
      <point x="23" y="223" type="curve" smooth="yes"/>
      <point x="23" y="241"/>
      <point x="38" y="256"/>
      <point x="56" y="256" type="curve" smooth="yes"/>
      <point x="753" y="256" type="line" smooth="yes"/>
      <point x="803" y="256"/>
      <point x="836" y="282"/>
      <point x="836" y="326" type="curve" smooth="yes"/>
      <point x="836" y="354"/>
      <point x="821" y="381"/>
      <point x="791" y="381" type="curve" smooth="yes"/>
      <point x="759" y="381"/>
      <point x="743" y="346"/>
      <point x="743" y="299" type="curve" smooth="yes"/>
      <point x="743" y="209"/>
      <point x="767" y="130"/>
      <point x="801" y="38" type="curve" smooth="yes"/>
      <point x="807" y="22"/>
      <point x="798" y="2"/>
      <point x="781" y="-4" type="curve" smooth="yes"/>
      <point x="765" y="-10"/>
      <point x="745" y="-1"/>
    </contour>
    <contour>
      <point x="141" y="470" type="curve" smooth="yes"/>
      <point x="479" y="470" type="line" smooth="yes"/>
      <point x="538" y="470"/>
      <point x="573" y="490"/>
      <point x="599" y="532" type="curve" smooth="yes"/>
      <point x="608" y="547"/>
      <point x="629" y="552"/>
      <point x="644" y="543" type="curve" smooth="yes"/>
      <point x="659" y="534"/>
      <point x="664" y="513"/>
      <point x="655" y="498" type="curve" smooth="yes"/>
      <point x="617" y="436"/>
      <point x="566" y="404"/>
      <point x="479" y="404" type="curve" smooth="yes"/>
      <point x="141" y="404" type="line" smooth="yes"/>
      <point x="123" y="404"/>
      <point x="108" y="419"/>
      <point x="108" y="437" type="curve" smooth="yes"/>
      <point x="108" y="455"/>
      <point x="123" y="470"/>
    </contour>
    <contour>
      <point x="191" y="222" type="curve" smooth="yes"/>
      <point x="191" y="122"/>
      <point x="254" y="47"/>
      <point x="367" y="47" type="curve" smooth="yes"/>
      <point x="480" y="47"/>
      <point x="542" y="124"/>
      <point x="542" y="222" type="curve" smooth="yes"/>
      <point x="542" y="311"/>
      <point x="467" y="404"/>
      <point x="367" y="404" type="curve" smooth="yes"/>
      <point x="268" y="404"/>
      <point x="191" y="313"/>
    </contour>
  </outline>
</glyph>
<glyph name="knUu" format="1">
  <advance width="1286"/>
  <unicode hex="0C8A"/>
  <outline>
    <contour>
      <point x="153" y="367" type="curve" smooth="yes"/>
      <point x="175" y="332"/>
      <point x="201" y="310"/>
      <point x="235" y="310" type="curve" smooth="yes"/>
      <point x="268" y="310"/>
      <point x="293" y="336"/>
      <point x="293" y="369" type="curve" smooth="yes"/>
      <point x="293" y="400"/>
      <point x="272" y="430"/>
      <point x="238" y="430" type="curve" smooth="yes"/>
      <point x="184" y="430"/>
      <point x="145" y="349"/>
      <point x="145" y="246" type="curve" smooth="yes"/>
      <point x="145" y="142"/>
      <point x="200" y="60"/>
      <point x="274" y="60" type="curve" smooth="yes"/>
      <point x="300" y="60"/>
      <point x="323" y="69"/>
      <point x="342" y="87" type="curve" smooth="yes"/>
      <point x="366" y="112"/>
      <point x="382" y="166"/>
      <point x="396" y="248" type="curve" smooth="yes"/>
      <point x="426" y="413"/>
      <point x="468" y="448"/>
      <point x="531" y="448" type="curve" smooth="yes"/>
      <point x="606" y="448"/>
      <point x="653" y="409"/>
      <point x="664" y="222" type="curve" smooth="yes"/>
      <point x="668" y="145"/>
      <point x="682" y="102"/>
      <point x="703" y="80" type="curve" smooth="yes"/>
      <point x="721" y="63"/>
      <point x="735" y="56"/>
      <point x="759" y="56" type="curve" smooth="yes"/>
      <point x="791" y="56"/>
      <point x="815" y="82"/>
      <point x="815" y="125" type="curve" smooth="yes"/>
      <point x="815" y="188"/>
      <point x="789" y="255"/>
      <point x="789" y="325" type="curve" smooth="yes"/>
      <point x="789" y="402"/>
      <point x="843" y="470"/>
      <point x="932" y="470" type="curve" smooth="yes"/>
      <point x="1095" y="470"/>
      <point x="1216" y="365"/>
      <point x="1216" y="160" type="curve" smooth="yes"/>
      <point x="1216" y="39"/>
      <point x="1150" y="-21"/>
      <point x="1073" y="-21" type="curve" smooth="yes"/>
      <point x="992" y="-21"/>
      <point x="948" y="37"/>
      <point x="947" y="99" type="curve" smooth="yes"/>
      <point x="946" y="169"/>
      <point x="996" y="239"/>
      <point x="1094" y="239" type="curve" smooth="yes"/>
      <point x="1126" y="239"/>
      <point x="1160" y="234"/>
      <point x="1188" y="225" type="curve" smooth="yes"/>
      <point x="1205" y="220"/>
      <point x="1215" y="201"/>
      <point x="1209" y="184" type="curve" smooth="yes"/>
      <point x="1204" y="167"/>
      <point x="1185" y="157"/>
      <point x="1168" y="163" type="curve" smooth="yes"/>
      <point x="1146" y="170"/>
      <point x="1120" y="173"/>
      <point x="1094" y="173" type="curve" smooth="yes"/>
      <point x="1044" y="173"/>
      <point x="1012" y="139"/>
      <point x="1013" y="101" type="curve" smooth="yes"/>
      <point x="1014" y="71"/>
      <point x="1036" y="45"/>
      <point x="1073" y="45" type="curve" smooth="yes"/>
      <point x="1122" y="45"/>
      <point x="1150" y="95"/>
      <point x="1150" y="160" type="curve" smooth="yes"/>
      <point x="1150" y="317"/>
      <point x="1061" y="404"/>
      <point x="932" y="404" type="curve" smooth="yes"/>
      <point x="883" y="404"/>
      <point x="855" y="366"/>
      <point x="855" y="325" type="curve" smooth="yes"/>
      <point x="855" y="255"/>
      <point x="881" y="188"/>
      <point x="881" y="125" type="curve" smooth="yes"/>
      <point x="881" y="32"/>
      <point x="821" y="-10"/>
      <point x="759" y="-10" type="curve" smooth="yes"/>
      <point x="715" y="-10"/>
      <point x="689" y="1"/>
      <point x="657" y="34" type="curve" smooth="yes"/>
      <point x="628" y="62"/>
      <point x="604" y="115"/>
      <point x="598" y="218" type="curve" smooth="yes"/>
      <point x="593" y="313"/>
      <point x="584" y="382"/>
      <point x="531" y="382" type="curve" smooth="yes"/>
      <point x="486" y="382"/>
      <point x="476" y="321"/>
      <point x="462" y="236" type="curve" smooth="yes"/>
      <point x="444" y="134"/>
      <point x="418" y="70"/>
      <point x="388" y="41" type="curve" smooth="yes"/>
      <point x="357" y="9"/>
      <point x="318" y="-6"/>
      <point x="274" y="-6" type="curve" smooth="yes"/>
      <point x="174" y="-6"/>
      <point x="79" y="88"/>
      <point x="79" y="246" type="curve" smooth="yes"/>
      <point x="79" y="421"/>
      <point x="164" y="496"/>
      <point x="238" y="496" type="curve" smooth="yes"/>
      <point x="310" y="496"/>
      <point x="359" y="438"/>
      <point x="359" y="369" type="curve" smooth="yes"/>
      <point x="359" y="298"/>
      <point x="304" y="244"/>
      <point x="235" y="244" type="curve" smooth="yes"/>
      <point x="179" y="244"/>
      <point x="133" y="274"/>
      <point x="97" y="331" type="curve" smooth="yes"/>
      <point x="88" y="346"/>
      <point x="92" y="367"/>
      <point x="107" y="377" type="curve" smooth="yes"/>
      <point x="122" y="386"/>
      <point x="143" y="382"/>
    </contour>
  </outline>
</glyph>
<glyph name="knRvocal" format="1">
  <advance width="1032"/>
  <unicode hex="0C8B"/>
  <outline>
    <contour>
      <point x="477" y="470" type="curve" smooth="yes"/>
      <point x="589" y="470" type="line" smooth="yes"/>
      <point x="648" y="470"/>
      <point x="683" y="490"/>
      <point x="709" y="532" type="curve" smooth="yes"/>
      <point x="718" y="547"/>
      <point x="739" y="552"/>
      <point x="754" y="543" type="curve" smooth="yes"/>
      <point x="769" y="534"/>
      <point x="774" y="513"/>
      <point x="765" y="498" type="curve" smooth="yes"/>
      <point x="727" y="436"/>
      <point x="676" y="404"/>
      <point x="589" y="404" type="curve" smooth="yes"/>
      <point x="477" y="404" type="line" smooth="yes"/>
      <point x="459" y="404"/>
      <point x="444" y="419"/>
      <point x="444" y="437" type="curve" smooth="yes"/>
      <point x="444" y="455"/>
      <point x="459" y="470"/>
    </contour>
    <component base="knKha"/>
    <component base="knUsign" xOffset="751"/>
  </outline>
</glyph>
<glyph name="knRvocal" format="1">
  <advance width="1066"/>
  <unicode hex="0C8B"/>
  <outline>
    <contour>
      <point x="524" y="470" type="curve" smooth="yes"/>
      <point x="636" y="470" type="line" smooth="yes"/>
      <point x="695" y="470"/>
      <point x="730" y="490"/>
      <point x="756" y="532" type="curve" smooth="yes"/>
      <point x="765" y="547"/>
      <point x="786" y="552"/>
      <point x="801" y="543" type="curve" smooth="yes"/>
      <point x="816" y="534"/>
      <point x="821" y="513"/>
      <point x="812" y="498" type="curve" smooth="yes"/>
      <point x="774" y="436"/>
      <point x="723" y="404"/>
      <point x="636" y="404" type="curve" smooth="yes"/>
      <point x="524" y="404" type="line" smooth="yes"/>
      <point x="506" y="404"/>
      <point x="491" y="419"/>
      <point x="491" y="437" type="curve" smooth="yes"/>
      <point x="491" y="455"/>
      <point x="506" y="470"/>
    </contour>
    <component base="knKha"/>
    <component base="knUsign" xOffset="786"/>
    <component base="knKha"/>
    <component base="knUsign" xOffset="786"/>
  </outline>
</glyph>
<glyph name="knE" format="1">
  <advance width="741"/>
  <unicode hex="0C8E"/>
  <outline>
    <contour>
      <point x="207" y="192" type="curve" smooth="yes"/>
      <point x="163" y="192"/>
      <point x="131" y="158"/>
      <point x="131" y="125" type="curve" smooth="yes"/>
      <point x="131" y="88"/>
      <point x="164" y="60"/>
      <point x="208" y="60" type="curve" smooth="yes"/>
      <point x="270" y="60"/>
      <point x="307" y="88"/>
      <point x="337" y="144" type="curve" smooth="yes"/>
      <point x="342" y="153"/>
      <point x="355" y="161"/>
      <point x="366" y="161" type="curve" smooth="yes"/>
      <point x="371" y="161" type="line" smooth="yes"/>
      <point x="382" y="161"/>
      <point x="394" y="154"/>
      <point x="400" y="145" type="curve" smooth="yes"/>
      <point x="432" y="87"/>
      <point x="464" y="60"/>
      <point x="516" y="60" type="curve" smooth="yes"/>
      <point x="571" y="60"/>
      <point x="615" y="101"/>
      <point x="614" y="172" type="curve" smooth="yes"/>
      <point x="613" y="310"/>
      <point x="476" y="430"/>
      <point x="223" y="430" type="curve" smooth="yes"/>
      <point x="205" y="430"/>
      <point x="190" y="445"/>
      <point x="190" y="463" type="curve" smooth="yes"/>
      <point x="190" y="481"/>
      <point x="205" y="496"/>
      <point x="223" y="496" type="curve" smooth="yes"/>
      <point x="540" y="496"/>
      <point x="679" y="334"/>
      <point x="680" y="172" type="curve" smooth="yes"/>
      <point x="681" y="55"/>
      <point x="603" y="-6"/>
      <point x="516" y="-6" type="curve" smooth="yes"/>
      <point x="442" y="-6"/>
      <point x="392" y="27"/>
      <point x="342" y="111" type="curve"/>
      <point x="371" y="95" type="line"/>
      <point x="366" y="95" type="line"/>
      <point x="395" y="112" type="line"/>
      <point x="351" y="32"/>
      <point x="296" y="-6"/>
      <point x="208" y="-6" type="curve" smooth="yes"/>
      <point x="120" y="-6"/>
      <point x="65" y="56"/>
      <point x="65" y="125" type="curve" smooth="yes"/>
      <point x="65" y="188"/>
      <point x="121" y="258"/>
      <point x="207" y="258" type="curve" smooth="yes"/>
      <point x="225" y="258"/>
      <point x="240" y="243"/>
      <point x="240" y="225" type="curve" smooth="yes"/>
      <point x="240" y="207"/>
      <point x="225" y="192"/>
    </contour>
  </outline>
</glyph>
<glyph name="knEe" format="1">
  <advance width="741"/>
  <unicode hex="0C8F"/>
  <outline>
    <contour>
      <point x="204" y="461" type="curve" smooth="yes"/>
      <point x="213" y="414"/>
      <point x="239" y="383"/>
      <point x="277" y="383" type="curve" smooth="yes"/>
      <point x="318" y="383"/>
      <point x="343" y="416"/>
      <point x="352" y="458" type="curve" smooth="yes"/>
      <point x="356" y="475"/>
      <point x="374" y="487"/>
      <point x="391" y="483" type="curve" smooth="yes"/>
      <point x="408" y="479"/>
      <point x="420" y="461"/>
      <point x="416" y="444" type="curve" smooth="yes"/>
      <point x="399" y="366"/>
      <point x="348" y="317"/>
      <point x="277" y="317" type="curve" smooth="yes"/>
      <point x="211" y="317"/>
      <point x="157" y="360"/>
      <point x="140" y="449" type="curve" smooth="yes"/>
      <point x="136" y="466"/>
      <point x="148" y="484"/>
      <point x="166" y="487" type="curve" smooth="yes"/>
      <point x="183" y="491"/>
      <point x="201" y="479"/>
    </contour>
    <contour>
      <point x="207" y="192" type="curve" smooth="yes"/>
      <point x="163" y="192"/>
      <point x="131" y="158"/>
      <point x="131" y="125" type="curve" smooth="yes"/>
      <point x="131" y="88"/>
      <point x="164" y="60"/>
      <point x="208" y="60" type="curve" smooth="yes"/>
      <point x="270" y="60"/>
      <point x="307" y="88"/>
      <point x="337" y="144" type="curve" smooth="yes"/>
      <point x="342" y="153"/>
      <point x="355" y="161"/>
      <point x="366" y="161" type="curve" smooth="yes"/>
      <point x="371" y="161" type="line" smooth="yes"/>
      <point x="382" y="161"/>
      <point x="394" y="154"/>
      <point x="400" y="145" type="curve" smooth="yes"/>
      <point x="432" y="87"/>
      <point x="464" y="60"/>
      <point x="516" y="60" type="curve" smooth="yes"/>
      <point x="571" y="60"/>
      <point x="615" y="101"/>
      <point x="614" y="172" type="curve" smooth="yes"/>
      <point x="613" y="280"/>
      <point x="540" y="386"/>
      <point x="379" y="423" type="curve" smooth="yes"/>
      <point x="361" y="427"/>
      <point x="350" y="445"/>
      <point x="354" y="462" type="curve" smooth="yes"/>
      <point x="358" y="480"/>
      <point x="376" y="491"/>
      <point x="393" y="487" type="curve" smooth="yes"/>
      <point x="596" y="442"/>
      <point x="679" y="304"/>
      <point x="680" y="172" type="curve" smooth="yes"/>
      <point x="681" y="55"/>
      <point x="603" y="-6"/>
      <point x="516" y="-6" type="curve" smooth="yes"/>
      <point x="442" y="-6"/>
      <point x="392" y="27"/>
      <point x="342" y="111" type="curve"/>
      <point x="371" y="95" type="line"/>
      <point x="366" y="95" type="line"/>
      <point x="395" y="112" type="line"/>
      <point x="351" y="32"/>
      <point x="296" y="-6"/>
      <point x="208" y="-6" type="curve" smooth="yes"/>
      <point x="120" y="-6"/>
      <point x="65" y="56"/>
      <point x="65" y="125" type="curve" smooth="yes"/>
      <point x="65" y="188"/>
      <point x="121" y="258"/>
      <point x="207" y="258" type="curve" smooth="yes"/>
      <point x="225" y="258"/>
      <point x="240" y="243"/>
      <point x="240" y="225" type="curve" smooth="yes"/>
      <point x="240" y="207"/>
      <point x="225" y="192"/>
    </contour>
  </outline>
</glyph>
<glyph name="knEe" format="1">
  <advance width="741"/>
  <unicode hex="0C8F"/>
  <outline>
    <contour>
      <point x="202" y="486" type="curve" smooth="yes"/>
      <point x="211" y="440"/>
      <point x="241" y="409"/>
      <point x="285" y="409" type="curve" smooth="yes"/>
      <point x="328" y="409"/>
      <point x="347" y="439"/>
      <point x="362" y="471" type="curve" smooth="yes"/>
      <point x="370" y="487"/>
      <point x="390" y="494"/>
      <point x="406" y="487" type="curve" smooth="yes"/>
      <point x="422" y="479"/>
      <point x="429" y="459"/>
      <point x="422" y="443" type="curve" smooth="yes"/>
      <point x="395" y="385"/>
      <point x="356" y="343"/>
      <point x="285" y="343" type="curve" smooth="yes"/>
      <point x="209" y="343"/>
      <point x="153" y="392"/>
      <point x="138" y="474" type="curve" smooth="yes"/>
      <point x="134" y="491"/>
      <point x="146" y="509"/>
      <point x="164" y="512" type="curve" smooth="yes"/>
      <point x="181" y="516"/>
      <point x="199" y="504"/>
    </contour>
    <contour>
      <point x="185" y="202" type="curve" smooth="yes"/>
      <point x="153" y="189"/>
      <point x="130" y="160"/>
      <point x="130" y="125" type="curve" smooth="yes"/>
      <point x="130" y="88"/>
      <point x="161" y="54"/>
      <point x="214" y="54" type="curve" smooth="yes"/>
      <point x="268" y="54"/>
      <point x="307" y="78"/>
      <point x="336" y="142" type="curve" smooth="yes"/>
      <point x="341" y="152"/>
      <point x="354" y="161"/>
      <point x="366" y="161" type="curve" smooth="yes"/>
      <point x="371" y="161" type="line" smooth="yes"/>
      <point x="382" y="161"/>
      <point x="395" y="153"/>
      <point x="400" y="143" type="curve" smooth="yes"/>
      <point x="433" y="80"/>
      <point x="464" y="60"/>
      <point x="514" y="60" type="curve" smooth="yes"/>
      <point x="570" y="60"/>
      <point x="615" y="101"/>
      <point x="614" y="172" type="curve" smooth="yes"/>
      <point x="613" y="263"/>
      <point x="534" y="376"/>
      <point x="382" y="432" type="curve" smooth="yes"/>
      <point x="366" y="438"/>
      <point x="357" y="458"/>
      <point x="363" y="475" type="curve" smooth="yes"/>
      <point x="369" y="491"/>
      <point x="389" y="500"/>
      <point x="406" y="494" type="curve" smooth="yes"/>
      <point x="592" y="424"/>
      <point x="679" y="281"/>
      <point x="680" y="172" type="curve" smooth="yes"/>
      <point x="681" y="55"/>
      <point x="604" y="-6"/>
      <point x="514" y="-6" type="curve" smooth="yes"/>
      <point x="440" y="-6"/>
      <point x="391" y="18"/>
      <point x="342" y="113" type="curve"/>
      <point x="371" y="95" type="line"/>
      <point x="366" y="95" type="line"/>
      <point x="396" y="114" type="line"/>
      <point x="353" y="20"/>
      <point x="294" y="-12"/>
      <point x="214" y="-12" type="curve" smooth="yes"/>
      <point x="113" y="-12"/>
      <point x="64" y="60"/>
      <point x="64" y="125" type="curve"/>
      <point x="64" y="186"/>
      <point x="103" y="241"/>
      <point x="161" y="264" type="curve" smooth="yes"/>
      <point x="177" y="270"/>
      <point x="197" y="262"/>
      <point x="204" y="245" type="curve" smooth="yes"/>
      <point x="210" y="229"/>
      <point x="202" y="209"/>
    </contour>
  </outline>
</glyph>
<glyph name="knAi" format="1">
  <advance width="741"/>
  <unicode hex="0C90"/>
  <outline>
    <contour>
      <point x="185" y="202" type="curve" smooth="yes"/>
      <point x="153" y="189"/>
      <point x="130" y="160"/>
      <point x="130" y="125" type="curve" smooth="yes"/>
      <point x="130" y="88"/>
      <point x="162" y="56"/>
      <point x="214" y="56" type="curve" smooth="yes"/>
      <point x="269" y="56"/>
      <point x="307" y="81"/>
      <point x="336" y="142" type="curve" smooth="yes"/>
      <point x="341" y="153"/>
      <point x="355" y="161"/>
      <point x="366" y="161" type="curve" smooth="yes"/>
      <point x="371" y="161" type="line" smooth="yes"/>
      <point x="382" y="161"/>
      <point x="395" y="153"/>
      <point x="400" y="143" type="curve" smooth="yes"/>
      <point x="433" y="80"/>
      <point x="464" y="60"/>
      <point x="514" y="60" type="curve" smooth="yes"/>
      <point x="582" y="60"/>
      <point x="621" y="114"/>
      <point x="621" y="213" type="curve" smooth="yes"/>
      <point x="621" y="345"/>
      <point x="566" y="416"/>
      <point x="504" y="416" type="curve" smooth="yes"/>
      <point x="458" y="416"/>
      <point x="429" y="381"/>
      <point x="392" y="319" type="curve" smooth="yes"/>
      <point x="387" y="310"/>
      <point x="374" y="303"/>
      <point x="364" y="303" type="curve" smooth="yes"/>
      <point x="359" y="303" type="line" smooth="yes"/>
      <point x="348" y="303"/>
      <point x="336" y="310"/>
      <point x="330" y="320" type="curve" smooth="yes"/>
      <point x="295" y="382"/>
      <point x="256" y="414"/>
      <point x="208" y="414" type="curve" smooth="yes"/>
      <point x="162" y="414"/>
      <point x="130" y="379"/>
      <point x="117" y="328" type="curve" smooth="yes"/>
      <point x="113" y="311"/>
      <point x="94" y="300"/>
      <point x="77" y="304" type="curve" smooth="yes"/>
      <point x="60" y="308"/>
      <point x="49" y="327"/>
      <point x="53" y="344" type="curve" smooth="yes"/>
      <point x="74" y="431"/>
      <point x="134" y="480"/>
      <point x="208" y="480" type="curve" smooth="yes"/>
      <point x="276" y="480"/>
      <point x="335" y="444"/>
      <point x="388" y="352" type="curve"/>
      <point x="359" y="369" type="line"/>
      <point x="364" y="369" type="line"/>
      <point x="336" y="353" type="line"/>
      <point x="391" y="447"/>
      <point x="440" y="482"/>
      <point x="504" y="482" type="curve" smooth="yes"/>
      <point x="586" y="482"/>
      <point x="687" y="419"/>
      <point x="687" y="213" type="curve" smooth="yes"/>
      <point x="687" y="54"/>
      <point x="612" y="-6"/>
      <point x="514" y="-6" type="curve" smooth="yes"/>
      <point x="440" y="-6"/>
      <point x="391" y="18"/>
      <point x="342" y="113" type="curve"/>
      <point x="371" y="95" type="line"/>
      <point x="366" y="95" type="line"/>
      <point x="396" y="114" type="line"/>
      <point x="351" y="23"/>
      <point x="293" y="-10"/>
      <point x="214" y="-10" type="curve" smooth="yes"/>
      <point x="112" y="-10"/>
      <point x="64" y="60"/>
      <point x="64" y="125" type="curve"/>
      <point x="64" y="186"/>
      <point x="103" y="241"/>
      <point x="161" y="264" type="curve" smooth="yes"/>
      <point x="177" y="270"/>
      <point x="197" y="262"/>
      <point x="204" y="245" type="curve" smooth="yes"/>
      <point x="210" y="229"/>
      <point x="202" y="209"/>
    </contour>
  </outline>
</glyph>
<glyph name="knAi" format="1">
  <advance width="741"/>
  <unicode hex="0C90"/>
  <outline>
    <contour>
      <point x="185" y="202" type="curve" smooth="yes"/>
      <point x="153" y="189"/>
      <point x="130" y="160"/>
      <point x="130" y="125" type="curve" smooth="yes"/>
      <point x="130" y="88"/>
      <point x="161" y="54"/>
      <point x="214" y="54" type="curve" smooth="yes"/>
      <point x="268" y="54"/>
      <point x="307" y="78"/>
      <point x="336" y="142" type="curve" smooth="yes"/>
      <point x="341" y="152"/>
      <point x="354" y="161"/>
      <point x="366" y="161" type="curve" smooth="yes"/>
      <point x="371" y="161" type="line" smooth="yes"/>
      <point x="382" y="161"/>
      <point x="395" y="153"/>
      <point x="400" y="143" type="curve" smooth="yes"/>
      <point x="433" y="80"/>
      <point x="464" y="60"/>
      <point x="514" y="60" type="curve" smooth="yes"/>
      <point x="582" y="60"/>
      <point x="621" y="114"/>
      <point x="621" y="213" type="curve" smooth="yes"/>
      <point x="621" y="345"/>
      <point x="566" y="422"/>
      <point x="504" y="422" type="curve" smooth="yes"/>
      <point x="458" y="422"/>
      <point x="429" y="387"/>
      <point x="392" y="325" type="curve" smooth="yes"/>
      <point x="387" y="316"/>
      <point x="374" y="309"/>
      <point x="364" y="309" type="curve" smooth="yes"/>
      <point x="359" y="309" type="line" smooth="yes"/>
      <point x="348" y="309"/>
      <point x="336" y="316"/>
      <point x="330" y="326" type="curve" smooth="yes"/>
      <point x="295" y="388"/>
      <point x="256" y="420"/>
      <point x="208" y="420" type="curve" smooth="yes"/>
      <point x="162" y="420"/>
      <point x="130" y="385"/>
      <point x="117" y="334" type="curve" smooth="yes"/>
      <point x="113" y="317"/>
      <point x="94" y="306"/>
      <point x="77" y="310" type="curve" smooth="yes"/>
      <point x="60" y="314"/>
      <point x="49" y="333"/>
      <point x="53" y="350" type="curve" smooth="yes"/>
      <point x="74" y="437"/>
      <point x="134" y="486"/>
      <point x="208" y="486" type="curve" smooth="yes"/>
      <point x="276" y="486"/>
      <point x="335" y="450"/>
      <point x="388" y="358" type="curve"/>
      <point x="359" y="375" type="line"/>
      <point x="364" y="375" type="line"/>
      <point x="336" y="359" type="line"/>
      <point x="391" y="453"/>
      <point x="440" y="488"/>
      <point x="504" y="488" type="curve" smooth="yes"/>
      <point x="586" y="488"/>
      <point x="687" y="419"/>
      <point x="687" y="213" type="curve" smooth="yes"/>
      <point x="687" y="54"/>
      <point x="612" y="-6"/>
      <point x="514" y="-6" type="curve" smooth="yes"/>
      <point x="440" y="-6"/>
      <point x="391" y="18"/>
      <point x="342" y="113" type="curve"/>
      <point x="371" y="95" type="line"/>
      <point x="366" y="95" type="line"/>
      <point x="396" y="114" type="line"/>
      <point x="353" y="20"/>
      <point x="294" y="-12"/>
      <point x="214" y="-12" type="curve" smooth="yes"/>
      <point x="113" y="-12"/>
      <point x="64" y="60"/>
      <point x="64" y="125" type="curve"/>
      <point x="64" y="186"/>
      <point x="103" y="241"/>
      <point x="161" y="264" type="curve" smooth="yes"/>
      <point x="177" y="270"/>
      <point x="197" y="262"/>
      <point x="204" y="245" type="curve" smooth="yes"/>
      <point x="210" y="229"/>
      <point x="202" y="209"/>
    </contour>
  </outline>
</glyph>
<glyph name="knO" format="1">
  <advance width="716"/>
  <unicode hex="0C92"/>
  <outline>
    <contour>
      <point x="46" y="428" type="curve" smooth="yes"/>
      <point x="80" y="463"/>
      <point x="121" y="485"/>
      <point x="169" y="485" type="curve" smooth="yes"/>
      <point x="243" y="485"/>
      <point x="287" y="435"/>
      <point x="287" y="375" type="curve" smooth="yes"/>
      <point x="287" y="329"/>
      <point x="265" y="287"/>
      <point x="196" y="231" type="curve" smooth="yes"/>
      <point x="157" y="200"/>
      <point x="129" y="168"/>
      <point x="129" y="129" type="curve" smooth="yes"/>
      <point x="129" y="90"/>
      <point x="159" y="60"/>
      <point x="208" y="60" type="curve" smooth="yes"/>
      <point x="264" y="60"/>
      <point x="300" y="86"/>
      <point x="337" y="145" type="curve" smooth="yes"/>
      <point x="342" y="154"/>
      <point x="355" y="161"/>
      <point x="365" y="161" type="curve" smooth="yes"/>
      <point x="370" y="161" type="line" smooth="yes"/>
      <point x="380" y="161"/>
      <point x="392" y="154"/>
      <point x="398" y="146" type="curve" smooth="yes"/>
      <point x="432" y="92"/>
      <point x="470" y="60"/>
      <point x="531" y="60" type="curve" smooth="yes"/>
      <point x="581" y="60"/>
      <point x="613" y="93"/>
      <point x="613" y="134" type="curve" smooth="yes"/>
      <point x="613" y="168"/>
      <point x="595" y="193"/>
      <point x="565" y="209" type="curve" smooth="yes"/>
      <point x="549" y="218"/>
      <point x="544" y="239"/>
      <point x="552" y="254" type="curve" smooth="yes"/>
      <point x="561" y="270"/>
      <point x="582" y="275"/>
      <point x="597" y="267" type="curve" smooth="yes"/>
      <point x="649" y="237"/>
      <point x="679" y="194"/>
      <point x="679" y="134" type="curve" smooth="yes"/>
      <point x="679" y="59"/>
      <point x="625" y="-6"/>
      <point x="531" y="-6" type="curve" smooth="yes"/>
      <point x="446" y="-6"/>
      <point x="392" y="34"/>
      <point x="342" y="110" type="curve"/>
      <point x="370" y="95" type="line"/>
      <point x="365" y="95" type="line"/>
      <point x="393" y="111" type="line"/>
      <point x="340" y="26"/>
      <point x="286" y="-6"/>
      <point x="208" y="-6" type="curve" smooth="yes"/>
      <point x="111" y="-6"/>
      <point x="63" y="58"/>
      <point x="63" y="129" type="curve" smooth="yes"/>
      <point x="63" y="186"/>
      <point x="97" y="236"/>
      <point x="154" y="283" type="curve" smooth="yes"/>
      <point x="199" y="319"/>
      <point x="221" y="343"/>
      <point x="221" y="375" type="curve" smooth="yes"/>
      <point x="221" y="401"/>
      <point x="199" y="419"/>
      <point x="169" y="419" type="curve" smooth="yes"/>
      <point x="139" y="419"/>
      <point x="114" y="403"/>
      <point x="92" y="382" type="curve" smooth="yes"/>
      <point x="80" y="369"/>
      <point x="58" y="369"/>
      <point x="46" y="382" type="curve" smooth="yes"/>
      <point x="33" y="394"/>
      <point x="33" y="416"/>
    </contour>
  </outline>
</glyph>
<glyph name="knOo" format="1">
  <advance width="775"/>
  <unicode hex="0C93"/>
  <outline>
    <contour>
      <point x="374" y="568" type="curve" smooth="yes"/>
      <point x="363" y="573"/>
      <point x="348" y="578"/>
      <point x="329" y="578" type="curve" smooth="yes"/>
      <point x="301" y="578"/>
      <point x="283" y="557"/>
      <point x="283" y="531" type="curve" smooth="yes"/>
      <point x="283" y="508"/>
      <point x="288" y="485"/>
      <point x="292" y="471" type="curve" smooth="yes"/>
      <point x="296" y="454"/>
      <point x="285" y="435"/>
      <point x="268" y="431" type="curve" smooth="yes"/>
      <point x="251" y="427"/>
      <point x="232" y="438"/>
      <point x="228" y="455" type="curve" smooth="yes"/>
      <point x="224" y="473"/>
      <point x="217" y="502"/>
      <point x="217" y="531" type="curve" smooth="yes"/>
      <point x="217" y="595"/>
      <point x="263" y="644"/>
      <point x="329" y="644" type="curve" smooth="yes"/>
      <point x="360" y="644"/>
      <point x="383" y="637"/>
      <point x="402" y="628" type="curve" smooth="yes"/>
      <point x="418" y="620"/>
      <point x="425" y="600"/>
      <point x="418" y="584" type="curve" smooth="yes"/>
      <point x="410" y="568"/>
      <point x="390" y="561"/>
    </contour>
    <component base="knO"/>
    <component base="knO"/>
  </outline>
</glyph>
